<svg width="280" height="206" viewBox="0 0 280 206" fill="none" xmlns="http://www.w3.org/2000/svg">
<path d="M161.398 184.042C201.476 184.042 233.965 151.357 233.965 111.039C233.965 70.7213 201.476 38.037 161.398 38.037C121.32 38.037 88.8298 70.7213 88.8298 111.039C88.8298 151.357 121.32 184.042 161.398 184.042Z" fill="#0F4B83"/>
<path d="M161.397 165.791C191.876 165.791 216.584 141.083 216.584 110.605C216.584 80.1263 191.876 55.4185 161.397 55.4185C130.919 55.4185 106.211 80.1263 106.211 110.605C106.211 141.083 130.919 165.791 161.397 165.791Z" fill="white"/>
<path d="M160.963 150.148C182.562 150.148 200.071 132.444 200.071 110.605C200.071 88.7658 182.562 71.0619 160.963 71.0619C139.364 71.0619 121.855 88.7658 121.855 110.605C121.855 132.444 139.364 150.148 160.963 150.148Z" fill="#0F4B83"/>
<path d="M160.963 126.683C170.082 126.683 177.475 119.484 177.475 110.605C177.475 101.725 170.082 94.5269 160.963 94.5269C151.843 94.5269 144.45 101.725 144.45 110.605C144.45 119.484 151.843 126.683 160.963 126.683Z" fill="white"/>
<path d="M121.164 165.735H140.867L112.626 205.768H97.5205L121.164 165.735ZM202.785 165.735H183.082L211.323 205.768H226.429L202.785 165.735ZM243.39 190.899C255.464 190.899 265.252 180.998 265.252 168.785C265.252 156.572 255.464 146.671 243.39 146.671C231.316 146.671 221.529 156.572 221.529 168.785C221.529 180.998 231.316 190.899 243.39 190.899Z" fill="#0F4B83"/>
<path fill-rule="evenodd" clip-rule="evenodd" d="M255.183 162.943C255.9 163.738 255.854 164.979 255.079 165.714L245.37 174.937C243.588 176.666 240.715 176.663 238.939 174.833C238.939 174.833 238.939 174.833 238.939 174.833L235.391 171.174C234.646 170.407 234.649 169.165 235.398 168.401C236.146 167.637 237.357 167.641 238.102 168.408L241.65 172.066C241.946 172.371 242.45 172.372 242.743 172.086C242.75 172.08 242.756 172.073 242.763 172.067L252.481 162.837C253.256 162.101 254.465 162.149 255.183 162.943Z" fill="white"/>
<path fill-rule="evenodd" clip-rule="evenodd" d="M36.83 77.5631C37.4267 75.3809 39.6973 74.0907 41.9016 74.6814L160.515 106.47C162.719 107.06 164.022 109.308 163.425 111.491C162.829 113.673 160.558 114.963 158.354 114.372L39.7408 82.5842C37.5365 81.9934 36.2333 79.7454 36.83 77.5631Z" fill="#E1E4E5"/>
<path d="M45.7526 79.7822L48.0376 71.2411C50.8704 60.6524 59.5711 58.3242 67.355 66.1049L73.6164 72.3797L79.8782 78.6549C87.6621 86.4352 85.3427 95.1047 74.7178 97.9447L66.1625 100.243L57.6071 102.542C46.9819 105.382 40.6091 99.0083 43.4418 88.4196L45.7526 79.7822Z" fill="#E1E4E5"/>
<path d="M247.355 75.4309C244.452 77.3094 241.002 75.9228 236.055 72.6025C232.335 70.1049 228.915 67.88 226.133 63.6056C224.185 60.6147 223.092 57.3988 222.554 54.5585C221.972 51.481 220.869 47.7329 223.334 45.9282C226.72 43.449 237.559 45.6656 244.199 55.1718C251.492 65.6162 250.192 73.5957 247.355 75.4309Z" fill="url(#paint0_linear_680_698)"/>
<path d="M270.457 98.4718C263.739 101.806 254.823 97.5189 254.823 97.5189C254.823 97.5189 256.805 87.8285 263.526 84.4993C270.244 81.1654 279.157 85.4475 279.157 85.4475C279.157 85.4475 277.175 95.1379 270.457 98.4718Z" fill="url(#paint1_linear_680_698)"/>
<path d="M51.8866 160.202C59.5642 164.746 70.5792 160.545 70.5792 160.545C70.5792 160.545 69.1389 148.979 61.4565 144.44C53.7789 139.896 42.7688 144.092 42.7688 144.092C42.7688 144.092 44.2091 155.658 51.8866 160.202Z" fill="url(#paint2_linear_680_698)"/>
<path d="M253.954 114.516C250.594 114.516 247.87 117.239 247.87 120.599C247.87 123.959 250.594 126.683 253.954 126.683C257.314 126.683 260.037 123.959 260.037 120.599C260.037 117.239 257.314 114.516 253.954 114.516Z" fill="#0F4B83"/>
<path d="M65.7992 117.992C63.1593 117.992 61.0193 120.326 61.0193 123.206C61.0193 126.086 63.1593 128.421 65.7992 128.421C68.4391 128.421 70.5791 126.086 70.5791 123.206C70.5791 120.326 68.4391 117.992 65.7992 117.992Z" fill="#0F4B83"/>
<path d="M97.0859 173.613C93.966 173.613 91.4369 171.084 91.4369 167.964C91.4369 164.844 93.966 162.315 97.0859 162.315C100.206 162.315 102.735 164.844 102.735 167.964C102.735 171.084 100.206 173.613 97.0859 173.613Z" fill="#0F4B83"/>
<path d="M273.073 130.159C271.634 130.159 270.466 128.992 270.466 127.552C270.466 126.112 271.634 124.944 273.073 124.944C274.513 124.944 275.681 126.112 275.681 127.552C275.681 128.992 274.513 130.159 273.073 130.159Z" fill="#0F4B83"/>
<path d="M149.665 200.554C147.745 200.554 146.189 198.998 146.189 197.078C146.189 195.158 147.745 193.601 149.665 193.601C151.585 193.601 153.141 195.158 153.141 197.078C153.141 198.998 151.585 200.554 149.665 200.554Z" fill="#E1E4E5"/>
<path d="M71.0137 196.209C68.3738 196.209 66.2338 193.874 66.2338 190.994C66.2338 188.114 68.3738 185.78 71.0137 185.78C73.6535 185.78 75.7936 188.114 75.7936 190.994C75.7936 193.874 73.6535 196.209 71.0137 196.209Z" fill="#E1E4E5"/>
<path d="M242.221 204.899C240.061 204.899 238.311 203.148 238.311 200.989C238.311 198.829 240.061 197.078 242.221 197.078C244.381 197.078 246.132 198.829 246.132 200.989C246.132 203.148 244.381 204.899 242.221 204.899Z" fill="#E1E4E5"/>
<path d="M262.645 67.5856C260.245 67.5856 258.299 65.8346 258.299 63.6747C258.299 61.5148 260.245 59.7639 262.645 59.7639C265.045 59.7639 266.99 61.5148 266.99 63.6747C266.99 65.8346 265.045 67.5856 262.645 67.5856Z" fill="#E1E4E5"/>
<path d="M37.352 112.317C37.8969 114.351 36.69 116.442 34.6561 116.987C32.6223 117.532 30.5317 116.325 29.9868 114.291C29.4418 112.257 30.6488 110.167 32.6826 109.622C34.7165 109.077 36.807 110.284 37.352 112.317Z" fill="#E1E4E5"/>
<path d="M93.1751 62.3711C92.2151 62.3711 91.4369 61.5929 91.4369 60.633C91.4369 59.673 92.2151 58.8948 93.1751 58.8948C94.135 58.8948 94.9132 59.673 94.9132 60.633C94.9132 61.5929 94.135 62.3711 93.1751 62.3711Z" fill="#E1E4E5"/>
<path d="M263.079 146.671C260.919 146.671 259.168 145.31 259.168 143.63C259.168 141.95 260.919 140.588 263.079 140.588C265.239 140.588 266.99 141.95 266.99 143.63C266.99 145.31 265.239 146.671 263.079 146.671Z" fill="#E1E4E5"/>
<path d="M204.858 35.666C205.253 37.1385 204.379 38.6519 202.906 39.0464C201.434 39.441 199.921 38.5672 199.526 37.0948C199.131 35.6224 200.005 34.1089 201.478 33.7144C202.95 33.3198 204.464 34.1936 204.858 35.666Z" fill="#E1E4E5"/>
<path d="M65.7702 64.1093H65.8269C66.1634 68.4807 69.7101 68.5482 69.7101 68.5482C69.7101 68.5482 65.7991 68.6179 65.7991 73.6691C65.7991 68.6179 61.8884 68.5482 61.8884 68.5482C61.8884 68.5482 65.4334 68.4807 65.7702 64.1093Z" fill="#E1E4E5"/>
<path d="M0.84 17.6C0.84 15.952 1.208 14.48 1.944 13.184C2.696 11.872 3.712 10.856 4.992 10.136C6.288 9.4 7.736 9.032 9.336 9.032C11.208 9.032 12.848 9.512 14.256 10.472C15.664 11.432 16.648 12.76 17.208 14.456H13.344C12.96 13.656 12.416 13.056 11.712 12.656C11.024 12.256 10.224 12.056 9.312 12.056C8.336 12.056 7.464 12.288 6.696 12.752C5.944 13.2 5.352 13.84 4.92 14.672C4.504 15.504 4.296 16.48 4.296 17.6C4.296 18.704 4.504 19.68 4.92 20.528C5.352 21.36 5.944 22.008 6.696 22.472C7.464 22.92 8.336 23.144 9.312 23.144C10.224 23.144 11.024 22.944 11.712 22.544C12.416 22.128 12.96 21.52 13.344 20.72H17.208C16.648 22.432 15.664 23.768 14.256 24.728C12.864 25.672 11.224 26.144 9.336 26.144C7.736 26.144 6.288 25.784 4.992 25.064C3.712 24.328 2.696 23.312 1.944 22.016C1.208 20.72 0.84 19.248 0.84 17.6ZM27.5659 12.512C28.5739 12.512 29.4699 12.736 30.2539 13.184C31.0379 13.616 31.6459 14.264 32.0779 15.128C32.5259 15.976 32.7499 17 32.7499 18.2V26H29.3899V18.656C29.3899 17.6 29.1259 16.792 28.5979 16.232C28.0699 15.656 27.3499 15.368 26.4379 15.368C25.5099 15.368 24.7739 15.656 24.2299 16.232C23.7019 16.792 23.4379 17.6 23.4379 18.656V26H20.0779V8.24H23.4379V14.36C23.8699 13.784 24.4459 13.336 25.1659 13.016C25.8859 12.68 26.6859 12.512 27.5659 12.512ZM35.0811 19.304C35.0811 17.96 35.3451 16.768 35.8731 15.728C36.4171 14.688 37.1451 13.888 38.0571 13.328C38.9851 12.768 40.0171 12.488 41.1531 12.488C42.1451 12.488 43.0091 12.688 43.7451 13.088C44.4971 13.488 45.0971 13.992 45.5451 14.6V12.704H48.9291V26H45.5451V24.056C45.1131 24.68 44.5131 25.2 43.7451 25.616C42.9931 26.016 42.1211 26.216 41.1291 26.216C40.0091 26.216 38.9851 25.928 38.0571 25.352C37.1451 24.776 36.4171 23.968 35.8731 22.928C35.3451 21.872 35.0811 20.664 35.0811 19.304ZM45.5451 19.352C45.5451 18.536 45.3851 17.84 45.0651 17.264C44.7451 16.672 44.3131 16.224 43.7691 15.92C43.2251 15.6 42.6411 15.44 42.0171 15.44C41.3931 15.44 40.8171 15.592 40.2891 15.896C39.7611 16.2 39.3291 16.648 38.9931 17.24C38.6731 17.816 38.5131 18.504 38.5131 19.304C38.5131 20.104 38.6731 20.808 38.9931 21.416C39.3291 22.008 39.7611 22.464 40.2891 22.784C40.8331 23.104 41.4091 23.264 42.0171 23.264C42.6411 23.264 43.2251 23.112 43.7691 22.808C44.3131 22.488 44.7451 22.04 45.0651 21.464C45.3851 20.872 45.5451 20.168 45.5451 19.352ZM55.5707 8.24V26H52.2107V8.24H55.5707ZM62.2504 8.24V26H58.8904V8.24H62.2504ZM77.9301 19.064C77.9301 19.544 77.8981 19.976 77.8341 20.36H68.1141C68.1941 21.32 68.5301 22.072 69.1221 22.616C69.7141 23.16 70.4421 23.432 71.3061 23.432C72.5541 23.432 73.4421 22.896 73.9701 21.824H77.5941C77.2101 23.104 76.4741 24.16 75.3861 24.992C74.2981 25.808 72.9621 26.216 71.3781 26.216C70.0981 26.216 68.9461 25.936 67.9221 25.376C66.9141 24.8 66.1221 23.992 65.5461 22.952C64.9861 21.912 64.7061 20.712 64.7061 19.352C64.7061 17.976 64.9861 16.768 65.5461 15.728C66.1061 14.688 66.8901 13.888 67.8981 13.328C68.9061 12.768 70.0661 12.488 71.3781 12.488C72.6421 12.488 73.7701 12.76 74.7621 13.304C75.7701 13.848 76.5461 14.624 77.0901 15.632C77.6501 16.624 77.9301 17.768 77.9301 19.064ZM74.4501 18.104C74.4341 17.24 74.1221 16.552 73.5141 16.04C72.9061 15.512 72.1621 15.248 71.2821 15.248C70.4501 15.248 69.7461 15.504 69.1701 16.016C68.6101 16.512 68.2661 17.208 68.1381 18.104H74.4501ZM87.7506 12.512C89.3346 12.512 90.6146 13.016 91.5906 14.024C92.5666 15.016 93.0546 16.408 93.0546 18.2V26H89.6946V18.656C89.6946 17.6 89.4306 16.792 88.9026 16.232C88.3746 15.656 87.6546 15.368 86.7426 15.368C85.8146 15.368 85.0786 15.656 84.5346 16.232C84.0066 16.792 83.7426 17.6 83.7426 18.656V26H80.3826V12.704H83.7426V14.36C84.1906 13.784 84.7586 13.336 85.4466 13.016C86.1506 12.68 86.9186 12.512 87.7506 12.512ZM101.458 12.488C102.45 12.488 103.322 12.688 104.074 13.088C104.826 13.472 105.418 13.976 105.85 14.6V12.704H109.234V26.096C109.234 27.328 108.986 28.424 108.49 29.384C107.994 30.36 107.25 31.128 106.258 31.688C105.266 32.264 104.066 32.552 102.658 32.552C100.77 32.552 99.2178 32.112 98.0018 31.232C96.8018 30.352 96.1218 29.152 95.9618 27.632H99.2978C99.4738 28.24 99.8498 28.72 100.426 29.072C101.018 29.44 101.73 29.624 102.562 29.624C103.538 29.624 104.33 29.328 104.938 28.736C105.546 28.16 105.85 27.28 105.85 26.096V24.032C105.418 24.656 104.818 25.176 104.05 25.592C103.298 26.008 102.434 26.216 101.458 26.216C100.338 26.216 99.3138 25.928 98.3858 25.352C97.4578 24.776 96.7218 23.968 96.1777 22.928C95.6497 21.872 95.3857 20.664 95.3857 19.304C95.3857 17.96 95.6497 16.768 96.1777 15.728C96.7218 14.688 97.4498 13.888 98.3618 13.328C99.2898 12.768 100.322 12.488 101.458 12.488ZM105.85 19.352C105.85 18.536 105.69 17.84 105.37 17.264C105.05 16.672 104.618 16.224 104.074 15.92C103.53 15.6 102.946 15.44 102.322 15.44C101.698 15.44 101.122 15.592 100.594 15.896C100.066 16.2 99.6338 16.648 99.2978 17.24C98.9778 17.816 98.8178 18.504 98.8178 19.304C98.8178 20.104 98.9778 20.808 99.2978 21.416C99.6338 22.008 100.066 22.464 100.594 22.784C101.138 23.104 101.714 23.264 102.322 23.264C102.946 23.264 103.53 23.112 104.074 22.808C104.618 22.488 105.05 22.04 105.37 21.464C105.69 20.872 105.85 20.168 105.85 19.352ZM124.875 19.064C124.875 19.544 124.843 19.976 124.779 20.36H115.059C115.139 21.32 115.475 22.072 116.067 22.616C116.659 23.16 117.387 23.432 118.251 23.432C119.499 23.432 120.387 22.896 120.915 21.824H124.539C124.155 23.104 123.419 24.16 122.331 24.992C121.243 25.808 119.907 26.216 118.323 26.216C117.043 26.216 115.891 25.936 114.867 25.376C113.859 24.8 113.067 23.992 112.491 22.952C111.931 21.912 111.651 20.712 111.651 19.352C111.651 17.976 111.931 16.768 112.491 15.728C113.051 14.688 113.835 13.888 114.843 13.328C115.851 12.768 117.011 12.488 118.323 12.488C119.587 12.488 120.715 12.76 121.707 13.304C122.715 13.848 123.491 14.624 124.035 15.632C124.595 16.624 124.875 17.768 124.875 19.064ZM121.395 18.104C121.379 17.24 121.067 16.552 120.459 16.04C119.851 15.512 119.107 15.248 118.227 15.248C117.395 15.248 116.691 15.504 116.115 16.016C115.555 16.512 115.211 17.208 115.083 18.104H121.395ZM132.416 26.216C131.328 26.216 130.352 26.024 129.488 25.64C128.624 25.24 127.936 24.704 127.424 24.032C126.928 23.36 126.656 22.616 126.608 21.8H129.992C130.056 22.312 130.304 22.736 130.736 23.072C131.184 23.408 131.736 23.576 132.392 23.576C133.032 23.576 133.528 23.448 133.88 23.192C134.248 22.936 134.432 22.608 134.432 22.208C134.432 21.776 134.208 21.456 133.76 21.248C133.328 21.024 132.632 20.784 131.672 20.528C130.68 20.288 129.864 20.04 129.224 19.784C128.6 19.528 128.056 19.136 127.592 18.608C127.144 18.08 126.92 17.368 126.92 16.472C126.92 15.736 127.128 15.064 127.544 14.456C127.976 13.848 128.584 13.368 129.368 13.016C130.168 12.664 131.104 12.488 132.176 12.488C133.76 12.488 135.024 12.888 135.968 13.688C136.912 14.472 137.432 15.536 137.528 16.88H134.312C134.264 16.352 134.04 15.936 133.64 15.632C133.256 15.312 132.736 15.152 132.08 15.152C131.472 15.152 131 15.264 130.664 15.488C130.344 15.712 130.184 16.024 130.184 16.424C130.184 16.872 130.408 17.216 130.856 17.456C131.304 17.68 132 17.912 132.944 18.152C133.904 18.392 134.696 18.64 135.32 18.896C135.944 19.152 136.48 19.552 136.928 20.096C137.392 20.624 137.632 21.328 137.648 22.208C137.648 22.976 137.432 23.664 137 24.272C136.584 24.88 135.976 25.36 135.176 25.712C134.392 26.048 133.472 26.216 132.416 26.216Z" fill="#FFFBFA"/>
<defs>
<linearGradient id="paint0_linear_680_698" x1="228.165" y1="87.4" x2="247.03" y2="20.2199" gradientUnits="userSpaceOnUse">
<stop stop-color="white"/>
<stop offset="1" stop-color="#EEEEEE"/>
</linearGradient>
<linearGradient id="paint1_linear_680_698" x1="244.66" y1="108.871" x2="300.089" y2="65.0468" gradientUnits="userSpaceOnUse">
<stop stop-color="white"/>
<stop offset="1" stop-color="#EEEEEE"/>
</linearGradient>
<linearGradient id="paint2_linear_680_698" x1="81.597" y1="174.83" x2="20.5388" y2="117.382" gradientUnits="userSpaceOnUse">
<stop stop-color="white"/>
<stop offset="1" stop-color="#EEEEEE"/>
</linearGradient>
</defs>
</svg>
