<svg width="375" height="250" viewBox="0 0 375 250" fill="none" xmlns="http://www.w3.org/2000/svg">
<path d="M79.575 147.674C78.0346 176.058 133.528 233.773 201.927 212.411C233.738 202.475 231.044 185.982 255.233 164.247C269.652 151.293 290.368 141.497 296.13 122.667C301.107 106.413 298.055 88.9433 289.426 77.58C270.018 52.025 230.838 34.5258 192.233 74.79C153.629 115.054 83.5558 74.4692 79.575 147.674Z" fill="url(#paint0_linear_729_536)"/>
<path d="M94.7871 85.1067C100.185 94.74 112.006 96.0637 130.945 94.2329C145.188 92.8537 158.177 91.7862 172.421 84.02C182.391 78.5879 190.283 71.2387 196.044 64.1008C202.285 56.3683 210.998 47.5429 206.727 38.7754C200.857 26.7312 166.915 16.5879 133.955 33.1758C97.7496 51.4033 89.5066 75.6917 94.7871 85.1067Z" fill="url(#paint1_linear_729_536)"/>
<path d="M232.173 202.922C244.748 185.33 257.626 166.633 274.486 157.423C291.877 147.92 295.085 153.777 296.288 163.089C297.492 172.401 292.127 194.464 268.393 207.018C244.653 219.575 220.407 219.386 232.173 202.922Z" fill="url(#paint2_linear_729_536)"/>
<path d="M261.197 126.915C261.197 86.0858 228.099 52.9879 187.27 52.9879C146.442 52.9879 113.344 86.0862 113.344 126.915C113.344 167.743 146.442 200.841 187.27 200.841C228.099 200.841 261.197 167.743 261.197 126.915Z" fill="#F8464C"/>
<path d="M187.27 190.615C222.451 190.615 250.971 162.095 250.971 126.915C250.971 91.7338 222.451 63.2142 187.27 63.2142C152.09 63.2142 123.57 91.7338 123.57 126.915C123.57 162.095 152.09 190.615 187.27 190.615Z" fill="white"/>
<path d="M185.417 78.7817C185.417 79.0308 185.579 79.1904 185.686 79.2679C185.801 79.3521 185.941 79.4104 186.076 79.4521C186.352 79.5371 186.708 79.5833 187.083 79.5833C187.457 79.5833 187.813 79.5367 188.089 79.4517C188.224 79.41 188.364 79.3517 188.479 79.2683C188.585 79.1917 188.75 79.0325 188.75 78.7817V68.7183C188.75 68.4692 188.588 68.3096 188.481 68.2321C188.366 68.1479 188.226 68.0896 188.09 68.0479C187.815 67.9629 187.459 67.9167 187.083 67.9167C186.708 67.9167 186.352 67.9629 186.076 68.0479C185.941 68.0896 185.801 68.1479 185.686 68.2321C185.579 68.3096 185.417 68.4692 185.417 68.7183V78.7817ZM185.417 183.801C185.417 184.058 185.591 184.215 185.694 184.286C185.809 184.365 185.948 184.42 186.082 184.46C186.356 184.54 186.71 184.583 187.083 184.583C187.455 184.583 187.809 184.54 188.083 184.46C188.221 184.423 188.352 184.364 188.471 184.287C188.573 184.216 188.75 184.059 188.75 183.801V173.699C188.75 173.442 188.575 173.285 188.473 173.214C188.353 173.136 188.222 173.077 188.085 173.04C187.811 172.96 187.457 172.917 187.083 172.917C186.71 172.917 186.356 172.96 186.082 173.04C185.944 173.077 185.813 173.136 185.694 173.214C185.591 173.285 185.417 173.442 185.417 173.699V183.801ZM129.495 126.692H140.654C141.135 126.692 141.456 126.276 141.456 125.849C141.456 125.423 141.135 125.007 140.654 125.007H129.495C129.014 125.007 128.693 125.423 128.693 125.849C128.693 126.276 129.014 126.692 129.495 126.692Z" fill="#E1E4E5" stroke="#E1E4E5" stroke-width="2"/>
<path d="M129.558 127.5H140.859C141.106 127.5 141.266 127.341 141.346 127.233C141.432 127.118 141.491 126.978 141.533 126.842C141.62 126.566 141.667 126.209 141.667 125.833C141.667 125.457 141.62 125.101 141.533 124.825C141.491 124.689 141.432 124.549 141.346 124.433C141.266 124.326 141.106 124.167 140.859 124.167H129.558C129.31 124.167 129.15 124.326 129.07 124.433C128.985 124.549 128.926 124.689 128.883 124.825C128.797 125.101 128.75 125.457 128.75 125.833C128.75 126.209 128.797 126.566 128.883 126.842C128.926 126.978 128.985 127.118 129.07 127.233C129.15 127.341 129.31 127.5 129.558 127.5ZM234.972 127.5H244.611C244.86 127.5 245.019 127.34 245.098 127.232C245.183 127.117 245.242 126.977 245.284 126.841C245.37 126.565 245.417 126.209 245.417 125.833C245.417 125.457 245.37 125.102 245.284 124.825C245.242 124.69 245.183 124.55 245.098 124.434C245.019 124.327 244.86 124.167 244.611 124.167H234.972C234.724 124.167 234.564 124.327 234.485 124.434C234.4 124.55 234.341 124.69 234.299 124.825C234.213 125.102 234.167 125.457 234.167 125.833C234.167 126.209 234.213 126.565 234.299 126.841C234.341 126.977 234.4 127.117 234.485 127.232C234.564 127.34 234.724 127.5 234.972 127.5ZM215.412 176.555L215.411 176.554L210.6 167.541V167.54C210.403 167.172 210.508 166.685 210.88 166.453C211.273 166.208 211.758 166.368 211.965 166.755L215.412 176.555ZM215.412 176.555C215.549 176.809 215.807 176.971 216.094 176.971C216.233 176.971 216.37 176.932 216.492 176.857L216.496 176.855C216.868 176.623 216.974 176.137 216.776 175.768L216.776 175.768L211.965 166.755L215.412 176.555ZM157.773 76.7796H157.774L162.975 85.8121C163.027 85.9031 163.096 85.983 163.179 86.0471C163.262 86.1112 163.357 86.1583 163.459 86.1857C163.56 86.2132 163.666 86.2203 163.77 86.2068C163.874 86.1933 163.974 86.1594 164.065 86.1071L164.066 86.1067C164.249 86.0005 164.383 85.8257 164.438 85.6209C164.493 85.416 164.464 85.1978 164.358 85.0142V85.0137L159.158 75.9812V75.9808C159.106 75.8898 159.036 75.8099 158.953 75.7458C158.869 75.6818 158.774 75.6348 158.673 75.6075C158.572 75.5803 158.466 75.5733 158.362 75.587C158.258 75.6007 158.157 75.6349 158.066 75.6875C157.883 75.7936 157.749 75.9682 157.694 76.1729C157.639 76.3777 157.667 76.5959 157.773 76.7796ZM229.585 148.541C229.493 148.49 229.391 148.458 229.285 148.446C229.18 148.435 229.074 148.445 228.972 148.475C228.871 148.505 228.776 148.555 228.694 148.622C228.612 148.689 228.544 148.771 228.494 148.865C228.393 149.052 228.37 149.272 228.43 149.477C228.49 149.681 228.628 149.854 228.815 149.957L237.414 154.712L237.415 154.713C237.537 154.781 237.67 154.814 237.802 154.814C238.089 154.814 238.363 154.658 238.508 154.392L238.508 154.39C238.609 154.203 238.632 153.983 238.572 153.779C238.512 153.574 238.375 153.402 238.188 153.298L238.188 153.298L229.585 148.541ZM137.116 97.8346C137.024 97.7842 136.923 97.7526 136.818 97.7415C136.714 97.7304 136.608 97.7399 136.508 97.7697C136.407 97.7995 136.313 97.8489 136.232 97.915C136.15 97.9811 136.082 98.0627 136.032 98.155C135.932 98.3411 135.909 98.5594 135.969 98.7624C136.028 98.9653 136.166 99.1365 136.351 99.2387L145.815 104.436C145.907 104.487 146.008 104.519 146.112 104.53C146.217 104.542 146.323 104.532 146.424 104.502C146.524 104.473 146.618 104.423 146.7 104.357C146.782 104.291 146.849 104.209 146.899 104.116C147 103.93 147.023 103.712 146.963 103.509C146.903 103.306 146.766 103.135 146.581 103.033L137.116 97.8346ZM237.646 96.8621C237.594 96.7704 237.524 96.6899 237.441 96.6254C237.358 96.5609 237.262 96.5135 237.16 96.4861C237.059 96.4587 236.952 96.4518 236.848 96.4658C236.743 96.4797 236.643 96.5143 236.552 96.5675H236.551L228.37 101.334C228.187 101.441 228.053 101.616 227.999 101.82C227.944 102.025 227.972 102.243 228.077 102.427C228.129 102.519 228.199 102.6 228.282 102.664C228.366 102.729 228.461 102.776 228.563 102.804C228.664 102.831 228.771 102.838 228.875 102.825C228.979 102.811 229.08 102.776 229.171 102.723L229.172 102.723L237.354 97.9562L237.144 97.5962L237.354 97.9562C237.537 97.8492 237.671 97.6742 237.725 97.4693C237.78 97.2644 237.752 97.0461 237.646 96.8621ZM237.646 96.8621L237.285 97.0687L237.646 96.8621ZM146.238 148.968H146.237L136.766 154.21H136.766C136.387 154.42 136.242 154.901 136.472 155.284C136.544 155.401 136.644 155.498 136.764 155.565C136.884 155.632 137.019 155.667 137.156 155.666C137.29 155.666 137.422 155.633 137.542 155.568L137.547 155.566L147.018 150.324H147.018C147.397 150.114 147.542 149.632 147.311 149.25C147.087 148.878 146.607 148.764 146.238 148.968ZM158.613 176.628L158.613 176.629C158.411 177.012 158.543 177.501 158.928 177.72C159.049 177.789 159.183 177.823 159.316 177.823C159.605 177.823 159.877 177.662 160.019 177.395L160.02 177.394L165.223 167.531L165.223 167.53C165.425 167.147 165.293 166.657 164.907 166.439C164.814 166.387 164.712 166.354 164.606 166.342C164.501 166.331 164.394 166.34 164.293 166.371C164.191 166.401 164.096 166.452 164.015 166.52C163.933 166.587 163.866 166.671 163.817 166.765V166.765L158.613 176.628ZM209.323 83.7425V83.7429C209.272 83.8359 209.24 83.9381 209.228 84.0436C209.217 84.1491 209.226 84.2559 209.257 84.3577C209.287 84.4595 209.337 84.5542 209.404 84.6365C209.471 84.7188 209.553 84.787 209.647 84.8371C209.835 84.9384 210.055 84.9618 210.26 84.9022C210.465 84.8425 210.639 84.7047 210.743 84.5183L210.744 84.5171L215.496 75.92L215.496 75.9196C215.548 75.8265 215.58 75.7241 215.591 75.6185C215.603 75.5128 215.593 75.4059 215.563 75.304C215.532 75.2021 215.482 75.1073 215.415 75.025C215.348 74.9427 215.265 74.8745 215.171 74.8246C214.983 74.7238 214.762 74.7009 214.558 74.7609C214.353 74.8209 214.18 74.959 214.076 75.1454L209.323 83.7425Z" fill="#E1E4E5" stroke="#E1E4E5" stroke-width="2"/>
<path d="M227.292 123.75H188.125C186.859 123.75 185.833 124.776 185.833 126.042C185.833 127.307 186.859 128.333 188.125 128.333H227.292C228.557 128.333 229.583 127.307 229.583 126.042C229.583 124.776 228.557 123.75 227.292 123.75Z" fill="#F8464C"/>
<path d="M178.946 148.479L189.316 130.518C190.196 128.993 189.674 127.045 188.15 126.165C186.626 125.285 184.677 125.807 183.797 127.331L173.427 145.293C172.547 146.817 173.069 148.766 174.593 149.646C176.117 150.526 178.066 150.003 178.946 148.479Z" fill="#F8464C"/>
<path d="M193.445 132.251C196.742 128.955 196.742 123.61 193.445 120.314C190.149 117.017 184.805 117.017 181.508 120.314C178.212 123.61 178.212 128.955 181.508 132.251C184.805 135.547 190.149 135.547 193.445 132.251Z" fill="white"/>
<path d="M191.655 130.461C193.963 128.153 193.963 124.412 191.655 122.104C189.348 119.796 185.606 119.796 183.298 122.104C180.991 124.412 180.991 128.153 183.298 130.461C185.606 132.768 189.348 132.768 191.655 130.461Z" fill="#742B2D"/>
<path d="M82.1058 103.577C87.755 104.915 93.73 100.124 93.73 100.124C93.73 100.124 90.5417 93.1654 84.8904 91.8313C79.2412 90.4933 73.2679 95.28 73.2679 95.28C73.2679 95.28 76.4567 102.238 82.1058 103.577Z" fill="url(#paint3_linear_729_536)"/>
<path d="M235.126 44.655C229.178 48.7512 220.092 45.8879 220.092 45.8879C220.092 45.8879 220.655 36.3837 226.606 32.2908C232.554 28.1942 241.636 31.0537 241.636 31.0537C241.636 31.0537 241.073 40.5579 235.126 44.655Z" fill="url(#paint4_linear_729_536)"/>
<path d="M133.783 68.1571C127.336 74.7196 115.279 73.3358 115.279 73.3358C115.279 73.3358 113.683 61.3125 120.137 54.7542C126.585 48.1917 138.635 49.5712 138.635 49.5712C138.635 49.5712 140.231 61.595 133.783 68.1571Z" fill="url(#paint5_linear_729_536)"/>
<path d="M106.042 152.917C108.688 152.917 110.833 154.969 110.833 157.5C110.833 160.031 108.688 162.083 106.042 162.083C103.395 162.083 101.25 160.031 101.25 157.5C101.25 154.969 103.395 152.917 106.042 152.917Z" fill="#F8464C"/>
<path d="M154.583 205.417C157.575 205.417 160 207.935 160 211.042C160 214.148 157.575 216.667 154.583 216.667C151.592 216.667 149.167 214.148 149.167 211.042C149.167 207.935 151.592 205.417 154.583 205.417Z" fill="#F8464C"/>
<path d="M269.375 174.167C272.942 174.167 275.833 176.965 275.833 180.417C275.833 183.868 272.942 186.667 269.375 186.667C265.808 186.667 262.917 183.868 262.917 180.417C262.917 176.965 265.808 174.167 269.375 174.167Z" fill="#F8464C"/>
<path d="M278.125 106.25C279.391 106.25 280.417 105.224 280.417 103.958C280.417 102.693 279.391 101.667 278.125 101.667C276.859 101.667 275.833 102.693 275.833 103.958C275.833 105.224 276.859 106.25 278.125 106.25Z" fill="#F8464C"/>
<path d="M112.292 80.8333C114.708 80.8333 116.667 78.8746 116.667 76.4583C116.667 74.0421 114.708 72.0833 112.292 72.0833C109.875 72.0833 107.917 74.0421 107.917 76.4583C107.917 78.8746 109.875 80.8333 112.292 80.8333Z" fill="#F8464C"/>
<path d="M111.458 201.667C113.875 201.667 115.833 199.801 115.833 197.5C115.833 195.199 113.875 193.333 111.458 193.333C109.042 193.333 107.083 195.199 107.083 197.5C107.083 199.801 109.042 201.667 111.458 201.667Z" fill="#E1E4E5"/>
<path d="M295.833 147.083C298.365 147.083 300.417 145.218 300.417 142.917C300.417 140.615 298.365 138.75 295.833 138.75C293.302 138.75 291.25 140.615 291.25 142.917C291.25 145.218 293.302 147.083 295.833 147.083Z" fill="#E1E4E5"/>
<path d="M249.375 202.917C250.18 202.917 250.833 202.264 250.833 201.458C250.833 200.653 250.18 200 249.375 200C248.57 200 247.917 200.653 247.917 201.458C247.917 202.264 248.57 202.917 249.375 202.917Z" fill="#E1E4E5"/>
<path d="M137.917 56.25C139.067 56.25 140 55.3173 140 54.1667C140 53.0161 139.067 52.0833 137.917 52.0833C136.766 52.0833 135.833 53.0161 135.833 54.1667C135.833 55.3173 136.766 56.25 137.917 56.25Z" fill="#E1E4E5"/>
<path d="M268.967 126.964C268.676 128.05 269.321 129.166 270.407 129.457C271.493 129.748 272.609 129.103 272.9 128.017C273.191 126.931 272.547 125.815 271.461 125.524C270.375 125.233 269.258 125.877 268.967 126.964Z" fill="#E1E4E5"/>
<path d="M268.542 84.1667C270.037 84.1667 271.25 82.9541 271.25 81.4583C271.25 79.9626 270.037 78.75 268.542 78.75C267.046 78.75 265.833 79.9626 265.833 81.4583C265.833 82.9541 267.046 84.1667 268.542 84.1667Z" fill="#E1E4E5"/>
<path d="M102.917 131.25C104.067 131.25 105 130.504 105 129.583C105 128.663 104.067 127.917 102.917 127.917C101.766 127.917 100.833 128.663 100.833 129.583C100.833 130.504 101.766 131.25 102.917 131.25Z" fill="#E1E4E5"/>
<path d="M186.449 38.3325C185.844 40.5929 187.185 42.9162 189.445 43.5219C191.706 44.1275 194.029 42.7861 194.635 40.5258C195.24 38.2655 193.899 35.9421 191.639 35.3365C189.378 34.7308 187.055 36.0722 186.449 38.3325Z" fill="#E1E4E5"/>
<path d="M72.9446 128.75H72.89C72.5675 133.323 69.1667 133.393 69.1667 133.393C69.1667 133.393 72.9167 133.466 72.9167 138.75C72.9167 133.466 76.6667 133.393 76.6667 133.393C76.6667 133.393 73.2675 133.323 72.9446 128.75ZM251.923 56.6667H251.829C251.273 64.6688 245.417 64.7921 245.417 64.7921C245.417 64.7921 251.875 64.9204 251.875 74.1667C251.875 64.9204 258.333 64.7921 258.333 64.7921C258.333 64.7921 252.479 64.6688 251.923 56.6667Z" fill="#E1E4E5"/>
<defs>
<linearGradient id="paint0_linear_729_536" x1="145.901" y1="317.812" x2="249.704" y2="-150.51" gradientUnits="userSpaceOnUse">
<stop stop-color="white"/>
<stop offset="1" stop-color="#EEEEEE"/>
</linearGradient>
<linearGradient id="paint1_linear_729_536" x1="131.149" y1="147.539" x2="179.26" y2="-68.65" gradientUnits="userSpaceOnUse">
<stop stop-color="white"/>
<stop offset="1" stop-color="#EEEEEE"/>
</linearGradient>
<linearGradient id="paint2_linear_729_536" x1="246.214" y1="260.672" x2="287.471" y2="69.8801" gradientUnits="userSpaceOnUse">
<stop stop-color="white"/>
<stop offset="1" stop-color="#EEEEEE"/>
</linearGradient>
<linearGradient id="paint3_linear_729_536" x1="103.38" y1="106.904" x2="53.9258" y2="83.5404" gradientUnits="userSpaceOnUse">
<stop stop-color="white"/>
<stop offset="1" stop-color="#EEEEEE"/>
</linearGradient>
<linearGradient id="paint4_linear_729_536" x1="211.958" y1="58.0962" x2="258.775" y2="8.72913" gradientUnits="userSpaceOnUse">
<stop stop-color="white"/>
<stop offset="1" stop-color="#EEEEEE"/>
</linearGradient>
<linearGradient id="paint5_linear_729_536" x1="108.058" y1="90.5729" x2="154.671" y2="17.5033" gradientUnits="userSpaceOnUse">
<stop stop-color="white"/>
<stop offset="1" stop-color="#EEEEEE"/>
</linearGradient>
</defs>
</svg>
