<svg width="48" height="25" viewBox="0 0 48 25" fill="none" xmlns="http://www.w3.org/2000/svg">
<path d="M35.9598 0.871704H12.6231C10.6996 0.871429 8.80591 1.3468 7.11059 2.25548C5.41527 3.16417 3.97092 4.47798 2.90613 6.07995C1.84135 7.68191 1.18916 9.52233 1.00764 11.4373C0.826112 13.3524 1.12089 15.2825 1.86571 17.0561C2.61054 18.8296 3.78231 20.3914 5.2767 21.6025C6.77109 22.8136 8.54172 23.6363 10.431 23.9975C12.3202 24.3587 14.2695 24.2471 16.1052 23.6727C17.9409 23.0982 19.606 22.0787 20.9525 20.705H27.6253C28.9716 22.0786 30.6365 23.098 32.472 23.6725C34.3074 24.2469 36.2565 24.3587 38.1455 23.9978C40.0346 23.6368 41.8052 22.8144 43.2996 21.6037C44.794 20.393 45.9659 18.8316 46.7111 17.0584C47.4562 15.2853 47.7514 13.3554 47.5704 11.4405C47.3895 9.52567 46.7379 7.68527 45.6737 6.08313C44.6096 4.481 43.1659 3.16683 41.4711 2.25759C39.7763 1.34836 37.8831 0.872271 35.9598 0.871704ZM19.0393 13.4134C19.0393 13.6454 18.9471 13.868 18.783 14.0321C18.6189 14.1962 18.3964 14.2884 18.1643 14.2884H14.3729V18.08C14.3729 18.3121 14.2808 18.5346 14.1167 18.6987C13.9526 18.8628 13.73 18.955 13.498 18.955H11.7481C11.5161 18.955 11.2935 18.8628 11.1294 18.6987C10.9654 18.5346 10.8732 18.3121 10.8732 18.08V14.2884H7.08179C6.84975 14.2884 6.6272 14.1962 6.46312 14.0321C6.29904 13.868 6.20686 13.6454 6.20686 13.4134V11.6634C6.20686 11.4313 6.29904 11.2087 6.46312 11.0446C6.6272 10.8806 6.84975 10.7884 7.08179 10.7884H10.8732V6.9967C10.8732 6.76464 10.9654 6.54208 11.1294 6.37798C11.2935 6.21389 11.5161 6.1217 11.7481 6.1217H13.498C13.73 6.1217 13.9526 6.21389 14.1167 6.37798C14.2808 6.54208 14.3729 6.76464 14.3729 6.9967V10.7884H18.1643C18.3964 10.7884 18.6189 10.8806 18.783 11.0446C18.9471 11.2087 19.0393 11.4313 19.0393 11.6634V13.4134ZM34.7881 18.955C34.2113 18.955 33.6474 18.784 33.1678 18.4635C32.6882 18.143 32.3144 17.6875 32.0937 17.1545C31.8729 16.6216 31.8152 16.0351 31.9277 15.4693C32.0402 14.9036 32.318 14.3839 32.7259 13.976C33.1338 13.5681 33.6534 13.2903 34.2192 13.1777C34.7849 13.0652 35.3713 13.123 35.9042 13.3437C36.4371 13.5645 36.8926 13.9383 37.2131 14.4179C37.5335 14.8976 37.7046 15.4615 37.7046 16.0384C37.7046 16.8119 37.3973 17.5538 36.8504 18.1008C36.3034 18.6477 35.5616 18.955 34.7881 18.955ZM39.4545 11.955C38.8776 11.955 38.3138 11.784 37.8342 11.4635C37.3545 11.143 36.9807 10.6875 36.76 10.1545C36.5393 9.62157 36.4815 9.03513 36.594 8.46935C36.7066 7.90357 36.9843 7.38387 37.3922 6.97597C37.8001 6.56807 38.3197 6.29028 38.8855 6.17774C39.4512 6.0652 40.0376 6.12296 40.5705 6.34372C41.1034 6.56447 41.5589 6.93831 41.8794 7.41795C42.1999 7.8976 42.3709 8.4615 42.3709 9.03836C42.3709 9.81191 42.0636 10.5538 41.5167 11.1008C40.9698 11.6477 40.2279 11.955 39.4545 11.955Z" fill="#CCD5D8"/>
</svg>
