<svg width="69" height="68" viewBox="0 0 69 68" fill="none" xmlns="http://www.w3.org/2000/svg">
<path fill-rule="evenodd" clip-rule="evenodd" d="M31.7928 9.57348L37.1812 4.15191L64.1233 31.2598L58.7349 36.6813L46.6109 24.4828L25.0573 46.1691L37.1812 58.3676L31.7928 63.7892L4.85074 36.6813L10.2391 31.2598L22.3631 43.4583L43.9167 21.772L31.7928 9.57348ZM8.89205 57.0122L0.809429 48.8799L6.19784 43.4583L25.0573 62.4338L19.6689 67.8554L11.5863 59.723L8.89205 62.4338L6.19784 59.723L8.89205 57.0122ZM62.7762 8.21809L60.082 10.9289L68.1646 19.0612L62.7762 24.4828L43.9167 5.50731L49.3051 0.0857331L57.3878 8.21809L60.082 5.50731L62.7762 8.21809Z" fill="white"/>
</svg>
