<svg width="22" height="30" viewBox="0 0 22 30" fill="none" xmlns="http://www.w3.org/2000/svg">
<path d="M0.083374 5.08332V24.9167C0.083374 25.2924 0.23263 25.6527 0.498306 25.9184C0.763983 26.1841 1.12432 26.3333 1.50004 26.3333H5.75004V23.5H2.91671V6.49999H5.75004V3.66665H1.50004C1.12432 3.66665 0.763983 3.81591 0.498306 4.08158C0.23263 4.34726 0.083374 4.7076 0.083374 5.08332ZM20.2595 3.70915L8.92621 0.875818C8.71741 0.823743 8.4995 0.819916 8.28901 0.864629C8.07852 0.909342 7.88098 1.00142 7.71139 1.13387C7.54179 1.26633 7.4046 1.43567 7.31022 1.62906C7.21585 1.82245 7.16677 2.0348 7.16671 2.24999V27.75C7.16621 27.9654 7.21493 28.178 7.30914 28.3717C7.40335 28.5653 7.54056 28.7349 7.71029 28.8675C7.88003 29.0001 8.07781 29.0921 8.28854 29.1366C8.49927 29.1811 8.71737 29.1768 8.92621 29.1242L20.2595 26.2908C20.5662 26.2143 20.8384 26.0376 21.033 25.7886C21.2275 25.5396 21.3333 25.2327 21.3334 24.9167V5.08332C21.3333 4.76731 21.2275 4.46041 21.033 4.21141C20.8384 3.96242 20.5662 3.78563 20.2595 3.70915ZM14.25 15.2663C14.2337 15.6311 14.0773 15.9755 13.8134 16.2278C13.5496 16.4802 13.1985 16.621 12.8334 16.621C12.4682 16.621 12.1172 16.4802 11.8533 16.2278C11.5894 15.9755 11.433 15.6311 11.4167 15.2663V14.7322C11.4169 14.3565 11.5663 13.9963 11.8321 13.7307C12.0979 13.4652 12.4584 13.3161 12.8341 13.3163C13.2098 13.3165 13.5701 13.4659 13.8356 13.7317C14.1012 13.9975 14.2502 14.3579 14.25 14.7337V15.2663Z" fill="#022B3A"/>
</svg>
