<svg width="91" height="60" viewBox="0 0 91 60" fill="none" xmlns="http://www.w3.org/2000/svg">
<path fill-rule="evenodd" clip-rule="evenodd" d="M18.5455 1.09091C18.3285 1.09091 18.1204 1.17711 17.9669 1.33055C17.8135 1.48399 17.7273 1.6921 17.7273 1.90909C17.7273 2.12609 17.8135 2.33419 17.9669 2.48763C18.1204 2.64107 18.3285 2.72727 18.5455 2.72727H20.2658C20.1992 2.55306 20.1149 2.3615 20.0107 2.17196C19.6676 1.54819 19.1967 1.09091 18.5455 1.09091ZM16.6364 1.90909C16.6364 2.19482 16.7004 2.47395 16.8206 2.72727H15.5455C15.2442 2.72727 15 2.97148 15 3.27273V6C15 6.30125 15.2442 6.54545 15.5455 6.54545H16.0909V11.4545C16.0909 11.7558 16.3351 12 16.6364 12H21H25.3636C25.6649 12 25.9091 11.7558 25.9091 11.4545V6.54545H26.4545C26.7558 6.54545 27 6.30125 27 6V3.27273C27 2.97148 26.7558 2.72727 26.4545 2.72727H25.1794C25.2996 2.47395 25.3636 2.19482 25.3636 1.90909C25.3636 1.40277 25.1625 0.917184 24.8045 0.55916C24.4465 0.201136 23.9609 0 23.4545 0C22.1967 0 21.4404 0.906358 21.0334 1.64623C21.0221 1.66685 21.0109 1.68746 21 1.70804C20.9891 1.68746 20.9779 1.66685 20.9666 1.64623C20.5596 0.906358 19.8033 0 18.5455 0C18.0391 0 17.5535 0.201136 17.1955 0.55916C16.8375 0.917184 16.6364 1.40277 16.6364 1.90909ZM21.7342 2.72727H23.4545C23.6715 2.72727 23.8796 2.64107 24.0331 2.48763C24.1865 2.33419 24.2727 2.12609 24.2727 1.90909C24.2727 1.6921 24.1865 1.48399 24.0331 1.33055C23.8796 1.17711 23.6715 1.09091 23.4545 1.09091C22.8033 1.09091 22.3324 1.54819 21.9893 2.17196C21.8851 2.3615 21.8008 2.55306 21.7342 2.72727ZM21.5455 3.81818V5.45455H25.3636H25.9091V3.81818H23.4545H21.5455ZM18.5455 3.81818H20.4545V5.45455H16.6364H16.0909V3.81818H18.5455ZM21.5455 10.9091H24.8182V6.54545H21.5455V10.9091ZM20.4545 6.54545V10.9091H17.1818V6.54545H20.4545Z" fill="white"/>
<path fill-rule="evenodd" clip-rule="evenodd" d="M50.5455 1.09091C50.3285 1.09091 50.1204 1.17711 49.9669 1.33055C49.8135 1.48399 49.7273 1.6921 49.7273 1.90909C49.7273 2.12609 49.8135 2.33419 49.9669 2.48763C50.1204 2.64107 50.3285 2.72727 50.5455 2.72727H52.2658C52.1992 2.55306 52.1149 2.3615 52.0107 2.17196C51.6676 1.54819 51.1967 1.09091 50.5455 1.09091ZM48.6364 1.90909C48.6364 2.19482 48.7004 2.47395 48.8206 2.72727H47.5455C47.2442 2.72727 47 2.97148 47 3.27273V6C47 6.30125 47.2442 6.54545 47.5455 6.54545H48.0909V11.4545C48.0909 11.7558 48.3351 12 48.6364 12H53H57.3636C57.6649 12 57.9091 11.7558 57.9091 11.4545V6.54545H58.4545C58.7558 6.54545 59 6.30125 59 6V3.27273C59 2.97148 58.7558 2.72727 58.4545 2.72727H57.1794C57.2996 2.47395 57.3636 2.19482 57.3636 1.90909C57.3636 1.40277 57.1625 0.917184 56.8045 0.55916C56.4465 0.201136 55.9609 0 55.4545 0C54.1967 0 53.4404 0.906358 53.0334 1.64623C53.0221 1.66685 53.0109 1.68746 53 1.70804C52.9891 1.68746 52.9779 1.66685 52.9666 1.64623C52.5596 0.906358 51.8033 0 50.5455 0C50.0391 0 49.5535 0.201136 49.1955 0.55916C48.8375 0.917184 48.6364 1.40277 48.6364 1.90909ZM53.7342 2.72727H55.4545C55.6715 2.72727 55.8796 2.64107 56.0331 2.48763C56.1865 2.33419 56.2727 2.12609 56.2727 1.90909C56.2727 1.6921 56.1865 1.48399 56.0331 1.33055C55.8796 1.17711 55.6715 1.09091 55.4545 1.09091C54.8033 1.09091 54.3324 1.54819 53.9893 2.17196C53.8851 2.3615 53.8008 2.55306 53.7342 2.72727ZM53.5455 3.81818V5.45455H57.3636H57.9091V3.81818H55.4545H53.5455ZM50.5455 3.81818H52.4545V5.45455H48.6364H48.0909V3.81818H50.5455ZM53.5455 10.9091H56.8182V6.54545H53.5455V10.9091ZM52.4545 6.54545V10.9091H49.1818V6.54545H52.4545Z" fill="white" fill-opacity="0.7"/>
<path fill-rule="evenodd" clip-rule="evenodd" d="M82.5455 1.09091C82.3285 1.09091 82.1204 1.17711 81.9669 1.33055C81.8135 1.48399 81.7273 1.6921 81.7273 1.90909C81.7273 2.12609 81.8135 2.33419 81.9669 2.48763C82.1204 2.64107 82.3285 2.72727 82.5455 2.72727H84.2658C84.1992 2.55306 84.1149 2.3615 84.0107 2.17196C83.6676 1.54819 83.1967 1.09091 82.5455 1.09091ZM80.6364 1.90909C80.6364 2.19482 80.7004 2.47395 80.8206 2.72727H79.5455C79.2442 2.72727 79 2.97148 79 3.27273V6C79 6.30125 79.2442 6.54545 79.5455 6.54545H80.0909V11.4545C80.0909 11.7558 80.3351 12 80.6364 12H85H89.3636C89.6649 12 89.9091 11.7558 89.9091 11.4545V6.54545H90.4545C90.7558 6.54545 91 6.30125 91 6V3.27273C91 2.97148 90.7558 2.72727 90.4545 2.72727H89.1794C89.2996 2.47395 89.3636 2.19482 89.3636 1.90909C89.3636 1.40277 89.1625 0.917184 88.8045 0.55916C88.4465 0.201136 87.9609 0 87.4545 0C86.1967 0 85.4404 0.906358 85.0334 1.64623C85.0221 1.66685 85.0109 1.68746 85 1.70804C84.9891 1.68746 84.9779 1.66685 84.9666 1.64623C84.5596 0.906358 83.8033 0 82.5455 0C82.0391 0 81.5535 0.201136 81.1955 0.55916C80.8375 0.917184 80.6364 1.40277 80.6364 1.90909ZM85.7342 2.72727H87.4545C87.6715 2.72727 87.8796 2.64107 88.0331 2.48763C88.1865 2.33419 88.2727 2.12609 88.2727 1.90909C88.2727 1.6921 88.1865 1.48399 88.0331 1.33055C87.8796 1.17711 87.6715 1.09091 87.4545 1.09091C86.8033 1.09091 86.3324 1.54819 85.9893 2.17196C85.8851 2.3615 85.8008 2.55306 85.7342 2.72727ZM85.5455 3.81818V5.45455H89.3636H89.9091V3.81818H87.4545H85.5455ZM82.5455 3.81818H84.4545V5.45455H80.6364H80.0909V3.81818H82.5455ZM85.5455 10.9091H88.8182V6.54545H85.5455V10.9091ZM84.4545 6.54545V10.9091H81.1818V6.54545H84.4545Z" fill="white" fill-opacity="0.5"/>
<path fill-rule="evenodd" clip-rule="evenodd" d="M18.5455 25.0909C18.3285 25.0909 18.1204 25.1771 17.9669 25.3305C17.8135 25.484 17.7273 25.6921 17.7273 25.9091C17.7273 26.1261 17.8135 26.3342 17.9669 26.4876C18.1204 26.6411 18.3285 26.7273 18.5455 26.7273H20.2658C20.1992 26.5531 20.1149 26.3615 20.0107 26.172C19.6676 25.5482 19.1967 25.0909 18.5455 25.0909ZM16.6364 25.9091C16.6364 26.1948 16.7004 26.4739 16.8206 26.7273H15.5455C15.2442 26.7273 15 26.9715 15 27.2727V30C15 30.3012 15.2442 30.5455 15.5455 30.5455H16.0909V35.4545C16.0909 35.7558 16.3351 36 16.6364 36H21H25.3636C25.6649 36 25.9091 35.7558 25.9091 35.4545V30.5455H26.4545C26.7558 30.5455 27 30.3012 27 30V27.2727C27 26.9715 26.7558 26.7273 26.4545 26.7273H25.1794C25.2996 26.4739 25.3636 26.1948 25.3636 25.9091C25.3636 25.4028 25.1625 24.9172 24.8045 24.5592C24.4465 24.2011 23.9609 24 23.4545 24C22.1967 24 21.4404 24.9064 21.0334 25.6462C21.0221 25.6669 21.0109 25.6875 21 25.708C20.9891 25.6875 20.9779 25.6669 20.9666 25.6462C20.5596 24.9064 19.8033 24 18.5455 24C18.0391 24 17.5535 24.2011 17.1955 24.5592C16.8375 24.9172 16.6364 25.4028 16.6364 25.9091ZM21.7342 26.7273H23.4545C23.6715 26.7273 23.8796 26.6411 24.0331 26.4876C24.1865 26.3342 24.2727 26.1261 24.2727 25.9091C24.2727 25.6921 24.1865 25.484 24.0331 25.3305C23.8796 25.1771 23.6715 25.0909 23.4545 25.0909C22.8033 25.0909 22.3324 25.5482 21.9893 26.172C21.8851 26.3615 21.8008 26.5531 21.7342 26.7273ZM21.5455 27.8182V29.4545H25.3636H25.9091V27.8182H23.4545H21.5455ZM18.5455 27.8182H20.4545V29.4545H16.6364H16.0909V27.8182H18.5455ZM21.5455 34.9091H24.8182V30.5455H21.5455V34.9091ZM20.4545 30.5455V34.9091H17.1818V30.5455H20.4545Z" fill="white"/>
<path fill-rule="evenodd" clip-rule="evenodd" d="M50.5455 25.0909C50.3285 25.0909 50.1204 25.1771 49.9669 25.3305C49.8135 25.484 49.7273 25.6921 49.7273 25.9091C49.7273 26.1261 49.8135 26.3342 49.9669 26.4876C50.1204 26.6411 50.3285 26.7273 50.5455 26.7273H52.2658C52.1992 26.5531 52.1149 26.3615 52.0107 26.172C51.6676 25.5482 51.1967 25.0909 50.5455 25.0909ZM48.6364 25.9091C48.6364 26.1948 48.7004 26.4739 48.8206 26.7273H47.5455C47.2442 26.7273 47 26.9715 47 27.2727V30C47 30.3012 47.2442 30.5455 47.5455 30.5455H48.0909V35.4545C48.0909 35.7558 48.3351 36 48.6364 36H53H57.3636C57.6649 36 57.9091 35.7558 57.9091 35.4545V30.5455H58.4545C58.7558 30.5455 59 30.3012 59 30V27.2727C59 26.9715 58.7558 26.7273 58.4545 26.7273H57.1794C57.2996 26.4739 57.3636 26.1948 57.3636 25.9091C57.3636 25.4028 57.1625 24.9172 56.8045 24.5592C56.4465 24.2011 55.9609 24 55.4545 24C54.1967 24 53.4404 24.9064 53.0334 25.6462C53.0221 25.6669 53.0109 25.6875 53 25.708C52.9891 25.6875 52.9779 25.6669 52.9666 25.6462C52.5596 24.9064 51.8033 24 50.5455 24C50.0391 24 49.5535 24.2011 49.1955 24.5592C48.8375 24.9172 48.6364 25.4028 48.6364 25.9091ZM53.7342 26.7273H55.4545C55.6715 26.7273 55.8796 26.6411 56.0331 26.4876C56.1865 26.3342 56.2727 26.1261 56.2727 25.9091C56.2727 25.6921 56.1865 25.484 56.0331 25.3305C55.8796 25.1771 55.6715 25.0909 55.4545 25.0909C54.8033 25.0909 54.3324 25.5482 53.9893 26.172C53.8851 26.3615 53.8008 26.5531 53.7342 26.7273ZM53.5455 27.8182V29.4545H57.3636H57.9091V27.8182H55.4545H53.5455ZM50.5455 27.8182H52.4545V29.4545H48.6364H48.0909V27.8182H50.5455ZM53.5455 34.9091H56.8182V30.5455H53.5455V34.9091ZM52.4545 30.5455V34.9091H49.1818V30.5455H52.4545Z" fill="white" fill-opacity="0.7"/>
<path fill-rule="evenodd" clip-rule="evenodd" d="M82.5455 25.0909C82.3285 25.0909 82.1204 25.1771 81.9669 25.3305C81.8135 25.484 81.7273 25.6921 81.7273 25.9091C81.7273 26.1261 81.8135 26.3342 81.9669 26.4876C82.1204 26.6411 82.3285 26.7273 82.5455 26.7273H84.2658C84.1992 26.5531 84.1149 26.3615 84.0107 26.172C83.6676 25.5482 83.1967 25.0909 82.5455 25.0909ZM80.6364 25.9091C80.6364 26.1948 80.7004 26.4739 80.8206 26.7273H79.5455C79.2442 26.7273 79 26.9715 79 27.2727V30C79 30.3012 79.2442 30.5455 79.5455 30.5455H80.0909V35.4545C80.0909 35.7558 80.3351 36 80.6364 36H85H89.3636C89.6649 36 89.9091 35.7558 89.9091 35.4545V30.5455H90.4545C90.7558 30.5455 91 30.3012 91 30V27.2727C91 26.9715 90.7558 26.7273 90.4545 26.7273H89.1794C89.2996 26.4739 89.3636 26.1948 89.3636 25.9091C89.3636 25.4028 89.1625 24.9172 88.8045 24.5592C88.4465 24.2011 87.9609 24 87.4545 24C86.1967 24 85.4404 24.9064 85.0334 25.6462C85.0221 25.6669 85.0109 25.6875 85 25.708C84.9891 25.6875 84.9779 25.6669 84.9666 25.6462C84.5596 24.9064 83.8033 24 82.5455 24C82.0391 24 81.5535 24.2011 81.1955 24.5592C80.8375 24.9172 80.6364 25.4028 80.6364 25.9091ZM85.7342 26.7273H87.4545C87.6715 26.7273 87.8796 26.6411 88.0331 26.4876C88.1865 26.3342 88.2727 26.1261 88.2727 25.9091C88.2727 25.6921 88.1865 25.484 88.0331 25.3305C87.8796 25.1771 87.6715 25.0909 87.4545 25.0909C86.8033 25.0909 86.3324 25.5482 85.9893 26.172C85.8851 26.3615 85.8008 26.5531 85.7342 26.7273ZM85.5455 27.8182V29.4545H89.3636H89.9091V27.8182H87.4545H85.5455ZM82.5455 27.8182H84.4545V29.4545H80.6364H80.0909V27.8182H82.5455ZM85.5455 34.9091H88.8182V30.5455H85.5455V34.9091ZM84.4545 30.5455V34.9091H81.1818V30.5455H84.4545Z" fill="white" fill-opacity="0.5"/>
<path fill-rule="evenodd" clip-rule="evenodd" d="M18.5455 49.0909C18.3285 49.0909 18.1204 49.1771 17.9669 49.3305C17.8135 49.484 17.7273 49.6921 17.7273 49.9091C17.7273 50.1261 17.8135 50.3342 17.9669 50.4876C18.1204 50.6411 18.3285 50.7273 18.5455 50.7273H20.2658C20.1992 50.5531 20.1149 50.3615 20.0107 50.172C19.6676 49.5482 19.1967 49.0909 18.5455 49.0909ZM16.6364 49.9091C16.6364 50.1948 16.7004 50.4739 16.8206 50.7273H15.5455C15.2442 50.7273 15 50.9715 15 51.2727V54C15 54.3012 15.2442 54.5455 15.5455 54.5455H16.0909V59.4545C16.0909 59.7558 16.3351 60 16.6364 60H21H25.3636C25.6649 60 25.9091 59.7558 25.9091 59.4545V54.5455H26.4545C26.7558 54.5455 27 54.3012 27 54V51.2727C27 50.9715 26.7558 50.7273 26.4545 50.7273H25.1794C25.2996 50.4739 25.3636 50.1948 25.3636 49.9091C25.3636 49.4028 25.1625 48.9172 24.8045 48.5592C24.4465 48.2011 23.9609 48 23.4545 48C22.1967 48 21.4404 48.9064 21.0334 49.6462C21.0221 49.6669 21.0109 49.6875 21 49.708C20.9891 49.6875 20.9779 49.6669 20.9666 49.6462C20.5596 48.9064 19.8033 48 18.5455 48C18.0391 48 17.5535 48.2011 17.1955 48.5592C16.8375 48.9172 16.6364 49.4028 16.6364 49.9091ZM21.7342 50.7273H23.4545C23.6715 50.7273 23.8796 50.6411 24.0331 50.4876C24.1865 50.3342 24.2727 50.1261 24.2727 49.9091C24.2727 49.6921 24.1865 49.484 24.0331 49.3305C23.8796 49.1771 23.6715 49.0909 23.4545 49.0909C22.8033 49.0909 22.3324 49.5482 21.9893 50.172C21.8851 50.3615 21.8008 50.5531 21.7342 50.7273ZM21.5455 51.8182V53.4545H25.3636H25.9091V51.8182H23.4545H21.5455ZM18.5455 51.8182H20.4545V53.4545H16.6364H16.0909V51.8182H18.5455ZM21.5455 58.9091H24.8182V54.5455H21.5455V58.9091ZM20.4545 54.5455V58.9091H17.1818V54.5455H20.4545Z" fill="white"/>
<path fill-rule="evenodd" clip-rule="evenodd" d="M50.5455 49.0909C50.3285 49.0909 50.1204 49.1771 49.9669 49.3305C49.8135 49.484 49.7273 49.6921 49.7273 49.9091C49.7273 50.1261 49.8135 50.3342 49.9669 50.4876C50.1204 50.6411 50.3285 50.7273 50.5455 50.7273H52.2658C52.1992 50.5531 52.1149 50.3615 52.0107 50.172C51.6676 49.5482 51.1967 49.0909 50.5455 49.0909ZM48.6364 49.9091C48.6364 50.1948 48.7004 50.4739 48.8206 50.7273H47.5455C47.2442 50.7273 47 50.9715 47 51.2727V54C47 54.3012 47.2442 54.5455 47.5455 54.5455H48.0909V59.4545C48.0909 59.7558 48.3351 60 48.6364 60H53H57.3636C57.6649 60 57.9091 59.7558 57.9091 59.4545V54.5455H58.4545C58.7558 54.5455 59 54.3012 59 54V51.2727C59 50.9715 58.7558 50.7273 58.4545 50.7273H57.1794C57.2996 50.4739 57.3636 50.1948 57.3636 49.9091C57.3636 49.4028 57.1625 48.9172 56.8045 48.5592C56.4465 48.2011 55.9609 48 55.4545 48C54.1967 48 53.4404 48.9064 53.0334 49.6462C53.0221 49.6669 53.0109 49.6875 53 49.708C52.9891 49.6875 52.9779 49.6669 52.9666 49.6462C52.5596 48.9064 51.8033 48 50.5455 48C50.0391 48 49.5535 48.2011 49.1955 48.5592C48.8375 48.9172 48.6364 49.4028 48.6364 49.9091ZM53.7342 50.7273H55.4545C55.6715 50.7273 55.8796 50.6411 56.0331 50.4876C56.1865 50.3342 56.2727 50.1261 56.2727 49.9091C56.2727 49.6921 56.1865 49.484 56.0331 49.3305C55.8796 49.1771 55.6715 49.0909 55.4545 49.0909C54.8033 49.0909 54.3324 49.5482 53.9893 50.172C53.8851 50.3615 53.8008 50.5531 53.7342 50.7273ZM53.5455 51.8182V53.4545H57.3636H57.9091V51.8182H55.4545H53.5455ZM50.5455 51.8182H52.4545V53.4545H48.6364H48.0909V51.8182H50.5455ZM53.5455 58.9091H56.8182V54.5455H53.5455V58.9091ZM52.4545 54.5455V58.9091H49.1818V54.5455H52.4545Z" fill="white" fill-opacity="0.7"/>
<path fill-rule="evenodd" clip-rule="evenodd" d="M82.5455 49.0909C82.3285 49.0909 82.1204 49.1771 81.9669 49.3305C81.8135 49.484 81.7273 49.6921 81.7273 49.9091C81.7273 50.1261 81.8135 50.3342 81.9669 50.4876C82.1204 50.6411 82.3285 50.7273 82.5455 50.7273H84.2658C84.1992 50.5531 84.1149 50.3615 84.0107 50.172C83.6676 49.5482 83.1967 49.0909 82.5455 49.0909ZM80.6364 49.9091C80.6364 50.1948 80.7004 50.4739 80.8206 50.7273H79.5455C79.2442 50.7273 79 50.9715 79 51.2727V54C79 54.3012 79.2442 54.5455 79.5455 54.5455H80.0909V59.4545C80.0909 59.7558 80.3351 60 80.6364 60H85H89.3636C89.6649 60 89.9091 59.7558 89.9091 59.4545V54.5455H90.4545C90.7558 54.5455 91 54.3012 91 54V51.2727C91 50.9715 90.7558 50.7273 90.4545 50.7273H89.1794C89.2996 50.4739 89.3636 50.1948 89.3636 49.9091C89.3636 49.4028 89.1625 48.9172 88.8045 48.5592C88.4465 48.2011 87.9609 48 87.4545 48C86.1967 48 85.4404 48.9064 85.0334 49.6462C85.0221 49.6669 85.0109 49.6875 85 49.708C84.9891 49.6875 84.9779 49.6669 84.9666 49.6462C84.5596 48.9064 83.8033 48 82.5455 48C82.0391 48 81.5535 48.2011 81.1955 48.5592C80.8375 48.9172 80.6364 49.4028 80.6364 49.9091ZM85.7342 50.7273H87.4545C87.6715 50.7273 87.8796 50.6411 88.0331 50.4876C88.1865 50.3342 88.2727 50.1261 88.2727 49.9091C88.2727 49.6921 88.1865 49.484 88.0331 49.3305C87.8796 49.1771 87.6715 49.0909 87.4545 49.0909C86.8033 49.0909 86.3324 49.5482 85.9893 50.172C85.8851 50.3615 85.8008 50.5531 85.7342 50.7273ZM85.5455 51.8182V53.4545H89.3636H89.9091V51.8182H87.4545H85.5455ZM82.5455 51.8182H84.4545V53.4545H80.6364H80.0909V51.8182H82.5455ZM85.5455 58.9091H88.8182V54.5455H85.5455V58.9091ZM84.4545 54.5455V58.9091H81.1818V54.5455H84.4545Z" fill="white" fill-opacity="0.5"/>
<path d="M6 12H3.72082V2.83128L1 3.71193V1.77778L5.75552 0H6V12Z" fill="white"/>
<path d="M8 36H0.225901V34.3902L3.89484 30.3089C4.39857 29.7344 4.76988 29.2331 5.00876 28.8049C5.25284 28.3767 5.37488 27.9702 5.37488 27.5854C5.37488 27.0596 5.24765 26.6477 4.99318 26.3496C4.73872 26.0461 4.3752 25.8943 3.90263 25.8943C3.3937 25.8943 2.99124 26.0786 2.69523 26.4472C2.40441 26.8103 2.25901 27.29 2.25901 27.8862H0C0 27.1653 0.163583 26.5068 0.49075 25.9106C0.823109 25.3144 1.29049 24.8482 1.89289 24.5122C2.49529 24.1707 3.17819 24 3.94158 24C5.11003 24 6.01623 24.2927 6.66018 24.878C7.30932 25.4634 7.63389 26.29 7.63389 27.3577C7.63389 27.9431 7.48848 28.5393 7.19766 29.1463C6.90685 29.7534 6.40831 30.4607 5.70204 31.2683L3.12366 34.1057H8V36Z" fill="white"/>
<path d="M2.60336 52.9733H3.82196C4.40224 52.9733 4.83218 52.8262 5.11177 52.5321C5.39136 52.238 5.53116 51.8476 5.53116 51.361C5.53116 50.8904 5.39136 50.5241 5.11177 50.262C4.83745 50 4.45763 49.869 3.9723 49.869C3.53445 49.869 3.16782 49.992 2.8724 50.238C2.57699 50.4786 2.42928 50.7941 2.42928 51.1845H0.142433C0.142433 50.5749 0.30333 50.0294 0.625124 49.5481C0.952193 49.0615 1.40587 48.6818 1.98615 48.4091C2.57171 48.1364 3.2153 48 3.91691 48C5.13551 48 6.09034 48.2968 6.7814 48.8904C7.47247 49.4786 7.818 50.2914 7.818 51.3289C7.818 51.8636 7.6571 52.3556 7.33531 52.8048C7.01352 53.254 6.59149 53.5989 6.06924 53.8396C6.7181 54.0749 7.20079 54.4278 7.51731 54.8984C7.8391 55.369 8 55.9251 8 56.5668C8 57.6043 7.62545 58.4358 6.87636 59.0615C6.13254 59.6872 5.14606 60 3.91691 60C2.7669 60 1.82526 59.6925 1.09199 59.0775C0.363996 58.4626 0 57.6497 0 56.639H2.28684C2.28684 57.0775 2.44774 57.4358 2.76954 57.7139C3.0966 57.992 3.49753 58.131 3.9723 58.131C4.51566 58.131 4.94032 57.9866 5.24629 57.6979C5.55753 57.4037 5.71316 57.016 5.71316 56.5348C5.71316 55.369 5.08012 54.7861 3.81405 54.7861H2.60336V52.9733Z" fill="white"/>
<path d="M39.6043 7.48352H41V9.40385H39.6043V12H37.1598V9.40385H32.11L32 7.90385L37.1344 0H39.6043V7.48352ZM34.4361 7.48352H37.1598V3.24725L36.9991 3.51923L34.4361 7.48352Z" fill="white" fill-opacity="0.7"/>
<path d="M33.3005 30.0163L33.9827 24H40.6102V25.9593H35.9076L35.6152 28.5041C36.1729 28.206 36.7658 28.0569 37.3939 28.0569C38.5201 28.0569 39.4027 28.4065 40.0416 29.1057C40.6805 29.8049 41 30.7832 41 32.0407C41 32.8049 40.8376 33.4905 40.5127 34.0976C40.1932 34.6992 39.733 35.168 39.132 35.5041C38.531 35.8347 37.8217 36 37.0041 36C36.2893 36 35.6261 35.8564 35.0142 35.5691C34.4024 35.2764 33.9178 34.8672 33.5604 34.3415C33.2085 33.8157 33.0217 33.2168 33 32.5447H35.3228C35.3716 33.0379 35.5421 33.4228 35.8345 33.6992C36.1323 33.9702 36.5195 34.1057 36.9959 34.1057C37.5266 34.1057 37.9354 33.916 38.2223 33.5366C38.5093 33.1518 38.6528 32.6098 38.6528 31.9106C38.6528 31.2385 38.4876 30.7236 38.1574 30.3659C37.8271 30.0081 37.3587 29.8293 36.7523 29.8293C36.1946 29.8293 35.7425 29.9756 35.3959 30.2683L35.1685 30.4797L33.3005 30.0163Z" fill="white" fill-opacity="0.7"/>
<path d="M39.2453 48V49.9155H39.0219C37.9797 49.9316 37.1396 50.2052 36.5015 50.7364C35.8687 51.2676 35.4885 52.0054 35.3609 52.9497C35.9777 52.3166 36.7567 52 37.6979 52C38.7082 52 39.5111 52.3649 40.1067 53.0946C40.7022 53.8243 41 54.7847 41 55.9759C41 56.7378 40.8352 57.4272 40.5055 58.0443C40.1811 58.6613 39.7185 59.1415 39.1176 59.4849C38.5221 59.8283 37.8468 60 37.0917 60C35.8687 60 34.8797 59.5708 34.1246 58.7123C33.3749 57.8538 33 56.7082 33 55.2757V54.4386C33 53.167 33.2366 52.0456 33.7099 51.0744C34.1884 50.0979 34.8717 49.3441 35.7597 48.8129C36.653 48.2763 37.6873 48.0054 38.8624 48H39.2453ZM36.996 53.8672C36.6238 53.8672 36.2861 53.9665 35.9831 54.165C35.68 54.3581 35.4566 54.6157 35.3131 54.9376V55.6459C35.3131 56.4239 35.4646 57.0329 35.7677 57.4728C36.0708 57.9074 36.4962 58.1247 37.0439 58.1247C37.5384 58.1247 37.9372 57.9289 38.2403 57.5372C38.5487 57.1402 38.7029 56.6278 38.7029 56C38.7029 55.3615 38.5487 54.8464 38.2403 54.4547C37.9319 54.063 37.5171 53.8672 36.996 53.8672Z" fill="white" fill-opacity="0.7"/>
<path d="M73 1.33516L68.071 12H65.4008L70.3385 1.92857H64V0H73V1.33516Z" fill="white" fill-opacity="0.5"/>
<path d="M72.748 27.2647C72.748 27.8316 72.6043 28.3342 72.3171 28.7727C72.0298 29.2112 71.6341 29.5615 71.1301 29.8235C71.7046 30.0963 72.1599 30.4733 72.4959 30.9545C72.832 31.4305 73 31.992 73 32.639C73 33.6765 72.6423 34.4973 71.9268 35.1016C71.2114 35.7005 70.2385 36 69.0081 36C67.7778 36 66.8022 35.6979 66.0813 35.0936C65.3604 34.4893 65 33.6711 65 32.639C65 31.992 65.168 31.4278 65.5041 30.9465C65.8401 30.4652 66.2927 30.0909 66.8618 29.8235C66.3577 29.5615 65.9621 29.2112 65.6748 28.7727C65.393 28.3342 65.252 27.8316 65.252 27.2647C65.252 26.2701 65.5881 25.4786 66.2602 24.8904C66.9322 24.2968 67.8455 24 69 24C70.1491 24 71.0596 24.2941 71.7317 24.8824C72.4092 25.4652 72.748 26.2594 72.748 27.2647ZM70.6423 32.4706C70.6423 31.9626 70.4932 31.5561 70.1951 31.2513C69.897 30.9465 69.4959 30.7941 68.9919 30.7941C68.4932 30.7941 68.0949 30.9465 67.7967 31.2513C67.4986 31.5508 67.3496 31.9572 67.3496 32.4706C67.3496 32.9679 67.4959 33.369 67.7886 33.6738C68.0813 33.9786 68.4878 34.131 69.0081 34.131C69.5176 34.131 69.916 33.984 70.2033 33.6898C70.4959 33.3957 70.6423 32.9893 70.6423 32.4706ZM70.3984 27.377C70.3984 26.9225 70.2764 26.5588 70.0325 26.2861C69.7886 26.008 69.4444 25.869 69 25.869C68.561 25.869 68.2195 26.0027 67.9756 26.2701C67.7317 26.5374 67.6098 26.9064 67.6098 27.377C67.6098 27.8422 67.7317 28.2166 67.9756 28.5C68.2195 28.7834 68.5637 28.9251 69.0081 28.9251C69.4526 28.9251 69.794 28.7834 70.0325 28.5C70.2764 28.2166 70.3984 27.8422 70.3984 27.377Z" fill="white" fill-opacity="0.5"/>
<path d="M70.613 55.2C69.9993 55.796 69.2824 56.094 68.4623 56.094C67.4141 56.094 66.575 55.7396 65.945 55.0309C65.315 54.3168 65 53.3557 65 52.1477C65 51.3799 65.1684 50.6765 65.5051 50.0376C65.8473 49.3933 66.3225 48.894 66.9308 48.5396C67.539 48.1799 68.2234 48 68.9837 48C69.7658 48 70.461 48.1933 71.0692 48.5799C71.6775 48.9664 72.15 49.5221 72.4868 50.247C72.8235 50.9718 72.9946 51.8013 73 52.7356V53.5973C73 55.5517 72.5085 57.0872 71.5255 58.204C70.5424 59.3208 69.1494 59.9168 67.3462 59.9919L66.7678 60V58.0591L67.2892 58.051C69.3367 57.9597 70.4447 57.0094 70.613 55.2ZM69.0407 54.3141C69.4209 54.3141 69.7468 54.2174 70.0183 54.0242C70.2953 53.8309 70.5044 53.5973 70.6456 53.3235V52.3651C70.6456 51.5758 70.4936 50.9638 70.1894 50.5289C69.8853 50.094 69.4779 49.8765 68.9674 49.8765C68.4949 49.8765 68.1066 50.0913 67.8024 50.5208C67.4983 50.945 67.3462 51.4792 67.3462 52.1235C67.3462 52.7624 67.4929 53.2886 67.7862 53.702C68.0849 54.1101 68.5031 54.3141 69.0407 54.3141Z" fill="white" fill-opacity="0.5"/>
</svg>
