<svg width="286" height="190" viewBox="0 0 286 190" fill="none" xmlns="http://www.w3.org/2000/svg">
<path d="M266.006 124.603H243.316C237.757 124.603 233.098 120.832 233.098 116.056C233.098 113.667 234.3 111.531 236.103 110.022C237.907 108.514 240.461 107.508 243.316 107.508H246.622C249.477 107.508 252.032 106.503 253.835 104.994C255.638 103.486 256.84 101.35 256.84 98.9612C256.84 94.3106 252.332 90.4141 246.622 90.4141H177.318C175.508 90.4141 174.344 88.1961 174.344 86.3918C174.344 81.8669 169.986 78.2218 164.577 78.2218H138.786C138.134 78.2218 137.508 77.9635 137.047 77.5039C136.586 77.0442 136.327 76.4208 136.327 75.7708C136.327 75.1207 136.586 74.4973 137.047 74.0376C137.508 73.578 138.134 73.3198 138.786 73.3198H237.606C241.964 73.3198 246.021 71.8115 248.876 69.4232C251.731 67.0352 253.534 63.6412 253.534 59.9963C253.534 52.5803 246.322 46.6726 237.606 46.6726H186.567C178.559 46.6726 170.632 40.5137 162.623 40.5137H134.128C129.948 40.5137 126.559 37.1371 126.559 32.972C126.559 28.8069 129.948 25.4306 134.128 25.4306H197.936C200.941 25.4306 203.796 24.4248 205.75 22.7908C207.703 21.1568 208.905 18.8946 208.905 16.2548C208.905 11.2271 203.947 7.0791 197.936 7.0791H50.8254C47.8199 7.0791 44.9649 8.08484 43.0116 9.71884C41.0579 11.3528 39.856 13.6154 39.856 16.2548C39.856 21.2826 44.8146 25.4306 50.8254 25.4306H54.5818C59.5408 25.4306 63.7481 28.8243 63.7481 33.0977C63.7481 35.2346 62.6963 37.12 61.0435 38.5026C59.3905 39.8851 57.1365 40.7652 54.5818 40.7652H36.3999C33.244 40.7652 30.2388 41.8963 28.1351 43.656C26.0314 45.4157 24.679 47.804 24.679 50.5692C24.679 55.974 29.9382 60.2474 36.2496 60.2474H54.7322C60.7429 60.2474 65.7015 64.3955 65.7015 69.4232C65.7015 71.9372 64.4997 74.1995 62.546 75.8335C60.5926 77.4675 57.8877 78.4732 54.8825 78.4732H38.3533C35.6483 78.4732 33.244 79.3529 31.441 80.8612C29.6379 82.3698 28.586 84.3806 28.586 86.6432C28.586 91.168 32.9437 94.8132 38.3533 94.8132H51.7269C59.3905 94.8132 65.5515 99.9666 65.5515 106.377C65.5515 109.52 64.0488 112.536 61.4941 114.547C58.9395 116.684 55.4837 117.941 51.7269 117.941H33.094C29.3373 117.941 25.8811 119.198 23.4768 121.335C20.9225 123.346 19.4197 126.237 19.4197 129.379C19.4197 135.664 25.5805 140.817 33.094 140.817H90.6293C96.9836 140.817 103.225 144.336 109.579 144.336H120.058C124.064 144.336 127.311 147.572 127.311 151.564C127.311 155.556 124.064 158.791 120.058 158.791H94.5529C91.247 158.791 88.3918 159.922 86.2881 161.682C84.1844 163.442 82.832 165.956 82.832 168.595C82.832 174 88.0912 178.4 94.5529 178.4H250.83C254.135 178.4 256.99 177.268 259.094 175.508C261.198 173.749 262.55 171.235 262.55 168.595C262.55 163.19 257.291 158.791 250.83 158.791H246.171C241.363 158.791 237.606 155.523 237.606 151.627C237.606 149.616 238.508 147.856 240.161 146.599C241.663 145.342 243.917 144.462 246.322 144.462H266.006C269.312 144.462 272.167 143.331 274.271 141.571C276.375 139.812 277.727 137.298 277.727 134.658C277.727 129.002 272.468 124.603 266.006 124.603Z" fill="url(#paint0_linear_730_33)"/>
<path d="M272.861 108.392C269.034 110.284 263.955 107.851 263.955 107.851C263.955 107.851 265.084 102.353 268.912 100.464C272.739 98.5726 277.816 101.002 277.816 101.002C277.816 101.002 276.687 106.5 272.861 108.392V108.392Z" fill="url(#paint1_linear_730_33)"/>
<path d="M15.9563 109.15C21.5441 112.487 29.561 109.402 29.561 109.402C29.561 109.402 28.5126 100.907 22.9213 97.5735C17.3335 94.2362 9.32013 97.3174 9.32013 97.3174C9.32013 97.3174 10.3685 105.812 15.9563 109.15V109.15Z" fill="url(#paint2_linear_730_33)"/>
<path d="M270.32 52.3976C268.885 52.3976 267.721 53.557 267.721 54.9873C267.721 56.4175 268.885 57.577 270.32 57.577C271.755 57.577 272.919 56.4175 272.919 54.9873C272.919 53.557 271.755 52.3976 270.32 52.3976Z" fill="#F8464C"/>
<path d="M193.225 155.802C190.526 155.802 188.338 157.983 188.338 160.673C188.338 163.362 190.526 165.543 193.225 165.543C195.924 165.543 198.113 163.362 198.113 160.673C198.113 157.983 195.924 155.802 193.225 155.802Z" fill="#FDCA40"/>
<path d="M40.8798 113.732C38.737 113.732 37 112.001 37 109.866C37 107.731 38.737 106 40.8798 106C43.0225 106 44.7595 107.731 44.7595 109.866C44.7595 112.001 43.0225 113.732 40.8798 113.732Z" fill="#F8464C"/>
<path d="M259.07 84.7476C257.635 84.7476 256.472 83.5887 256.472 82.1592C256.472 80.7296 257.635 79.5707 259.07 79.5707C260.504 79.5707 261.667 80.7296 261.667 82.1592C261.667 83.5887 260.504 84.7476 259.07 84.7476Z" fill="#01BAEF"/>
<path d="M32.6145 162.827C29.9503 162.827 27.7906 160.675 27.7906 158.02C27.7906 155.365 29.9503 153.213 32.6145 153.213C35.2786 153.213 37.4384 155.365 37.4384 158.02C37.4384 160.675 35.2786 162.827 32.6145 162.827Z" fill="#E1E4E5"/>
<path d="M274.19 163.699C272.162 163.699 270.518 162.061 270.518 160.04C270.518 158.019 272.162 156.381 274.19 156.381C276.218 156.381 277.862 158.019 277.862 160.04C277.862 162.061 276.218 163.699 274.19 163.699Z" fill="#E1E4E5"/>
<path d="M233.852 32.3687C231.303 32.3687 229.237 30.3097 229.237 27.7698C229.237 25.2299 231.303 23.1708 233.852 23.1708C236.401 23.1708 238.467 25.2299 238.467 27.7698C238.467 30.3097 236.401 32.3687 233.852 32.3687Z" fill="#E1E4E5"/>
<path d="M52.5792 70.3774C53.1032 72.326 51.9427 74.3289 49.9873 74.851C48.0318 75.3732 46.0219 74.2168 45.4979 72.2682C44.9739 70.3195 46.1344 68.3166 48.0899 67.7945C50.0453 67.2723 52.0553 68.4287 52.5792 70.3774Z" fill="#E1E4E5"/>
<path d="M90.6805 30.6439C87.9873 30.6439 85.8042 28.4683 85.8042 25.7846C85.8042 23.1009 87.9873 20.9254 90.6805 20.9254C93.3736 20.9254 95.5568 23.1009 95.5568 25.7846C95.5568 28.4683 93.3736 30.6439 90.6805 30.6439Z" fill="#E1E4E5"/>
<path d="M252.563 119.052C250.491 119.052 248.812 117.713 248.812 116.062C248.812 114.41 250.491 113.072 252.563 113.072C254.635 113.072 256.314 114.41 256.314 116.062C256.314 117.713 254.635 119.052 252.563 119.052Z" fill="#E1E4E5"/>
<path d="M40.5783 27.6722H40.6317C40.9482 32.1398 44.2823 32.2085 44.2823 32.2085C44.2823 32.2085 40.6056 32.2801 40.6056 37.442C40.6056 32.2801 36.929 32.2085 36.929 32.2085C36.929 32.2085 40.2618 32.1398 40.5783 27.6722V27.6722ZM58.6913 173.712H58.7428C59.0466 178.167 62.2476 178.235 62.2476 178.235C62.2476 178.235 58.7177 178.306 58.7177 183.453C58.7177 178.306 55.1878 178.235 55.1878 178.235C55.1878 178.235 58.3875 178.167 58.6913 173.712Z" fill="#E1E4E5"/>
<path fill-rule="evenodd" clip-rule="evenodd" d="M155.59 101.021C145.292 101.021 136.945 109.34 136.945 119.602V128.892C136.945 139.153 145.292 147.472 155.59 147.472H163.676V161.398C163.676 162.276 163.926 163.137 164.397 163.879C164.868 164.622 165.54 165.216 166.336 165.594C167.133 165.971 168.02 166.115 168.895 166.01C169.77 165.905 170.597 165.554 171.281 165L190.309 149.558C191.972 148.209 194.052 147.472 196.196 147.472H220.849C231.146 147.472 239.494 139.153 239.494 128.892V119.602C239.494 109.34 231.146 101.021 220.849 101.021H155.59ZM76.049 13.2626C65.7514 13.2626 57.4037 21.5815 57.4037 31.8427V41.1328C57.4037 51.3944 65.7514 59.7129 76.049 59.7129H100.701C102.846 59.7129 104.925 60.4498 106.588 61.7994L125.617 77.2407C126.3 77.7956 127.127 78.1459 128.003 78.2511C128.878 78.3562 129.765 78.2118 130.561 77.8347C131.357 77.4576 132.03 76.8633 132.501 76.1206C132.972 75.3779 133.222 74.5174 133.221 73.6389V59.7129H141.308C151.605 59.7129 159.953 51.3944 159.953 41.1328V31.8427C159.953 21.5815 151.605 13.2626 141.308 13.2626H76.049Z" fill="#724CF9"/>
<path d="M93.6062 128.614C103.904 128.614 112.252 120.295 112.252 110.033C112.252 99.7719 103.904 91.4533 93.6062 91.4533C83.3087 91.4533 74.9609 99.7719 74.9609 110.033C74.9609 120.295 83.3087 128.614 93.6062 128.614Z" fill="#724CF9"/>
<path fill-rule="evenodd" clip-rule="evenodd" d="M170.664 81.7763V78.0045C170.694 67.2733 179.416 58.5817 190.185 58.551H216.4C227.169 58.5817 235.891 67.2733 235.922 78.0045V81.7763C235.922 84.3416 233.835 86.4212 231.261 86.4212H175.325C172.75 86.4212 170.664 84.3416 170.664 81.7763V81.7763Z" fill="#724CF9"/>
<path d="M203.291 47.1839C213.589 47.1839 221.936 38.8653 221.936 28.6038C221.936 18.3423 213.589 10.0237 203.291 10.0237C192.994 10.0237 184.646 18.3423 184.646 28.6038C184.646 38.8653 192.994 47.1839 203.291 47.1839Z" fill="#724CF9"/>
<path fill-rule="evenodd" clip-rule="evenodd" d="M61 163.225V159.453C61.0305 148.722 69.7529 140.031 80.5214 140H106.737C117.506 140.031 126.228 148.722 126.259 159.453V163.225C126.259 165.791 124.171 167.87 121.597 167.87H65.6612C63.0869 167.87 61 165.791 61 163.225Z" fill="#724CF9"/>
<defs>
<linearGradient id="paint0_linear_730_33" x1="154.081" y1="274.452" x2="150.577" y2="-179.323" gradientUnits="userSpaceOnUse">
<stop stop-color="white"/>
<stop offset="1" stop-color="#EEEEEE"/>
</linearGradient>
<linearGradient id="paint1_linear_730_33" x1="258.166" y1="114.292" x2="289.644" y2="89.306" gradientUnits="userSpaceOnUse">
<stop stop-color="white"/>
<stop offset="1" stop-color="#EEEEEE"/>
</linearGradient>
<linearGradient id="paint2_linear_730_33" x1="37.5798" y1="119.892" x2="-7.23631" y2="78.106" gradientUnits="userSpaceOnUse">
<stop stop-color="white"/>
<stop offset="1" stop-color="#EEEEEE"/>
</linearGradient>
</defs>
</svg>
