<svg width="280" height="206" viewBox="0 0 280 206" fill="none" xmlns="http://www.w3.org/2000/svg">
<path d="M70.4454 153.88C74.6504 177.737 131.947 214.939 184.692 184.011C209.224 169.626 203.796 156.456 219.709 133.748C229.194 120.213 244.527 108.085 245.679 91.3433C246.676 76.892 240.762 62.9798 231.391 55.2126C210.314 37.7445 174.354 30.7783 150.036 71.6475C125.717 112.517 59.6082 92.3475 70.4454 153.88Z" fill="url(#paint0_linear_678_634)"/>
<path d="M122.983 123.277H227.026V205.147H122.983V123.277Z" fill="#6A2E33"/>
<path fill-rule="evenodd" clip-rule="evenodd" d="M122.983 123.277H227.879V206H122.983V123.277ZM123.836 124.128V205.149H227.025V124.128H123.836Z" fill="#6A2E33"/>
<path d="M171.593 140.333H243.229V206H171.593V140.333Z" fill="#6A2E33"/>
<path fill-rule="evenodd" clip-rule="evenodd" d="M171.593 139.481H244.082V206H171.593V139.481ZM172.444 140.337V205.144H243.231V140.337H172.444Z" fill="#6A2E33"/>
<path d="M198.883 156.537H261.991V206H198.883V156.537Z" fill="#6A2E33"/>
<path fill-rule="evenodd" clip-rule="evenodd" d="M198.883 155.684H262.844V206H198.883V155.684ZM199.738 156.541V205.143H261.989V156.541H199.738Z" fill="#6A2E33"/>
<path d="M215.349 172.74H278.195V206H215.349V172.74ZM87.1646 181.146H214.687V206H87.1646V181.146Z" fill="#6A2E33"/>
<path fill-rule="evenodd" clip-rule="evenodd" d="M215.067 171.887H279.048V206H86.3116V180.292H215.067V171.887ZM215.922 172.747V205.141H278.192V172.747H215.922ZM87.167 181.151V205.141H214.402V181.151H87.167Z" fill="#6A2E33"/>
<path d="M7 188.944H97.3983V206H7V188.944Z" fill="#FF686D"/>
<path fill-rule="evenodd" clip-rule="evenodd" d="M7 188.944H98.2511V206H7V188.944ZM7.85261 189.791V205.153H97.3985V189.791H7.85261Z" fill="#6A2E33"/>
<path d="M31.7316 172.74H122.983V189.797H31.7316V172.74Z" fill="#FF686D"/>
<path fill-rule="evenodd" clip-rule="evenodd" d="M31.7316 171.887H122.983V189.797H31.7316V171.887ZM32.5842 172.752V188.932H122.13V172.752H32.5842Z" fill="#6A2E33"/>
<path d="M69.2554 156.537H159.654V172.74H69.2554V156.537Z" fill="#FF686D"/>
<path fill-rule="evenodd" clip-rule="evenodd" d="M69.2554 155.684H160.506V172.74H69.2554V155.684ZM70.108 156.531V171.893H159.654V156.531H70.108Z" fill="#6A2E33"/>
<path d="M94.8398 140.333H185.238V156.537H94.8398V140.333Z" fill="#FF686D"/>
<path fill-rule="evenodd" clip-rule="evenodd" d="M93.9871 139.481H185.238V156.537H93.9871V139.481ZM94.8397 140.327V155.69H184.386V140.327H94.8397Z" fill="#6A2E33"/>
<path d="M119.571 123.277H209.97V140.333H119.571V123.277Z" fill="#FF686D"/>
<path fill-rule="evenodd" clip-rule="evenodd" d="M118.719 123.277H210.823V140.333H118.719V123.277ZM119.579 124.1V139.51H209.962V124.1H119.579Z" fill="#6A2E33"/>
<path fill-rule="evenodd" clip-rule="evenodd" d="M133.216 119.013C133.216 116.658 135.172 114.749 137.585 114.749H189.398C191.81 114.749 193.766 116.658 193.766 119.013C193.766 121.368 191.81 123.277 189.398 123.277H137.585C135.172 123.277 133.216 121.368 133.216 119.013Z" fill="#6A2E33"/>
<path fill-rule="evenodd" clip-rule="evenodd" d="M130.658 24.1004C130.658 18.5881 135.134 14.1169 140.651 14.1169H186.332C191.849 14.1169 196.325 18.5883 196.325 24.1004V31.1732H205.129C210.627 31.1732 215.087 35.7187 215.087 41.3218V52.9199C215.087 64.1928 206.673 73.4607 195.897 74.5579C193.622 87.2258 182.535 96.8398 169.202 96.8398H168.182V106.221H180.889C183.291 106.221 185.238 108.13 185.238 110.485C185.238 112.84 183.291 114.749 180.889 114.749H146.094C143.692 114.749 141.745 112.84 141.745 110.485C141.745 108.13 143.692 106.221 146.094 106.221H159.654V96.8398H157.781C144.448 96.8398 133.36 87.2257 131.085 74.5579C120.309 73.4606 111.896 64.1928 111.896 52.9199V41.3218C111.896 35.7187 116.356 31.1732 121.853 31.1732H130.658V24.1004ZM130.658 39.8719H121.853C121.069 39.8719 120.431 40.5229 120.431 41.3218V52.9199C120.431 59.2283 124.821 64.4898 130.658 65.7041V39.8719ZM196.325 65.7041C202.161 64.4899 206.552 59.2284 206.552 52.9199V41.3218C206.552 40.5229 205.913 39.8719 205.129 39.8719H196.325V65.7041Z" fill="#FFC83C"/>
<path fill-rule="evenodd" clip-rule="evenodd" d="M163.488 61.3592L170.652 65.0668C172.046 65.7879 173.678 64.6233 173.41 63.0933L172.042 55.2383L177.839 49.6802C178.968 48.5966 178.346 46.7074 176.785 46.4859L168.777 45.3391L165.195 38.1878C164.498 36.7945 162.484 36.7945 161.784 38.1878L158.205 45.3391L150.198 46.4859C148.636 46.7074 148.015 48.5966 149.144 49.6802L154.941 55.2383L153.573 63.0933C153.305 64.6233 154.937 65.7879 156.33 65.0668L163.495 61.3592H163.488Z" fill="white"/>
<path d="M217.567 18.5023H217.658C218.192 25.5448 223.819 25.6531 223.819 25.6531C223.819 25.6531 217.614 25.766 217.614 33.9027C217.614 25.766 211.409 25.6531 211.409 25.6531C211.409 25.6531 217.033 25.5448 217.567 18.5023ZM108.531 76.8342H108.615C109.113 83.401 114.361 83.5022 114.361 83.5022C114.361 83.5022 108.574 83.6071 108.574 91.1952C108.574 83.6071 102.788 83.5022 102.788 83.5022C102.788 83.5022 108.033 83.401 108.531 76.8342ZM198.432 92.6459H198.487C198.812 96.9241 202.23 96.9898 202.23 96.9898C202.23 96.9898 198.46 97.0585 198.46 102.002C198.46 97.0585 194.691 96.9898 194.691 96.9898C194.691 96.9898 198.108 96.9241 198.432 92.6459ZM95.5043 29.3153H95.5591C95.8836 33.5935 99.3019 33.6592 99.3019 33.6592C99.3019 33.6592 95.5325 33.7279 95.5325 38.6709C95.5325 33.7279 91.7626 33.6592 91.7626 33.6592C91.7626 33.6592 95.1797 33.5935 95.5043 29.3153ZM50.4703 97.1495H50.5251C50.8493 101.428 54.268 101.493 54.268 101.493C54.268 101.493 50.4981 101.562 50.4981 106.505C50.4981 101.562 46.7287 101.493 46.7287 101.493C46.7287 101.493 50.1458 101.428 50.4703 97.1495ZM20.1226 113.069H20.1774C20.5015 117.347 23.9203 117.413 23.9203 117.413C23.9203 117.413 20.1504 117.481 20.1504 122.424C20.1504 117.481 16.381 117.413 16.381 117.413C16.381 117.413 19.7981 117.347 20.1226 113.069ZM121.728 9H121.783C122.107 13.2778 125.526 13.3439 125.526 13.3439C125.526 13.3439 121.756 13.4122 121.756 18.3556C121.756 13.4122 117.986 13.3439 117.986 13.3439C117.986 13.3439 121.404 13.2778 121.728 9ZM80.4872 65.4583H80.542C80.8665 69.7365 84.2853 69.8022 84.2853 69.8022C84.2853 69.8022 80.5154 69.8704 80.5154 74.8139C80.5154 69.8704 76.746 69.8022 76.746 69.8022C76.746 69.8022 80.1631 69.7365 80.4872 65.4583ZM57.3053 52.8184H57.3601C57.6842 57.0965 61.103 57.1623 61.103 57.1623C61.103 57.1623 57.3331 57.2305 57.3331 62.174C57.3331 57.2305 53.5637 57.1623 53.5637 57.1623C53.5637 57.1623 56.9808 57.0965 57.3053 52.8184ZM135.889 98.4535H135.93C136.175 101.683 138.756 101.732 138.756 101.732C138.756 101.732 135.91 101.784 135.91 105.515C135.91 101.784 133.065 101.732 133.065 101.732C133.065 101.732 135.644 101.683 135.889 98.4535ZM217.511 69.9463H217.552C217.797 73.1758 220.377 73.2255 220.377 73.2255C220.377 73.2255 217.532 73.2769 217.532 77.0082C217.532 73.2769 214.687 73.2255 214.687 73.2255C214.687 73.2255 217.266 73.1758 217.511 69.9463ZM251.449 71.3569H251.491C251.736 74.586 254.316 74.6357 254.316 74.6357C254.316 74.6357 251.471 74.6875 251.471 78.4188C251.471 74.6875 248.625 74.6357 248.625 74.6357C248.625 74.6357 251.205 74.586 251.449 71.3569ZM248.732 107.445H248.773C249.018 110.674 251.598 110.724 251.598 110.724C251.598 110.724 248.753 110.775 248.753 114.507C248.753 110.775 245.907 110.724 245.907 110.724C245.907 110.724 248.487 110.674 248.732 107.445ZM199.154 9H199.195C199.44 12.2291 202.021 12.2788 202.021 12.2788C202.021 12.2788 199.175 12.3306 199.175 16.0619C199.175 12.3306 196.33 12.2788 196.33 12.2788C196.33 12.2788 198.909 12.2291 199.154 9ZM230.375 46.4984H230.416C230.661 49.7275 233.241 49.7772 233.241 49.7772C233.241 49.7772 230.396 49.829 230.396 53.5603C230.396 49.829 227.551 49.7772 227.551 49.7772C227.551 49.7772 230.13 49.7275 230.375 46.4984Z" fill="#E1E4E5"/>
<path d="M13.872 14.432C13.872 15.328 13.656 16.168 13.224 16.952C12.808 17.736 12.144 18.368 11.232 18.848C10.336 19.328 9.2 19.568 7.824 19.568H5.016V26H1.656V9.248H7.824C9.12 9.248 10.224 9.472 11.136 9.92C12.048 10.368 12.728 10.984 13.176 11.768C13.64 12.552 13.872 13.44 13.872 14.432ZM7.68 16.856C8.608 16.856 9.296 16.648 9.744 16.232C10.192 15.8 10.416 15.2 10.416 14.432C10.416 12.8 9.504 11.984 7.68 11.984H5.016V16.856H7.68ZM28.6176 19.064C28.6176 19.544 28.5856 19.976 28.5216 20.36H18.8016C18.8816 21.32 19.2176 22.072 19.8096 22.616C20.4016 23.16 21.1296 23.432 21.9936 23.432C23.2416 23.432 24.1296 22.896 24.6576 21.824H28.2816C27.8976 23.104 27.1616 24.16 26.0736 24.992C24.9856 25.808 23.6496 26.216 22.0656 26.216C20.7856 26.216 19.6336 25.936 18.6096 25.376C17.6016 24.8 16.8096 23.992 16.2336 22.952C15.6736 21.912 15.3936 20.712 15.3936 19.352C15.3936 17.976 15.6736 16.768 16.2336 15.728C16.7936 14.688 17.5776 13.888 18.5856 13.328C19.5936 12.768 20.7536 12.488 22.0656 12.488C23.3296 12.488 24.4576 12.76 25.4496 13.304C26.4576 13.848 27.2336 14.624 27.7776 15.632C28.3376 16.624 28.6176 17.768 28.6176 19.064ZM25.1376 18.104C25.1216 17.24 24.8096 16.552 24.2016 16.04C23.5936 15.512 22.8496 15.248 21.9696 15.248C21.1376 15.248 20.4336 15.504 19.8576 16.016C19.2976 16.512 18.9536 17.208 18.8256 18.104H25.1376ZM34.4301 14.768C34.8621 14.064 35.4221 13.512 36.1101 13.112C36.8141 12.712 37.6141 12.512 38.5101 12.512V16.04H37.6221C36.5661 16.04 35.7661 16.288 35.2221 16.784C34.6941 17.28 34.4301 18.144 34.4301 19.376V26H31.0701V12.704H34.4301V14.768ZM45.8612 26.216C44.7732 26.216 43.7972 26.024 42.9332 25.64C42.0692 25.24 41.3812 24.704 40.8692 24.032C40.3732 23.36 40.1012 22.616 40.0532 21.8H43.4372C43.5012 22.312 43.7492 22.736 44.1812 23.072C44.6292 23.408 45.1812 23.576 45.8372 23.576C46.4772 23.576 46.9732 23.448 47.3252 23.192C47.6932 22.936 47.8772 22.608 47.8772 22.208C47.8772 21.776 47.6532 21.456 47.2052 21.248C46.7732 21.024 46.0772 20.784 45.1172 20.528C44.1252 20.288 43.3092 20.04 42.6692 19.784C42.0452 19.528 41.5012 19.136 41.0372 18.608C40.5892 18.08 40.3652 17.368 40.3652 16.472C40.3652 15.736 40.5732 15.064 40.9892 14.456C41.4212 13.848 42.0292 13.368 42.8132 13.016C43.6132 12.664 44.5492 12.488 45.6212 12.488C47.2052 12.488 48.4692 12.888 49.4132 13.688C50.3572 14.472 50.8772 15.536 50.9732 16.88H47.7572C47.7092 16.352 47.4852 15.936 47.0852 15.632C46.7012 15.312 46.1812 15.152 45.5252 15.152C44.9172 15.152 44.4452 15.264 44.1092 15.488C43.7892 15.712 43.6292 16.024 43.6292 16.424C43.6292 16.872 43.8532 17.216 44.3012 17.456C44.7492 17.68 45.4452 17.912 46.3892 18.152C47.3492 18.392 48.1412 18.64 48.7652 18.896C49.3892 19.152 49.9252 19.552 50.3732 20.096C50.8372 20.624 51.0772 21.328 51.0932 22.208C51.0932 22.976 50.8772 23.664 50.4452 24.272C50.0292 24.88 49.4212 25.36 48.6212 25.712C47.8372 26.048 46.9172 26.216 45.8612 26.216ZM59.7553 26.216C58.4753 26.216 57.3233 25.936 56.2993 25.376C55.2753 24.8 54.4673 23.992 53.8753 22.952C53.2993 21.912 53.0113 20.712 53.0113 19.352C53.0113 17.992 53.3073 16.792 53.8993 15.752C54.5073 14.712 55.3313 13.912 56.3713 13.352C57.4113 12.776 58.5713 12.488 59.8513 12.488C61.1313 12.488 62.2913 12.776 63.3313 13.352C64.3713 13.912 65.1873 14.712 65.7793 15.752C66.3873 16.792 66.6913 17.992 66.6913 19.352C66.6913 20.712 66.3793 21.912 65.7553 22.952C65.1473 23.992 64.3153 24.8 63.2593 25.376C62.2193 25.936 61.0513 26.216 59.7553 26.216ZM59.7553 23.288C60.3633 23.288 60.9313 23.144 61.4593 22.856C62.0033 22.552 62.4353 22.104 62.7553 21.512C63.0753 20.92 63.2353 20.2 63.2353 19.352C63.2353 18.088 62.8993 17.12 62.2273 16.448C61.5713 15.76 60.7633 15.416 59.8033 15.416C58.8433 15.416 58.0353 15.76 57.3793 16.448C56.7393 17.12 56.4193 18.088 56.4193 19.352C56.4193 20.616 56.7313 21.592 57.3553 22.28C57.9953 22.952 58.7953 23.288 59.7553 23.288ZM76.524 12.512C78.108 12.512 79.388 13.016 80.364 14.024C81.34 15.016 81.828 16.408 81.828 18.2V26H78.468V18.656C78.468 17.6 78.204 16.792 77.676 16.232C77.148 15.656 76.428 15.368 75.516 15.368C74.588 15.368 73.852 15.656 73.308 16.232C72.78 16.792 72.516 17.6 72.516 18.656V26H69.156V12.704H72.516V14.36C72.964 13.784 73.532 13.336 74.22 13.016C74.924 12.68 75.692 12.512 76.524 12.512ZM84.1592 19.304C84.1592 17.96 84.4232 16.768 84.9512 15.728C85.4952 14.688 86.2232 13.888 87.1352 13.328C88.0632 12.768 89.0952 12.488 90.2312 12.488C91.2232 12.488 92.0872 12.688 92.8232 13.088C93.5752 13.488 94.1752 13.992 94.6232 14.6V12.704H98.0072V26H94.6232V24.056C94.1912 24.68 93.5912 25.2 92.8232 25.616C92.0712 26.016 91.1992 26.216 90.2072 26.216C89.0872 26.216 88.0632 25.928 87.1352 25.352C86.2232 24.776 85.4952 23.968 84.9512 22.928C84.4232 21.872 84.1592 20.664 84.1592 19.304ZM94.6232 19.352C94.6232 18.536 94.4632 17.84 94.1432 17.264C93.8232 16.672 93.3912 16.224 92.8472 15.92C92.3032 15.6 91.7192 15.44 91.0952 15.44C90.4712 15.44 89.8952 15.592 89.3672 15.896C88.8392 16.2 88.4072 16.648 88.0712 17.24C87.7512 17.816 87.5912 18.504 87.5912 19.304C87.5912 20.104 87.7512 20.808 88.0712 21.416C88.4072 22.008 88.8392 22.464 89.3672 22.784C89.9112 23.104 90.4872 23.264 91.0952 23.264C91.7192 23.264 92.3032 23.112 92.8472 22.808C93.3912 22.488 93.8232 22.04 94.1432 21.464C94.4632 20.872 94.6232 20.168 94.6232 19.352ZM104.649 8.24V26H101.289V8.24H104.649Z" fill="#FFFBFA"/>
<defs>
<linearGradient id="paint0_linear_678_634" x1="158.477" y1="282.309" x2="154.295" y2="-126.453" gradientUnits="userSpaceOnUse">
<stop stop-color="white"/>
<stop offset="1" stop-color="#EEEEEE"/>
</linearGradient>
</defs>
</svg>
