<svg width="24" height="26" viewBox="0 0 24 26" fill="none" xmlns="http://www.w3.org/2000/svg">
<path d="M12.0917 13.4847C10.3784 13.4847 8.74697 12.6703 7.49755 11.1918C6.35061 9.83454 5.69256 8.08741 5.69256 6.39912C5.69256 4.70197 6.36675 3.07433 7.56681 1.87426C8.76688 0.674191 10.3945 0 12.0917 0C13.7888 0 15.4165 0.674191 16.6165 1.87426C17.8166 3.07433 18.4908 4.70197 18.4908 6.39912C18.4908 8.08741 17.8327 9.83454 16.6858 11.1918C15.4364 12.6703 13.805 13.4847 12.0917 13.4847ZM12.0917 2.45177C11.0451 2.45294 10.0418 2.86919 9.30177 3.60921C8.56175 4.34923 8.14549 5.35257 8.14432 6.39912C8.14432 7.50094 8.60232 8.70084 9.37021 9.60897C10.1459 10.5274 11.1124 11.031 12.0917 11.031C13.0709 11.031 14.0374 10.5254 14.8131 9.60897C15.581 8.70084 16.039 7.50045 16.039 6.39912C16.0379 5.35257 15.6216 4.34923 14.8816 3.60921C14.1416 2.86919 13.1382 2.45294 12.0917 2.45177Z" fill="#CCD5D8"/>
<path d="M22.7323 25.1061C22.4072 25.1061 22.0954 24.977 21.8655 24.7471C21.6356 24.5172 21.5065 24.2054 21.5065 23.8802V21.069C21.5065 18.6594 20.0079 17.1624 17.5959 17.1624H6.9307C4.51865 17.1624 3.02013 18.6594 3.02013 21.069V23.8802C3.02013 24.2054 2.89097 24.5172 2.66107 24.7471C2.43118 24.977 2.11937 25.1061 1.79424 25.1061C1.46912 25.1061 1.15731 24.977 0.927413 24.7471C0.697515 24.5172 0.568359 24.2054 0.568359 23.8802V21.069C0.568359 19.2189 1.17934 17.6307 2.33363 16.4759C3.48793 15.3211 5.07961 14.7106 6.92874 14.7106H17.5939C19.4445 14.7106 21.0333 15.3211 22.189 16.4759C23.3448 17.6307 23.9543 19.2189 23.9543 21.069V23.8802C23.9543 24.2047 23.8257 24.5159 23.5966 24.7457C23.3676 24.9755 23.0568 25.1051 22.7323 25.1061Z" fill="#CCD5D8"/>
</svg>
