<svg width="303" height="350" viewBox="0 0 303 350" fill="none" xmlns="http://www.w3.org/2000/svg">
<path d="M146.787 216.659L5.88231 133.442C1.39431 130.895 -2.44769 126.794 1.92131 124.102L143.336 42.6938C145.461 41.3776 148.682 40.5199 150.833 41.7682L298.733 127.532C303.221 130.131 304.02 137.408 299.532 140.006L165.359 216.523C162.544 218.16 159.349 219.034 156.091 219.058C152.834 219.081 149.626 218.255 146.787 216.659Z" fill="#FFDF58"/>
<path d="M135.099 96.912C140.199 93.8806 156.511 83.971 157.726 82.8756L157.437 81.8056L144.687 74.8341L124.874 86.1193C127.262 88.1063 132.541 95.1713 135.099 96.912Z" fill="url(#paint0_linear_798_36)"/>
<path d="M90.6613 183.542C103.675 175.756 132.626 158.11 135.711 155.3L134.963 152.548L91.6133 124.458L44.2513 155.571C50.2863 160.675 84.0908 179.05 90.6613 183.542Z" fill="url(#paint1_linear_798_36)"/>
<path d="M183.413 180.265C196.427 172.478 238.383 147.046 241.511 144.244L240.763 141.492L208.114 123.601L157.25 152.574C163.336 157.66 176.843 175.798 183.413 180.265Z" fill="url(#paint2_linear_798_36)"/>
<path d="M193.537 121.461L215.934 133.23L216.589 138.758L192.908 125.401" fill="#E27623"/>
<path d="M192.627 112.443L183.405 145.662L185.105 146.638C185.542 146.408 185.962 146.147 186.363 145.857C186.856 145.475 198.331 110.94 198.331 110.94" fill="#E27623"/>
<path d="M213.903 105.964L220.193 125.579L219.657 164.819L218.246 165.753L216.3 164.53L214.846 125.562L209.16 105.964" fill="#E27623"/>
<path d="M189.185 103.612C189.185 103.612 188.488 107.959 189.984 110.405C191.48 112.851 195.449 106.813 195.449 106.813" fill="#FFB469"/>
<path d="M210.052 79.8951L209.16 95.7827L213.333 97.948L214.107 80.914" fill="#CA6B00"/>
<path d="M236.241 91.5963L239.037 113.08L241.868 144.677L240.049 145.747L238.247 144.617L234.209 113.564L231.498 91.5963" fill="#E27623"/>
<path d="M233.41 94.2712C234.583 94.6278 237.108 92.7852 237.864 91.5963C241.995 85.1088 240.805 76.3116 233.368 72.1763C230.07 70.3591 226.67 68.5419 223.397 66.6738C220.482 64.9755 217.396 63.5914 214.574 61.7827C214.207 61.5276 213.814 61.3113 213.401 61.1373C212.63 60.9273 211.813 60.9525 211.055 61.2097C210.298 61.4669 209.635 61.9444 209.151 62.5809" fill="#FFB469"/>
<path d="M233.708 93.9994C235.697 93.9315 236.844 91.2991 237.431 89.7537C239.046 85.5079 239.36 77.3901 234.498 74.9615C234.404 74.9208 234.323 74.8562 234.262 74.7743C234.201 74.6924 234.162 74.5959 234.15 74.4945L224.8 69.1108L217.583 64.95C216.325 64.2197 215.127 63.3961 213.869 62.6658C212.611 61.9355 211.361 61.0864 209.976 61.9185C208.454 62.8356 208.276 64.5594 208.004 66.1643C207.378 69.8782 207.575 73.6841 208.582 77.3136C209.338 79.7252 211.251 81.3811 213.376 82.6123L220.082 86.4929L232.509 93.6513C232.708 93.7783 232.922 93.8782 233.147 93.9485C233.33 93.9939 233.519 94.0111 233.708 93.9994Z" fill="#FCBD4C"/>
<path d="M235.068 111.195L235.45 111.416C236.5 111.935 237.443 112.646 238.23 113.513C240.117 115.874 238.289 118.608 236.428 120.23C231.37 124.713 223.678 128.39 216.878 126.734C210.928 125.291 205.352 122.488 200.116 119.364C195.866 116.816 190.468 113.683 189.346 108.325C189.156 107.15 189.241 105.947 189.595 104.811C189.949 103.675 190.562 102.637 191.386 101.778C202.147 89.3206 217.277 101.013 227.936 107.11L235.068 111.195Z" fill="#FFB469"/>
<path d="M238.799 111.687C238.884 111.772 239.36 115.211 239.02 116.239C238.316 117.912 237.264 119.417 235.935 120.654C234.677 121.665 235.433 114.634 235.433 114.634" fill="#FFB469"/>
<path d="M235.068 108.206L235.45 108.426C236.5 108.946 237.443 109.657 238.23 110.524C240.117 112.885 238.289 115.619 236.428 117.241C231.37 121.724 223.678 125.401 216.878 123.745C210.928 122.302 205.352 119.499 200.116 116.375C195.866 113.827 190.468 110.694 189.346 105.336C189.144 104.151 189.222 102.936 189.575 101.787C189.927 100.638 190.545 99.5878 191.378 98.7207C202.139 86.2637 217.269 97.9565 227.928 104.053L235.068 108.206Z" fill="#FCBD4C"/>
<path d="M213.019 160.828L208.93 158.951C208.93 158.951 208.531 155.41 209.908 154.705C211.285 154 213.019 160.828 213.019 160.828Z" fill="#196132"/>
<path d="M202.963 150.96C202.963 150.96 202.598 159.681 202.02 160.581C201.442 161.481 193.783 165.719 193.18 167.264C192.576 168.81 201.824 166.941 204.859 166.109C207.893 165.277 210.69 163.689 210.809 162.543C210.928 161.396 209.525 155.58 210.656 155.682C211.786 155.784 213.061 160.777 213.061 160.777L215.705 159.129L209.236 138.919" fill="#196132"/>
<path d="M194.455 152.565L190.366 150.689C190.366 150.689 189.967 147.148 191.344 146.443C192.721 145.738 194.455 152.565 194.455 152.565Z" fill="#196132"/>
<path d="M184.399 142.698C184.399 142.698 184.034 151.419 183.456 152.319C182.878 153.219 175.219 157.456 174.616 159.002C174.012 160.547 183.26 158.671 186.286 157.822C189.312 156.972 192.117 155.401 192.236 154.255C192.355 153.109 190.953 147.292 192.083 147.394C193.214 147.496 194.489 152.489 194.489 152.489L197.132 150.842L190.715 130.649" fill="#196132"/>
<path d="M212.985 76.6937C214.438 78.0269 218.178 96.912 216.172 106.074C214.166 115.237 192.109 119.525 192.109 119.525L197.829 142.613C197.829 142.613 189.491 149.211 181.331 146.766C178.39 145.916 170.969 112.723 173.443 108.019C175.916 103.315 205.199 86.5948 205.199 86.5948" fill="#FFF0D7"/>
<path d="M230.614 83.2237C232.067 84.5569 236.385 95.1118 231.175 108.342C227.775 117.062 208.114 123.626 208.114 123.626L215.45 149.169C215.45 149.169 206.771 156.684 198.951 153.321C191.131 149.958 188.258 118.43 190.732 113.725C193.205 109.021 218.535 92.1058 218.535 92.1058" fill="#FFF0D7"/>
<path d="M223.006 57.8766C223.006 57.8766 237.788 63.6253 234.167 84.438C231.617 99.1028 217.167 101.039 217.167 101.039C217.167 101.039 207.536 95.2817 208.556 93.2862L221.306 86.2891L206.542 79.2412L196.231 90.4925L188.581 84.8031C188.581 84.8031 199.079 67.5059 203.643 60.3561C208.208 53.2062 223.006 57.8766 223.006 57.8766Z" fill="#FF9A22"/>
<path d="M204.859 93.5579L207.409 91.4265C207.409 91.4265 201.544 86.3316 193.715 87.1808C191.573 84.0435 188.411 81.7426 184.765 80.6678L181.56 83.0963" fill="#FFE8BC"/>
<path d="M207.392 91.4265L209.763 106.287L205.207 108.919L201.272 95.3751" fill="#FFE8BC"/>
<path d="M204.859 93.5579L207.298 107.628L205.199 108.919C205.199 108.919 182.988 97.3706 183.201 97.1413C183.413 96.912 181.56 83.0963 181.56 83.0963" fill="#F8464C"/>
<path d="M183.124 81.8736L204.859 93.5579L202.87 94.7297L181.56 83.0539L183.124 81.8736Z" fill="#F8464C"/>
<path opacity="0.42" d="M183.124 81.8736L204.859 93.5579L202.87 94.7297L181.56 83.0539L183.124 81.8736Z" fill="#1371A5"/>
<path d="M202.139 95.5788C202.086 95.3831 202.086 95.177 202.137 94.9808C202.188 94.7847 202.289 94.6051 202.43 94.4596C202.571 94.3142 202.748 94.2079 202.943 94.151C203.138 94.0942 203.344 94.0887 203.541 94.1353C205.227 94.7113 207.006 94.9676 208.786 94.891C208.977 94.8809 209.168 94.922 209.338 95.0099H209.389C211.104 96.651 212.997 98.0951 215.033 99.3151L214.438 99.6038C213.675 101.182 212.794 102.701 211.803 104.147C211.573 104.473 211.269 104.741 210.916 104.928C210.563 105.115 210.171 105.217 209.772 105.225C209.504 105.434 209.22 105.622 208.922 105.786C208.506 106.029 208.027 106.142 207.547 106.11C207.067 106.078 206.607 105.903 206.227 105.607C205.954 105.786 205.622 105.853 205.301 105.794C205.094 105.905 204.861 105.954 204.627 105.936C204.394 105.918 204.17 105.833 203.983 105.692C202.929 104.911 202.36 103.697 203.04 102.55C202.656 102.132 202.43 101.592 202.4 101.025C202.371 100.458 202.54 99.8987 202.878 99.4425C203.338 98.7424 203.912 98.1251 204.578 97.6168C204.022 97.5367 203.5 97.3037 203.069 96.9438C202.638 96.5839 202.316 96.1112 202.139 95.5788Z" fill="#FDBA45"/>
<path d="M180.931 91.0953C180.804 90.9 180.668 90.7047 180.549 90.5094C180.462 90.3745 180.405 90.2222 180.383 90.0631C180.361 89.904 180.373 89.742 180.42 89.5884C180.467 89.4347 180.547 89.2932 180.655 89.1736C180.762 89.0541 180.894 88.9593 181.042 88.896C181.088 88.8409 181.14 88.7897 181.195 88.7432C181.075 88.4842 181.053 88.1903 181.135 87.9167C181.216 87.6431 181.395 87.4086 181.637 87.2572C181.802 87.1614 181.988 87.1067 182.179 87.0979C182.37 87.089 182.56 87.1262 182.733 87.2062C182.838 87.2301 182.938 87.2702 183.031 87.3251C183.867 87.8286 184.515 88.5922 184.875 89.4989C184.949 89.7441 184.94 90.0068 184.85 90.2463C184.759 90.4858 184.592 90.6887 184.374 90.8236C184.25 90.8945 184.115 90.9433 183.974 90.968C184.394 91.4837 184.74 92.0553 185.003 92.6663C185.326 93.5154 184.501 94.2117 183.753 94.1608L183.932 94.3985C184.595 95.2477 183.558 96.3686 182.657 96.0968C182.344 96.0064 182.052 95.8537 181.799 95.648C181.547 95.4422 181.338 95.1877 181.186 94.8995C180.795 94.2287 180.413 93.5409 180.047 92.8531C179.961 92.6824 179.915 92.4938 179.915 92.3025C179.915 92.1111 179.959 91.9224 180.045 91.7514C180.131 91.5804 180.256 91.432 180.41 91.3181C180.564 91.2041 180.743 91.1278 180.931 91.0953Z" fill="#FDBA45"/>
<path d="M205.947 73.968C205.947 73.968 205.887 87.1383 206.703 88.5564C207.519 89.9745 221.57 95.5788 221.57 95.5788L229.951 84.5399L205.947 73.968Z" fill="#FF9A22"/>
<path d="M212.517 51.2787C212.517 51.2787 210.18 56.6793 211.174 58.5729C212.169 60.4665 217.294 59.0399 217.294 59.0399" fill="#1B6333"/>
<path d="M212.024 48.5614C212.024 48.5614 212.109 59.4051 216.606 60.4495C221.102 61.494 223.321 55.9575 223.321 55.9575C223.321 55.9575 224.06 48.6208 222.581 47.1178C221.102 45.6148 214.336 45.4365 212.024 48.5614Z" fill="#FDBA45"/>
<path d="M210.273 47.432C210.273 47.432 213.367 51.6098 215.169 52.6458C216.971 53.6818 218.969 53.0279 219.615 54.48C220.261 55.932 218.246 64.6698 220.32 66.2747C222.394 67.8796 226.27 63.0564 228.081 65.3321C229.891 67.6078 229.033 71.8706 231.812 72.7367C234.592 73.6028 237.762 69.2807 235.034 65.9435C232.305 62.6063 232.042 60.9505 233.521 59.8041C235.731 58.1058 233.274 52.0089 230.622 50.9051C227.97 49.8012 227.129 43.8741 222.386 42.5154C217.643 41.1568 211.217 44.0354 210.273 47.432Z" fill="#1B6333"/>
<path d="M206.899 69.7647C207.029 75.8389 207.284 81.9075 207.664 87.9705C207.706 88.6583 206.635 88.6838 206.593 87.9705C206.207 81.9075 205.952 75.8389 205.828 69.7647C205.828 69.6228 205.884 69.4867 205.985 69.3864C206.085 69.2861 206.221 69.2297 206.363 69.2297C206.505 69.2297 206.642 69.2861 206.742 69.3864C206.842 69.4867 206.899 69.6228 206.899 69.7647Z" fill="#F26250"/>
<path d="M208.752 92.8871C212.182 91.2377 215.18 88.8114 217.507 85.8013C219.834 82.7911 221.426 79.2801 222.156 75.5474C222.292 74.8681 223.329 75.1313 223.202 75.8106C222.438 79.6791 220.787 83.3177 218.377 86.44C215.966 89.5624 212.864 92.0833 209.313 93.8041C208.701 94.1353 208.131 93.1843 208.752 92.8871Z" fill="#F26250"/>
<path d="M117.802 91.6982C117.802 91.6982 127.73 94.0843 127.398 94.976C127.067 95.8676 123.811 94.976 123.811 94.976C123.811 94.976 130.467 97.7527 129.107 100.504C128.257 102.287 121.907 101.073 120.19 100.504C118.473 99.935 113.798 95.409 113.798 95.409L117.802 91.6982Z" fill="#FFD8C6"/>
<path d="M105.97 53.0194C105.97 53.0194 108.741 54.9895 109.37 64.8311C109.999 74.6728 110.611 80.8376 111.359 82.5699C112.107 84.3021 122.137 90.7812 122.137 90.7812L117.19 96.5639L102.085 87.3846" fill="#E6E6E6"/>
<path d="M89.1398 125.104V159.715H86.5728L86.0203 124.204" fill="#895851"/>
<path d="M74.5538 111.789L69.4198 149.423H71.9868L77.3503 113.182" fill="#895851"/>
<path d="M126.353 138.104C126.353 138.104 128.741 145.933 129.277 146.732C129.812 147.53 137.641 152.676 137.513 154.298C137.386 155.919 134.428 156.556 132.583 156.42C130.739 156.285 120.114 151.861 119.451 150.561C118.788 149.262 118.788 138.113 118.788 138.113L126.353 138.104Z" fill="#5C2D1D"/>
<path d="M113.756 147.267C113.756 147.267 116.144 155.096 116.68 155.894C117.215 156.692 125.044 161.838 124.916 163.46C124.789 165.082 121.831 165.719 119.986 165.583C118.142 165.447 107.517 161.023 106.854 159.724C106.191 158.424 106.191 147.275 106.191 147.275L113.756 147.267Z" fill="#5C2D1D"/>
<path d="M73.1598 76.0059C73.8398 77.908 77.6818 106.779 77.6818 106.779L81.5408 105.488L76.5088 75.8531" fill="#895851"/>
<path d="M74.5538 111.789L74.4858 107.136L78.6083 108.545L77.3503 113.182" fill="#A9CBF8"/>
<path d="M83.8698 104.588C83.8698 104.588 73.5253 108.554 74.5198 112.46C75.5143 116.366 83.8188 125.928 89.1058 125.104C94.3928 124.28 100.853 119.678 100.853 119.678" fill="#A9CBF8"/>
<path d="M83.8698 99.8331C83.8698 99.8331 73.5253 103.799 74.5198 107.705C75.5143 111.611 83.8188 121.172 89.1058 120.349C94.3928 119.525 100.853 114.923 100.853 114.923" fill="#CBE3FF"/>
<path d="M79.7729 63.5659C79.7729 63.5659 69.7768 66.0539 68.7228 71.8026C67.6688 77.5514 67.4563 88.1912 81.6514 84.0559C95.8464 79.9205 89.1399 69.2892 89.1399 69.2892" fill="#CBE3FF"/>
<path d="M103.972 86.4929C103.972 86.4929 124.432 100.521 127.075 107.662C129.719 114.804 131.444 142.944 131.444 142.944C131.444 142.944 124.287 147.386 115.957 144.77L109.684 112.885C109.684 112.885 94.8093 106.533 92.1913 98.6018C89.5733 90.6708 93.1008 75.8531 93.1008 75.8531" fill="#895851"/>
<path d="M92.5143 94.6872C92.5143 94.6872 112.974 108.715 115.617 115.857C118.261 122.998 119.986 151.147 119.986 151.147C119.986 151.147 112.829 155.588 104.499 152.973L98.2263 121.087C98.2263 121.087 83.3513 114.736 80.7333 106.805C78.1153 98.8736 81.6428 84.0559 81.6428 84.0559" fill="#895851"/>
<path d="M84.3798 94.9845C80.8863 86.493 77.7328 61.8676 79.8408 59.1928C82.3143 56.0169 96.3733 50.8371 96.3733 50.8371C98.0287 50.3878 99.7693 50.3526 101.442 50.7347C103.114 51.1168 104.666 51.9044 105.961 53.0279C109.361 55.9235 106.973 78.4006 105.961 89.6773C100.011 95.1798 92.9563 96.5299 84.3798 94.9845Z" fill="#E6E6E6"/>
<path d="M99.0423 97.5319C102.723 101.209 106.692 104.741 110.092 108.656C113.067 112.052 114.24 116.366 115.396 120.646C118.091 130.606 119.289 140.881 120.496 151.105C120.573 151.725 119.595 151.716 119.527 151.105C118.38 141.272 117.215 131.396 114.716 121.792C113.484 117.088 112.26 112.401 108.885 108.741C105.511 105.081 101.881 101.71 98.3793 98.2112C98.3164 98.1189 98.2873 98.0077 98.297 97.8964C98.3068 97.7852 98.3547 97.6807 98.4328 97.6007C98.5108 97.5208 98.6142 97.4702 98.7253 97.4577C98.8363 97.4451 98.9484 97.4714 99.0423 97.5319Z" fill="#5C2D1D"/>
<path d="M106.845 96.3771C106.845 96.3771 116.773 98.7632 116.442 99.6548C116.11 100.546 112.855 99.6548 112.855 99.6548C112.855 99.6548 119.51 102.431 118.15 105.183C117.3 106.966 110.951 105.752 109.234 105.183C107.517 104.614 102.842 100.088 102.842 100.088L106.845 96.3771Z" fill="#FFD8C6"/>
<path d="M89.1398 69.2892C89.1398 69.2892 91.2733 84.7267 92.8968 86.8071C94.5203 88.8875 111.342 96.2921 111.342 96.2921C111.342 96.2921 105.851 98.7547 105.978 104.58C105.978 104.58 84.7963 99.2981 82.7053 94.441C80.6143 89.5839 74.4433 65.1283 79.8493 59.1928C85.2553 53.2572 89.1398 69.2892 89.1398 69.2892Z" fill="#E6E6E6"/>
<path d="M101.626 50.7777C101.626 50.7777 104.55 57.5709 98.2262 60.1183C91.9022 62.6658 84.9067 55.7622 84.9067 55.7622C84.9067 55.7622 94.3077 49.8436 101.626 50.7777Z" fill="#6CA3D8"/>
<path d="M90.7208 52.9515L88.2898 53.945L94.9963 58.8956L96.1863 56.5944L99.6798 57.2397C99.6798 57.2397 98.9658 51.1768 98.8298 51.0409C98.6938 50.9051 90.7208 52.9515 90.7208 52.9515Z" fill="#4687BC"/>
<path d="M83.0283 41.0549C83.7338 37.93 86.2243 36.8092 89.0378 36.8092C89.5544 36.2414 90.1746 35.7774 90.8653 35.442C93.0073 34.4231 95.9653 34.5334 97.7503 36.1383C98.4626 35.8912 99.2262 35.8298 99.9688 35.96C102.179 36.3761 102.884 38.5075 102.816 40.469C102.816 40.5454 102.816 40.6219 102.816 40.7068C103.318 44.1034 100.36 46.1923 100.36 46.1923L91.0098 53.6733C89.7398 53.2947 88.5872 52.5992 87.6608 51.6523C87.3443 51.2689 87.0996 50.8317 86.9383 50.3616C86.8481 50.3132 86.7628 50.2563 86.6833 50.1918C84.0228 48.0095 82.2548 44.477 83.0283 41.0549Z" fill="#895851"/>
<path d="M100.02 43.441C100.02 44.6129 100.385 55.6518 95.3958 55.7877C90.4063 55.9235 88.5958 48.9096 88.5958 48.9096C88.5958 48.9096 92.6928 46.8037 92.6928 45.0969C92.6928 43.3901 92.3613 42.7108 94.3928 41.8276C96.4243 40.9445 100.071 41.488 100.02 43.441Z" fill="#FFE0CE"/>
<path d="M162.027 65.0944C162.027 65.0944 164.195 81.9245 154.377 85.1853C144.56 88.446 139.264 79.9715 139.077 65.0944" fill="#F8464C"/>
<path d="M150.561 71.0979C156.898 71.0979 162.036 68.41 162.036 65.0944C162.036 61.7787 156.898 59.0909 150.561 59.0909C144.223 59.0909 139.086 61.7787 139.086 65.0944C139.086 68.41 144.223 71.0979 150.561 71.0979Z" fill="#06577A"/>
<path d="M150.586 65.0944C150.586 65.0944 150.586 41.7767 162.877 32.2917C162.877 32.2917 169.431 36.0789 167.79 41.8871C166.15 47.6953 159.086 43.3816 157.845 46.43C156.604 49.4785 160.259 50.3701 157.786 53.478C155.312 56.5859 150.586 59.0909 150.586 65.0944Z" fill="#8CCC00"/>
<path d="M148.036 63.1243C148.036 63.1243 149.048 36.0874 142.843 28.0714C136.638 20.0554 132.583 31.0689 135.371 35.9855C138.159 40.9021 143.021 39.6708 141.321 43.8996C139.621 48.1283 136.544 50.3361 139.961 52.1533C143.378 53.9705 148.317 59.6853 148.036 63.1243Z" fill="#8CCC00"/>
<path d="M91.0862 25.0739C91.6576 24.7769 92.137 24.3297 92.4725 23.7805C92.8081 23.2313 92.9871 22.6009 92.9902 21.9575V3.79419C92.9888 3.17459 92.8246 2.56621 92.514 2.02985C92.2035 1.49349 91.7576 1.04791 91.2207 0.737632C90.6838 0.427356 90.0749 0.263241 89.4547 0.261684C88.8344 0.260127 88.2247 0.421181 87.6862 0.728758L59.1857 17.3381C58.6381 17.6568 58.1859 18.1164 57.8765 18.669C57.567 19.2216 57.4115 19.847 57.4262 20.48L58.4292 43.458L91.0862 25.0739Z" fill="#F8464C"/>
<path d="M58.4377 43.4495V48.451L65.2207 37.5989" fill="#F8464C"/>
<path d="M63.2743 24.0549L88.2218 9.76372C88.4653 9.62184 88.6424 9.38915 88.7141 9.11684C88.7858 8.84452 88.7463 8.5549 88.6043 8.31167C88.4623 8.06845 88.2294 7.89155 87.9568 7.81989C87.6842 7.74823 87.3943 7.78767 87.1508 7.92956L62.1863 22.2208C62.0658 22.291 61.9603 22.3843 61.8758 22.4953C61.7913 22.6063 61.7296 22.7328 61.694 22.8676C61.6585 23.0025 61.6499 23.143 61.6688 23.2811C61.6876 23.4193 61.7335 23.5524 61.8038 23.6728C61.8742 23.7932 61.9675 23.8987 62.0786 23.983C62.1897 24.0674 62.3164 24.1291 62.4514 24.1646C62.5863 24.2001 62.727 24.2087 62.8653 24.1898C63.0035 24.171 63.1368 24.1252 63.2573 24.0549H63.2743Z" fill="white"/>
<path d="M64.5238 31.2982L89.4713 17.0155C89.717 16.8736 89.8962 16.64 89.9696 16.3661C90.0429 16.0922 90.0043 15.8004 89.8623 15.5549C89.7203 15.3095 89.4864 15.1304 89.2123 15.0571C88.9381 14.9839 88.646 15.0224 88.4003 15.1643L63.4528 29.4725C63.2339 29.6254 63.0806 29.855 63.0236 30.1157C62.9665 30.3764 63.0098 30.6489 63.1448 30.8791C63.2799 31.1094 63.4968 31.2803 63.7523 31.358C64.0079 31.4356 64.2833 31.4143 64.5238 31.2982Z" fill="white"/>
<path d="M247.724 4.83016C256.955 1.43356 268.405 9.62786 273.318 23.0529C278.231 36.478 274.72 50.0984 265.489 53.461C264.756 53.7269 263.999 53.9231 263.228 54.0469C261.282 60.8401 254.575 59.0059 254.575 59.0059C257.236 57.4095 257.975 55.4905 257.975 53.8431C250.75 52.1448 243.525 45.1563 239.938 35.2382C234.991 21.8132 238.493 8.19279 247.724 4.83016Z" fill="#F8464C"/>
<path opacity="0.1" d="M247.724 4.83016C256.955 1.43356 268.405 9.62786 273.318 23.0529C278.231 36.478 274.72 50.0984 265.489 53.461C264.756 53.7269 263.999 53.9231 263.228 54.0469C261.282 60.8401 254.575 59.0059 254.575 59.0059C257.236 57.4095 257.975 55.4905 257.975 53.8431C250.75 52.1448 243.525 45.1563 239.938 35.2382C234.991 21.8132 238.493 8.19279 247.724 4.83016Z" fill="black"/>
<path d="M261.363 54.7173C270.589 51.3537 274.091 37.7415 269.185 24.3135C264.28 10.8855 252.824 2.72671 243.599 6.09028C234.373 9.45386 230.871 23.0661 235.777 36.4941C240.682 49.922 252.138 58.0808 261.363 54.7173Z" fill="#F8464C"/>
<path d="M252.586 51.3551C252.586 51.3551 256.505 56.6453 250.47 60.2712C250.47 60.2712 259.488 62.8186 259.65 51.3551" fill="#F8464C"/>
<path d="M244.187 30.8409C245.454 30.6789 246.28 28.9863 246.034 27.0605C245.787 25.1347 244.56 23.7049 243.293 23.867C242.027 24.0291 241.2 25.7216 241.447 27.6474C241.694 29.5733 242.921 31.003 244.187 30.8409Z" fill="white"/>
<path d="M252.151 34.951C253.418 34.7889 254.244 33.0963 253.997 31.1705C253.75 29.2447 252.523 27.8149 251.257 27.977C249.99 28.1391 249.164 29.8317 249.411 31.7575C249.658 33.6833 250.885 35.1131 252.151 34.951Z" fill="white"/>
<path d="M260.122 39.2537C261.388 39.0917 262.215 37.3991 261.968 35.4733C261.721 33.5475 260.494 32.1177 259.227 32.2798C257.961 32.4418 257.134 34.1344 257.381 36.0602C257.628 37.986 258.855 39.4158 260.122 39.2537Z" fill="white"/>
<path d="M105.953 67.3701C106.134 74.4124 105.978 81.449 105.485 88.4799C105.485 89.0234 106.335 88.9809 106.335 88.4799C106.828 81.449 106.984 74.4124 106.803 67.3701C106.803 67.2575 106.758 67.1495 106.678 67.0699C106.599 66.9902 106.491 66.9455 106.378 66.9455C106.265 66.9455 106.157 66.9902 106.077 67.0699C105.998 67.1495 105.953 67.2575 105.953 67.3701Z" fill="#895851"/>
<path d="M105.46 92.9635C102.801 92.0488 100.193 90.9915 97.6483 89.7961C95.6168 88.8366 92.0128 87.6818 91.2733 85.423C90.4233 82.8756 90.3383 79.7592 90.0408 77.1268C89.7433 74.4944 89.5308 71.7517 89.3863 69.0599C89.3863 68.5164 88.5363 68.5164 88.5363 69.0599C88.7063 72.2951 88.9698 75.5219 89.3863 78.7402C89.5619 80.1158 89.7574 81.4886 89.9728 82.8586C90.1513 83.9625 90.1598 85.6947 90.7208 86.6882C91.2307 87.3775 91.9265 87.9077 92.7268 88.2167C94.0868 88.9753 95.4666 89.6886 96.8663 90.3566C99.5908 91.6455 102.386 92.7795 105.239 93.7532C105.749 93.9655 105.97 93.1418 105.46 92.9635Z" fill="#895851"/>
<path d="M78.208 284.536C80.032 284.536 81.608 284.88 82.936 285.568C84.28 286.24 85.304 287.208 86.008 288.472C86.728 289.736 87.088 291.224 87.088 292.936C87.088 294.648 86.728 296.136 86.008 297.4C85.304 298.648 84.28 299.608 82.936 300.28C81.608 300.936 80.032 301.264 78.208 301.264H73V284.536H78.208ZM78.208 299.464C80.368 299.464 82.016 298.896 83.152 297.76C84.288 296.608 84.856 295 84.856 292.936C84.856 290.856 84.28 289.232 83.128 288.064C81.992 286.896 80.352 286.312 78.208 286.312H75.184V299.464H78.208Z" fill="#022B3A"/>
<path d="M91.0968 285.976C90.6807 285.976 90.3288 285.832 90.0408 285.544C89.7528 285.256 89.6088 284.904 89.6088 284.488C89.6088 284.072 89.7528 283.72 90.0408 283.432C90.3288 283.144 90.6807 283 91.0968 283C91.4967 283 91.8328 283.144 92.1048 283.432C92.3928 283.72 92.5368 284.072 92.5368 284.488C92.5368 284.904 92.3928 285.256 92.1048 285.544C91.8328 285.832 91.4967 285.976 91.0968 285.976ZM92.1528 288.112V301.264H89.9688V288.112H92.1528Z" fill="#022B3A"/>
<path d="M100.531 301.48C99.523 301.48 98.619 301.312 97.819 300.976C97.019 300.624 96.387 300.144 95.923 299.536C95.459 298.912 95.203 298.2 95.155 297.4H97.411C97.475 298.056 97.779 298.592 98.323 299.008C98.883 299.424 99.611 299.632 100.507 299.632C101.339 299.632 101.995 299.448 102.475 299.08C102.955 298.712 103.195 298.248 103.195 297.688C103.195 297.112 102.939 296.688 102.427 296.416C101.915 296.128 101.123 295.848 100.051 295.576C99.075 295.32 98.275 295.064 97.651 294.808C97.043 294.536 96.515 294.144 96.067 293.632C95.635 293.104 95.419 292.416 95.419 291.568C95.419 290.896 95.619 290.28 96.019 289.72C96.419 289.16 96.987 288.72 97.723 288.4C98.459 288.064 99.299 287.896 100.243 287.896C101.699 287.896 102.875 288.264 103.771 289C104.667 289.736 105.147 290.744 105.211 292.024H103.027C102.979 291.336 102.699 290.784 102.187 290.368C101.691 289.952 101.019 289.744 100.171 289.744C99.387 289.744 98.763 289.912 98.299 290.248C97.835 290.584 97.603 291.024 97.603 291.568C97.603 292 97.739 292.36 98.011 292.648C98.299 292.92 98.651 293.144 99.067 293.32C99.499 293.48 100.091 293.664 100.843 293.872C101.787 294.128 102.555 294.384 103.147 294.64C103.739 294.88 104.243 295.248 104.659 295.744C105.091 296.24 105.315 296.888 105.331 297.688C105.331 298.408 105.131 299.056 104.731 299.632C104.331 300.208 103.763 300.664 103.027 301C102.307 301.32 101.475 301.48 100.531 301.48Z" fill="#022B3A"/>
<path d="M107.598 294.664C107.598 293.304 107.87 292.12 108.414 291.112C108.958 290.088 109.71 289.296 110.67 288.736C111.646 288.176 112.758 287.896 114.006 287.896C115.622 287.896 116.95 288.288 117.99 289.072C119.046 289.856 119.742 290.944 120.078 292.336H117.726C117.502 291.536 117.062 290.904 116.406 290.44C115.766 289.976 114.966 289.744 114.006 289.744C112.758 289.744 111.75 290.176 110.982 291.04C110.214 291.888 109.83 293.096 109.83 294.664C109.83 296.248 110.214 297.472 110.982 298.336C111.75 299.2 112.758 299.632 114.006 299.632C114.966 299.632 115.766 299.408 116.406 298.96C117.046 298.512 117.486 297.872 117.726 297.04H120.078C119.726 298.384 119.022 299.464 117.966 300.28C116.91 301.08 115.59 301.48 114.006 301.48C112.758 301.48 111.646 301.2 110.67 300.64C109.71 300.08 108.958 299.288 108.414 298.264C107.87 297.24 107.598 296.04 107.598 294.664Z" fill="#022B3A"/>
<path d="M128.728 301.48C127.496 301.48 126.376 301.2 125.368 300.64C124.376 300.08 123.592 299.288 123.016 298.264C122.456 297.224 122.176 296.024 122.176 294.664C122.176 293.32 122.464 292.136 123.04 291.112C123.632 290.072 124.432 289.28 125.44 288.736C126.448 288.176 127.576 287.896 128.824 287.896C130.072 287.896 131.2 288.176 132.208 288.736C133.216 289.28 134.008 290.064 134.584 291.088C135.176 292.112 135.472 293.304 135.472 294.664C135.472 296.024 135.168 297.224 134.56 298.264C133.968 299.288 133.16 300.08 132.136 300.64C131.112 301.2 129.976 301.48 128.728 301.48ZM128.728 299.56C129.512 299.56 130.248 299.376 130.936 299.008C131.624 298.64 132.176 298.088 132.592 297.352C133.024 296.616 133.24 295.72 133.24 294.664C133.24 293.608 133.032 292.712 132.616 291.976C132.2 291.24 131.656 290.696 130.984 290.344C130.312 289.976 129.584 289.792 128.8 289.792C128 289.792 127.264 289.976 126.592 290.344C125.936 290.696 125.408 291.24 125.008 291.976C124.608 292.712 124.408 293.608 124.408 294.664C124.408 295.736 124.6 296.64 124.984 297.376C125.384 298.112 125.912 298.664 126.568 299.032C127.224 299.384 127.944 299.56 128.728 299.56Z" fill="#022B3A"/>
<path d="M143.24 299.248L147.32 288.112H149.648L144.488 301.264H141.944L136.784 288.112H139.136L143.24 299.248Z" fill="#022B3A"/>
<path d="M163.797 294.184C163.797 294.6 163.773 295.04 163.725 295.504H153.213C153.293 296.8 153.733 297.816 154.533 298.552C155.349 299.272 156.333 299.632 157.485 299.632C158.429 299.632 159.213 299.416 159.837 298.984C160.477 298.536 160.925 297.944 161.181 297.208H163.533C163.181 298.472 162.477 299.504 161.421 300.304C160.365 301.088 159.053 301.48 157.485 301.48C156.237 301.48 155.117 301.2 154.125 300.64C153.149 300.08 152.381 299.288 151.821 298.264C151.261 297.224 150.981 296.024 150.981 294.664C150.981 293.304 151.253 292.112 151.797 291.088C152.341 290.064 153.101 289.28 154.077 288.736C155.069 288.176 156.205 287.896 157.485 287.896C158.733 287.896 159.837 288.168 160.797 288.712C161.757 289.256 162.493 290.008 163.005 290.968C163.533 291.912 163.797 292.984 163.797 294.184ZM161.541 293.728C161.541 292.896 161.357 292.184 160.989 291.592C160.621 290.984 160.117 290.528 159.477 290.224C158.853 289.904 158.157 289.744 157.389 289.744C156.285 289.744 155.341 290.096 154.557 290.8C153.789 291.504 153.349 292.48 153.237 293.728H161.541Z" fill="#022B3A"/>
<path d="M168.864 290.248C169.248 289.496 169.792 288.912 170.496 288.496C171.216 288.08 172.088 287.872 173.112 287.872V290.128H172.536C170.088 290.128 168.864 291.456 168.864 294.112V301.264H166.68V288.112H168.864V290.248Z" fill="#022B3A"/>
<path d="M193.359 288.112L185.439 307.456H183.183L185.775 301.12L180.471 288.112H182.895L187.023 298.768L191.103 288.112H193.359Z" fill="#022B3A"/>
<path d="M201.291 301.48C200.059 301.48 198.939 301.2 197.931 300.64C196.939 300.08 196.155 299.288 195.579 298.264C195.019 297.224 194.739 296.024 194.739 294.664C194.739 293.32 195.027 292.136 195.603 291.112C196.195 290.072 196.995 289.28 198.003 288.736C199.011 288.176 200.139 287.896 201.387 287.896C202.635 287.896 203.763 288.176 204.771 288.736C205.779 289.28 206.571 290.064 207.147 291.088C207.739 292.112 208.035 293.304 208.035 294.664C208.035 296.024 207.731 297.224 207.123 298.264C206.531 299.288 205.723 300.08 204.699 300.64C203.675 301.2 202.539 301.48 201.291 301.48ZM201.291 299.56C202.075 299.56 202.811 299.376 203.499 299.008C204.187 298.64 204.739 298.088 205.155 297.352C205.587 296.616 205.803 295.72 205.803 294.664C205.803 293.608 205.595 292.712 205.179 291.976C204.763 291.24 204.219 290.696 203.547 290.344C202.875 289.976 202.147 289.792 201.363 289.792C200.563 289.792 199.827 289.976 199.155 290.344C198.499 290.696 197.971 291.24 197.571 291.976C197.171 292.712 196.971 293.608 196.971 294.664C196.971 295.736 197.163 296.64 197.547 297.376C197.947 298.112 198.475 298.664 199.131 299.032C199.787 299.384 200.507 299.56 201.291 299.56Z" fill="#022B3A"/>
<path d="M222.57 288.112V301.264H220.386V299.32C219.97 299.992 219.386 300.52 218.634 300.904C217.898 301.272 217.082 301.456 216.186 301.456C215.162 301.456 214.242 301.248 213.426 300.832C212.61 300.4 211.962 299.76 211.482 298.912C211.018 298.064 210.786 297.032 210.786 295.816V288.112H212.946V295.528C212.946 296.824 213.274 297.824 213.93 298.528C214.586 299.216 215.482 299.56 216.618 299.56C217.786 299.56 218.706 299.2 219.378 298.48C220.05 297.76 220.386 296.712 220.386 295.336V288.112H222.57Z" fill="#022B3A"/>
<path d="M228.442 290.248C228.826 289.496 229.37 288.912 230.074 288.496C230.794 288.08 231.666 287.872 232.69 287.872V290.128H232.114C229.666 290.128 228.442 291.456 228.442 294.112V301.264H226.258V288.112H228.442V290.248Z" fill="#022B3A"/>
<path d="M71.98 329.428L65.824 349.264H61.504L57.508 334.612L53.512 349.264H49.192L43 329.428H47.176L51.316 345.376L55.528 329.428H59.812L63.844 345.304L67.948 329.428H71.98Z" fill="#F8464C"/>
<path d="M93.227 338.86C93.227 339.604 93.179 340.276 93.083 340.876H77.927C78.047 342.46 78.635 343.732 79.691 344.692C80.747 345.652 82.043 346.132 83.579 346.132C85.787 346.132 87.347 345.208 88.259 343.36H92.687C92.087 345.184 90.995 346.684 89.411 347.86C87.851 349.012 85.907 349.588 83.579 349.588C81.683 349.588 79.979 349.168 78.467 348.328C76.979 347.464 75.803 346.264 74.939 344.728C74.099 343.168 73.679 341.368 73.679 339.328C73.679 337.288 74.087 335.5 74.903 333.964C75.743 332.404 76.907 331.204 78.395 330.364C79.907 329.524 81.635 329.104 83.579 329.104C85.451 329.104 87.119 329.512 88.583 330.328C90.047 331.144 91.187 332.296 92.003 333.784C92.819 335.248 93.227 336.94 93.227 338.86ZM88.943 337.564C88.919 336.052 88.379 334.84 87.323 333.928C86.267 333.016 84.959 332.56 83.399 332.56C81.983 332.56 80.771 333.016 79.763 333.928C78.755 334.816 78.155 336.028 77.963 337.564H88.943Z" fill="#F8464C"/>
<path d="M95.8978 339.256C95.8978 337.264 96.3058 335.5 97.1218 333.964C97.9618 332.428 99.0898 331.24 100.506 330.4C101.946 329.536 103.53 329.104 105.258 329.104C106.818 329.104 108.174 329.416 109.326 330.04C110.502 330.64 111.438 331.396 112.134 332.308V329.428H116.274V349.264H112.134V346.312C111.438 347.248 110.49 348.028 109.29 348.652C108.09 349.276 106.722 349.588 105.186 349.588C103.482 349.588 101.922 349.156 100.506 348.292C99.0898 347.404 97.9618 346.18 97.1218 344.62C96.3058 343.036 95.8978 341.248 95.8978 339.256ZM112.134 339.328C112.134 337.96 111.846 336.772 111.27 335.764C110.718 334.756 109.986 333.988 109.074 333.46C108.162 332.932 107.178 332.668 106.122 332.668C105.066 332.668 104.082 332.932 103.17 333.46C102.258 333.964 101.514 334.72 100.938 335.728C100.386 336.712 100.11 337.888 100.11 339.256C100.11 340.624 100.386 341.824 100.938 342.856C101.514 343.888 102.258 344.68 103.17 345.232C104.106 345.76 105.09 346.024 106.122 346.024C107.178 346.024 108.162 345.76 109.074 345.232C109.986 344.704 110.718 343.936 111.27 342.928C111.846 341.896 112.134 340.696 112.134 339.328Z" fill="#F8464C"/>
<path d="M129.512 339.364L138.656 349.264H133.112L125.768 340.732V349.264H121.664V322.624H125.768V338.104L132.968 329.428H138.656L129.512 339.364Z" fill="#F8464C"/>
<path d="M151.606 329.104C153.166 329.104 154.558 329.428 155.782 330.076C157.03 330.724 158.002 331.684 158.698 332.956C159.394 334.228 159.742 335.764 159.742 337.564V349.264H155.674V338.176C155.674 336.4 155.23 335.044 154.342 334.108C153.454 333.148 152.242 332.668 150.706 332.668C149.17 332.668 147.946 333.148 147.034 334.108C146.146 335.044 145.702 336.4 145.702 338.176V349.264H141.598V329.428H145.702V331.696C146.374 330.88 147.226 330.244 148.258 329.788C149.314 329.332 150.43 329.104 151.606 329.104Z" fill="#F8464C"/>
<path d="M183.157 338.86C183.157 339.604 183.109 340.276 183.013 340.876H167.857C167.977 342.46 168.565 343.732 169.621 344.692C170.677 345.652 171.973 346.132 173.509 346.132C175.717 346.132 177.277 345.208 178.189 343.36H182.617C182.017 345.184 180.925 346.684 179.341 347.86C177.781 349.012 175.837 349.588 173.509 349.588C171.613 349.588 169.909 349.168 168.397 348.328C166.909 347.464 165.733 346.264 164.869 344.728C164.029 343.168 163.609 341.368 163.609 339.328C163.609 337.288 164.017 335.5 164.833 333.964C165.673 332.404 166.837 331.204 168.325 330.364C169.837 329.524 171.565 329.104 173.509 329.104C175.381 329.104 177.049 329.512 178.513 330.328C179.977 331.144 181.117 332.296 181.933 333.784C182.749 335.248 183.157 336.94 183.157 338.86ZM178.873 337.564C178.849 336.052 178.309 334.84 177.253 333.928C176.197 333.016 174.889 332.56 173.329 332.56C171.913 332.56 170.701 333.016 169.693 333.928C168.685 334.816 168.085 336.028 167.893 337.564H178.873Z" fill="#F8464C"/>
<path d="M194.395 349.588C192.835 349.588 191.431 349.312 190.183 348.76C188.959 348.184 187.987 347.416 187.267 346.456C186.547 345.472 186.163 344.38 186.115 343.18H190.363C190.435 344.02 190.831 344.728 191.551 345.304C192.295 345.856 193.219 346.132 194.323 346.132C195.475 346.132 196.363 345.916 196.987 345.484C197.635 345.028 197.959 344.452 197.959 343.756C197.959 343.012 197.599 342.46 196.879 342.1C196.183 341.74 195.067 341.344 193.531 340.912C192.043 340.504 190.831 340.108 189.895 339.724C188.959 339.34 188.143 338.752 187.447 337.96C186.775 337.168 186.439 336.124 186.439 334.828C186.439 333.772 186.751 332.812 187.375 331.948C187.999 331.06 188.887 330.364 190.039 329.86C191.215 329.356 192.559 329.104 194.071 329.104C196.327 329.104 198.139 329.68 199.507 330.832C200.899 331.96 201.643 333.508 201.739 335.476H197.635C197.563 334.588 197.203 333.88 196.555 333.352C195.907 332.824 195.031 332.56 193.927 332.56C192.847 332.56 192.019 332.764 191.443 333.172C190.867 333.58 190.579 334.12 190.579 334.792C190.579 335.32 190.771 335.764 191.155 336.124C191.539 336.484 192.007 336.772 192.559 336.988C193.111 337.18 193.927 337.432 195.007 337.744C196.447 338.128 197.623 338.524 198.535 338.932C199.471 339.316 200.275 339.892 200.947 340.66C201.619 341.428 201.967 342.448 201.991 343.72C201.991 344.848 201.679 345.856 201.055 346.744C200.431 347.632 199.543 348.328 198.391 348.832C197.263 349.336 195.931 349.588 194.395 349.588Z" fill="#F8464C"/>
<path d="M213.626 349.588C212.066 349.588 210.662 349.312 209.414 348.76C208.19 348.184 207.218 347.416 206.498 346.456C205.778 345.472 205.394 344.38 205.346 343.18H209.594C209.666 344.02 210.062 344.728 210.782 345.304C211.526 345.856 212.45 346.132 213.554 346.132C214.706 346.132 215.594 345.916 216.218 345.484C216.866 345.028 217.19 344.452 217.19 343.756C217.19 343.012 216.83 342.46 216.11 342.1C215.414 341.74 214.298 341.344 212.762 340.912C211.274 340.504 210.062 340.108 209.126 339.724C208.19 339.34 207.374 338.752 206.678 337.96C206.006 337.168 205.67 336.124 205.67 334.828C205.67 333.772 205.982 332.812 206.606 331.948C207.23 331.06 208.118 330.364 209.27 329.86C210.446 329.356 211.79 329.104 213.302 329.104C215.558 329.104 217.37 329.68 218.738 330.832C220.13 331.96 220.874 333.508 220.97 335.476H216.866C216.794 334.588 216.434 333.88 215.786 333.352C215.138 332.824 214.262 332.56 213.158 332.56C212.078 332.56 211.25 332.764 210.674 333.172C210.098 333.58 209.81 334.12 209.81 334.792C209.81 335.32 210.002 335.764 210.386 336.124C210.77 336.484 211.238 336.772 211.79 336.988C212.342 337.18 213.158 337.432 214.238 337.744C215.678 338.128 216.854 338.524 217.766 338.932C218.702 339.316 219.506 339.892 220.178 340.66C220.85 341.428 221.198 342.448 221.222 343.72C221.222 344.848 220.91 345.856 220.286 346.744C219.662 347.632 218.774 348.328 217.622 348.832C216.494 349.336 215.162 349.588 213.626 349.588Z" fill="#F8464C"/>
<path d="M243.836 338.86C243.836 339.604 243.788 340.276 243.692 340.876H228.536C228.656 342.46 229.244 343.732 230.3 344.692C231.356 345.652 232.652 346.132 234.188 346.132C236.396 346.132 237.956 345.208 238.868 343.36H243.296C242.696 345.184 241.604 346.684 240.02 347.86C238.46 349.012 236.516 349.588 234.188 349.588C232.292 349.588 230.588 349.168 229.076 348.328C227.588 347.464 226.412 346.264 225.548 344.728C224.708 343.168 224.288 341.368 224.288 339.328C224.288 337.288 224.696 335.5 225.512 333.964C226.352 332.404 227.516 331.204 229.004 330.364C230.516 329.524 232.244 329.104 234.188 329.104C236.06 329.104 237.728 329.512 239.192 330.328C240.656 331.144 241.796 332.296 242.612 333.784C243.428 335.248 243.836 336.94 243.836 338.86ZM239.552 337.564C239.528 336.052 238.988 334.84 237.932 333.928C236.876 333.016 235.568 332.56 234.008 332.56C232.592 332.56 231.38 333.016 230.372 333.928C229.364 334.816 228.764 336.028 228.572 337.564H239.552Z" fill="#F8464C"/>
<path d="M255.075 349.588C253.515 349.588 252.111 349.312 250.863 348.76C249.639 348.184 248.667 347.416 247.947 346.456C247.227 345.472 246.843 344.38 246.795 343.18H251.043C251.115 344.02 251.511 344.728 252.231 345.304C252.975 345.856 253.899 346.132 255.003 346.132C256.155 346.132 257.043 345.916 257.667 345.484C258.315 345.028 258.639 344.452 258.639 343.756C258.639 343.012 258.279 342.46 257.559 342.1C256.863 341.74 255.747 341.344 254.211 340.912C252.723 340.504 251.511 340.108 250.575 339.724C249.639 339.34 248.823 338.752 248.127 337.96C247.455 337.168 247.119 336.124 247.119 334.828C247.119 333.772 247.431 332.812 248.055 331.948C248.679 331.06 249.567 330.364 250.719 329.86C251.895 329.356 253.239 329.104 254.751 329.104C257.007 329.104 258.819 329.68 260.187 330.832C261.579 331.96 262.323 333.508 262.419 335.476H258.315C258.243 334.588 257.883 333.88 257.235 333.352C256.587 332.824 255.711 332.56 254.607 332.56C253.527 332.56 252.699 332.764 252.123 333.172C251.547 333.58 251.259 334.12 251.259 334.792C251.259 335.32 251.451 335.764 251.835 336.124C252.219 336.484 252.687 336.772 253.239 336.988C253.791 337.18 254.607 337.432 255.687 337.744C257.127 338.128 258.303 338.524 259.215 338.932C260.151 339.316 260.955 339.892 261.627 340.66C262.299 341.428 262.647 342.448 262.671 343.72C262.671 344.848 262.359 345.856 261.735 346.744C261.111 347.632 260.223 348.328 259.071 348.832C257.943 349.336 256.611 349.588 255.075 349.588Z" fill="#F8464C"/>
<defs>
<linearGradient id="paint0_linear_798_36" x1="132.184" y1="90.2632" x2="151.086" y2="78.477" gradientUnits="userSpaceOnUse">
<stop stop-color="#FFDF58"/>
<stop offset="0.99" stop-color="#FF9800"/>
</linearGradient>
<linearGradient id="paint1_linear_798_36" x1="8830.81" y1="13738" x2="12679.2" y2="10027.2" gradientUnits="userSpaceOnUse">
<stop stop-color="#FFDF58"/>
<stop offset="0.99" stop-color="#FF9800"/>
</linearGradient>
<linearGradient id="paint2_linear_798_36" x1="19185" y1="12721.7" x2="22780.9" y2="9391.83" gradientUnits="userSpaceOnUse">
<stop stop-color="#FFDF58"/>
<stop offset="0.99" stop-color="#FF9800"/>
</linearGradient>
</defs>
</svg>
