<svg width="312" height="371" viewBox="0 0 312 371" fill="none" xmlns="http://www.w3.org/2000/svg">
<path d="M49 304.888C49 303.256 49.368 301.792 50.104 300.496C50.84 299.184 51.84 298.16 53.104 297.424C54.384 296.688 55.8 296.32 57.352 296.32C59.176 296.32 60.768 296.76 62.128 297.64C63.488 298.52 64.48 299.768 65.104 301.384H62.488C62.024 300.376 61.352 299.6 60.472 299.056C59.608 298.512 58.568 298.24 57.352 298.24C56.184 298.24 55.136 298.512 54.208 299.056C53.28 299.6 52.552 300.376 52.024 301.384C51.496 302.376 51.232 303.544 51.232 304.888C51.232 306.216 51.496 307.384 52.024 308.392C52.552 309.384 53.28 310.152 54.208 310.696C55.136 311.24 56.184 311.512 57.352 311.512C58.568 311.512 59.608 311.248 60.472 310.72C61.352 310.176 62.024 309.4 62.488 308.392H65.104C64.48 309.992 63.488 311.232 62.128 312.112C60.768 312.976 59.176 313.408 57.352 313.408C55.8 313.408 54.384 313.048 53.104 312.328C51.84 311.592 50.84 310.576 50.104 309.28C49.368 307.984 49 306.52 49 304.888Z" fill="black"/>
<path d="M74.8831 299.872C75.8751 299.872 76.7711 300.088 77.5711 300.52C78.3711 300.936 78.9951 301.568 79.4431 302.416C79.9071 303.264 80.1391 304.296 80.1391 305.512V313.264H77.9791V305.824C77.9791 304.512 77.6511 303.512 76.9951 302.824C76.3391 302.12 75.4431 301.768 74.3071 301.768C73.1551 301.768 72.2351 302.128 71.5471 302.848C70.8751 303.568 70.5391 304.616 70.5391 305.992V313.264H68.3551V295.504H70.5391V301.984C70.9711 301.312 71.5631 300.792 72.3151 300.424C73.0831 300.056 73.9391 299.872 74.8831 299.872Z" fill="black"/>
<path d="M89.4426 313.48C88.2106 313.48 87.0906 313.2 86.0826 312.64C85.0906 312.08 84.3066 311.288 83.7306 310.264C83.1706 309.224 82.8906 308.024 82.8906 306.664C82.8906 305.32 83.1786 304.136 83.7546 303.112C84.3466 302.072 85.1466 301.28 86.1546 300.736C87.1626 300.176 88.2906 299.896 89.5386 299.896C90.7866 299.896 91.9146 300.176 92.9226 300.736C93.9306 301.28 94.7226 302.064 95.2986 303.088C95.8906 304.112 96.1866 305.304 96.1866 306.664C96.1866 308.024 95.8826 309.224 95.2746 310.264C94.6826 311.288 93.8746 312.08 92.8506 312.64C91.8266 313.2 90.6906 313.48 89.4426 313.48ZM89.4426 311.56C90.2266 311.56 90.9626 311.376 91.6506 311.008C92.3386 310.64 92.8906 310.088 93.3066 309.352C93.7386 308.616 93.9546 307.72 93.9546 306.664C93.9546 305.608 93.7466 304.712 93.3306 303.976C92.9146 303.24 92.3706 302.696 91.6986 302.344C91.0266 301.976 90.2986 301.792 89.5146 301.792C88.7146 301.792 87.9786 301.976 87.3066 302.344C86.6506 302.696 86.1226 303.24 85.7226 303.976C85.3226 304.712 85.1226 305.608 85.1226 306.664C85.1226 307.736 85.3146 308.64 85.6986 309.376C86.0986 310.112 86.6266 310.664 87.2826 311.032C87.9386 311.384 88.6586 311.56 89.4426 311.56Z" fill="black"/>
<path d="M104.794 313.48C103.562 313.48 102.442 313.2 101.434 312.64C100.442 312.08 99.6582 311.288 99.0822 310.264C98.5222 309.224 98.2422 308.024 98.2422 306.664C98.2422 305.32 98.5302 304.136 99.1062 303.112C99.6982 302.072 100.498 301.28 101.506 300.736C102.514 300.176 103.642 299.896 104.89 299.896C106.138 299.896 107.266 300.176 108.274 300.736C109.282 301.28 110.074 302.064 110.65 303.088C111.242 304.112 111.538 305.304 111.538 306.664C111.538 308.024 111.234 309.224 110.626 310.264C110.034 311.288 109.226 312.08 108.202 312.64C107.178 313.2 106.042 313.48 104.794 313.48ZM104.794 311.56C105.578 311.56 106.314 311.376 107.002 311.008C107.69 310.64 108.242 310.088 108.658 309.352C109.09 308.616 109.306 307.72 109.306 306.664C109.306 305.608 109.098 304.712 108.682 303.976C108.266 303.24 107.722 302.696 107.05 302.344C106.378 301.976 105.65 301.792 104.866 301.792C104.066 301.792 103.33 301.976 102.658 302.344C102.002 302.696 101.474 303.24 101.074 303.976C100.674 304.712 100.474 305.608 100.474 306.664C100.474 307.736 100.666 308.64 101.05 309.376C101.45 310.112 101.978 310.664 102.634 311.032C103.29 311.384 104.01 311.56 104.794 311.56Z" fill="black"/>
<path d="M119.066 313.48C118.058 313.48 117.154 313.312 116.354 312.976C115.554 312.624 114.922 312.144 114.458 311.536C113.994 310.912 113.738 310.2 113.69 309.4H115.946C116.01 310.056 116.314 310.592 116.858 311.008C117.418 311.424 118.146 311.632 119.042 311.632C119.874 311.632 120.53 311.448 121.01 311.08C121.49 310.712 121.73 310.248 121.73 309.688C121.73 309.112 121.474 308.688 120.962 308.416C120.45 308.128 119.658 307.848 118.586 307.576C117.61 307.32 116.81 307.064 116.186 306.808C115.578 306.536 115.05 306.144 114.602 305.632C114.17 305.104 113.954 304.416 113.954 303.568C113.954 302.896 114.154 302.28 114.554 301.72C114.954 301.16 115.522 300.72 116.258 300.4C116.994 300.064 117.834 299.896 118.778 299.896C120.234 299.896 121.41 300.264 122.306 301C123.202 301.736 123.682 302.744 123.746 304.024H121.562C121.514 303.336 121.234 302.784 120.722 302.368C120.226 301.952 119.554 301.744 118.706 301.744C117.922 301.744 117.298 301.912 116.834 302.248C116.37 302.584 116.138 303.024 116.138 303.568C116.138 304 116.274 304.36 116.546 304.648C116.834 304.92 117.186 305.144 117.602 305.32C118.034 305.48 118.626 305.664 119.378 305.872C120.322 306.128 121.09 306.384 121.682 306.64C122.274 306.88 122.778 307.248 123.194 307.744C123.626 308.24 123.85 308.888 123.866 309.688C123.866 310.408 123.666 311.056 123.266 311.632C122.866 312.208 122.298 312.664 121.562 313C120.842 313.32 120.01 313.48 119.066 313.48Z" fill="black"/>
<path d="M138.949 306.184C138.949 306.6 138.925 307.04 138.877 307.504H128.365C128.445 308.8 128.885 309.816 129.685 310.552C130.501 311.272 131.485 311.632 132.637 311.632C133.581 311.632 134.365 311.416 134.989 310.984C135.629 310.536 136.077 309.944 136.333 309.208H138.685C138.333 310.472 137.629 311.504 136.573 312.304C135.517 313.088 134.205 313.48 132.637 313.48C131.389 313.48 130.269 313.2 129.277 312.64C128.301 312.08 127.533 311.288 126.973 310.264C126.413 309.224 126.133 308.024 126.133 306.664C126.133 305.304 126.405 304.112 126.949 303.088C127.493 302.064 128.253 301.28 129.229 300.736C130.221 300.176 131.357 299.896 132.637 299.896C133.885 299.896 134.989 300.168 135.949 300.712C136.909 301.256 137.645 302.008 138.157 302.968C138.685 303.912 138.949 304.984 138.949 306.184ZM136.693 305.728C136.693 304.896 136.509 304.184 136.141 303.592C135.773 302.984 135.269 302.528 134.629 302.224C134.005 301.904 133.309 301.744 132.541 301.744C131.437 301.744 130.493 302.096 129.709 302.8C128.941 303.504 128.501 304.48 128.389 305.728H136.693Z" fill="black"/>
<path d="M147.414 306.64C147.414 305.296 147.686 304.12 148.23 303.112C148.774 302.088 149.518 301.296 150.462 300.736C151.422 300.176 152.486 299.896 153.654 299.896C154.806 299.896 155.806 300.144 156.654 300.64C157.502 301.136 158.134 301.76 158.55 302.512V300.112H160.758V313.264H158.55V310.816C158.118 311.584 157.47 312.224 156.606 312.736C155.758 313.232 154.766 313.48 153.63 313.48C152.462 313.48 151.406 313.192 150.462 312.616C149.518 312.04 148.774 311.232 148.23 310.192C147.686 309.152 147.414 307.968 147.414 306.64ZM158.55 306.664C158.55 305.672 158.35 304.808 157.95 304.072C157.55 303.336 157.006 302.776 156.318 302.392C155.646 301.992 154.902 301.792 154.086 301.792C153.27 301.792 152.526 301.984 151.854 302.368C151.182 302.752 150.646 303.312 150.246 304.048C149.846 304.784 149.646 305.648 149.646 306.64C149.646 307.648 149.846 308.528 150.246 309.28C150.646 310.016 151.182 310.584 151.854 310.984C152.526 311.368 153.27 311.56 154.086 311.56C154.902 311.56 155.646 311.368 156.318 310.984C157.006 310.584 157.55 310.016 157.95 309.28C158.35 308.528 158.55 307.656 158.55 306.664Z" fill="black"/>
<path d="M175.503 313.48C174.495 313.48 173.591 313.312 172.791 312.976C171.991 312.624 171.359 312.144 170.895 311.536C170.431 310.912 170.175 310.2 170.127 309.4H172.383C172.447 310.056 172.751 310.592 173.295 311.008C173.855 311.424 174.583 311.632 175.479 311.632C176.311 311.632 176.967 311.448 177.447 311.08C177.927 310.712 178.167 310.248 178.167 309.688C178.167 309.112 177.911 308.688 177.399 308.416C176.887 308.128 176.095 307.848 175.023 307.576C174.047 307.32 173.247 307.064 172.623 306.808C172.015 306.536 171.487 306.144 171.039 305.632C170.607 305.104 170.391 304.416 170.391 303.568C170.391 302.896 170.591 302.28 170.991 301.72C171.391 301.16 171.959 300.72 172.695 300.4C173.431 300.064 174.271 299.896 175.215 299.896C176.671 299.896 177.847 300.264 178.743 301C179.639 301.736 180.119 302.744 180.183 304.024H177.999C177.951 303.336 177.671 302.784 177.159 302.368C176.663 301.952 175.991 301.744 175.143 301.744C174.359 301.744 173.735 301.912 173.271 302.248C172.807 302.584 172.575 303.024 172.575 303.568C172.575 304 172.711 304.36 172.983 304.648C173.271 304.92 173.623 305.144 174.039 305.32C174.471 305.48 175.063 305.664 175.815 305.872C176.759 306.128 177.527 306.384 178.119 306.64C178.711 306.88 179.215 307.248 179.631 307.744C180.063 308.24 180.287 308.888 180.303 309.688C180.303 310.408 180.103 311.056 179.703 311.632C179.303 312.208 178.735 312.664 177.999 313C177.279 313.32 176.447 313.48 175.503 313.48Z" fill="black"/>
<path d="M190.73 313.264L185.57 307.456V313.264H183.386V295.504H185.57V305.944L190.634 300.112H193.682L187.49 306.664L193.706 313.264H190.73Z" fill="black"/>
<path d="M196.866 297.976C196.45 297.976 196.098 297.832 195.81 297.544C195.522 297.256 195.378 296.904 195.378 296.488C195.378 296.072 195.522 295.72 195.81 295.432C196.098 295.144 196.45 295 196.866 295C197.266 295 197.602 295.144 197.874 295.432C198.162 295.72 198.306 296.072 198.306 296.488C198.306 296.904 198.162 297.256 197.874 297.544C197.602 297.832 197.266 297.976 196.866 297.976ZM197.922 300.112V313.264H195.738V300.112H197.922Z" fill="black"/>
<path d="M203.828 295.504V313.264H201.644V295.504H203.828Z" fill="black"/>
<path d="M209.734 295.504V313.264H207.55V295.504H209.734Z" fill="black"/>
<path d="M219.039 306.64C219.039 305.296 219.311 304.12 219.855 303.112C220.399 302.088 221.143 301.296 222.087 300.736C223.047 300.176 224.111 299.896 225.279 299.896C226.431 299.896 227.431 300.144 228.279 300.64C229.127 301.136 229.759 301.76 230.175 302.512V300.112H232.383V313.264H230.175V310.816C229.743 311.584 229.095 312.224 228.231 312.736C227.383 313.232 226.391 313.48 225.255 313.48C224.087 313.48 223.031 313.192 222.087 312.616C221.143 312.04 220.399 311.232 219.855 310.192C219.311 309.152 219.039 307.968 219.039 306.64ZM230.175 306.664C230.175 305.672 229.975 304.808 229.575 304.072C229.175 303.336 228.631 302.776 227.943 302.392C227.271 301.992 226.527 301.792 225.711 301.792C224.895 301.792 224.151 301.984 223.479 302.368C222.807 302.752 222.271 303.312 221.871 304.048C221.471 304.784 221.271 305.648 221.271 306.64C221.271 307.648 221.471 308.528 221.871 309.28C222.271 310.016 222.807 310.584 223.479 310.984C224.151 311.368 224.895 311.56 225.711 311.56C226.527 311.56 227.271 311.368 227.943 310.984C228.631 310.584 229.175 310.016 229.575 309.28C229.975 308.528 230.175 307.656 230.175 306.664Z" fill="black"/>
<path d="M242.482 299.872C244.082 299.872 245.378 300.36 246.37 301.336C247.362 302.296 247.858 303.688 247.858 305.512V313.264H245.698V305.824C245.698 304.512 245.37 303.512 244.714 302.824C244.058 302.12 243.162 301.768 242.026 301.768C240.874 301.768 239.954 302.128 239.266 302.848C238.594 303.568 238.258 304.616 238.258 305.992V313.264H236.074V300.112H238.258V301.984C238.69 301.312 239.274 300.792 240.01 300.424C240.762 300.056 241.586 299.872 242.482 299.872Z" fill="black"/>
<path d="M250.609 306.64C250.609 305.296 250.881 304.12 251.425 303.112C251.969 302.088 252.713 301.296 253.657 300.736C254.617 300.176 255.689 299.896 256.873 299.896C257.897 299.896 258.849 300.136 259.729 300.616C260.609 301.08 261.281 301.696 261.745 302.464V295.504H263.953V313.264H261.745V310.792C261.313 311.576 260.673 312.224 259.825 312.736C258.977 313.232 257.985 313.48 256.849 313.48C255.681 313.48 254.617 313.192 253.657 312.616C252.713 312.04 251.969 311.232 251.425 310.192C250.881 309.152 250.609 307.968 250.609 306.64ZM261.745 306.664C261.745 305.672 261.545 304.808 261.145 304.072C260.745 303.336 260.201 302.776 259.513 302.392C258.841 301.992 258.097 301.792 257.281 301.792C256.465 301.792 255.721 301.984 255.049 302.368C254.377 302.752 253.841 303.312 253.441 304.048C253.041 304.784 252.841 305.648 252.841 306.64C252.841 307.648 253.041 308.528 253.441 309.28C253.841 310.016 254.377 310.584 255.049 310.984C255.721 311.368 256.465 311.56 257.281 311.56C258.097 311.56 258.841 311.368 259.513 310.984C260.201 310.584 260.745 310.016 261.145 309.28C261.545 308.528 261.745 307.656 261.745 306.664Z" fill="black"/>
<path d="M26.104 334.36V361H22V334.36H26.104Z" fill="#F8464C"/>
<path d="M49.6722 350.596C49.6722 351.34 49.6242 352.012 49.5282 352.612H34.3722C34.4922 354.196 35.0802 355.468 36.1362 356.428C37.1922 357.388 38.4882 357.868 40.0242 357.868C42.2322 357.868 43.7922 356.944 44.7042 355.096H49.1322C48.5322 356.92 47.4402 358.42 45.8562 359.596C44.2962 360.748 42.3522 361.324 40.0242 361.324C38.1282 361.324 36.4242 360.904 34.9122 360.064C33.4242 359.2 32.2482 358 31.3842 356.464C30.5442 354.904 30.1242 353.104 30.1242 351.064C30.1242 349.024 30.5322 347.236 31.3482 345.7C32.1882 344.14 33.3522 342.94 34.8402 342.1C36.3522 341.26 38.0802 340.84 40.0242 340.84C41.8962 340.84 43.5642 341.248 45.0282 342.064C46.4922 342.88 47.6322 344.032 48.4482 345.52C49.2642 346.984 49.6722 348.676 49.6722 350.596ZM45.3882 349.3C45.3642 347.788 44.8242 346.576 43.7682 345.664C42.7122 344.752 41.4042 344.296 39.8442 344.296C38.4282 344.296 37.2162 344.752 36.2082 345.664C35.2002 346.552 34.6002 347.764 34.4082 349.3H45.3882Z" fill="#F8464C"/>
<path d="M52.3429 350.992C52.3429 349 52.7509 347.236 53.5669 345.7C54.4069 344.164 55.5349 342.976 56.9509 342.136C58.3909 341.272 59.9749 340.84 61.7029 340.84C63.2629 340.84 64.6189 341.152 65.7709 341.776C66.9469 342.376 67.8829 343.132 68.5789 344.044V341.164H72.7189V361H68.5789V358.048C67.8829 358.984 66.9349 359.764 65.7349 360.388C64.5349 361.012 63.1669 361.324 61.6309 361.324C59.9269 361.324 58.3669 360.892 56.9509 360.028C55.5349 359.14 54.4069 357.916 53.5669 356.356C52.7509 354.772 52.3429 352.984 52.3429 350.992ZM68.5789 351.064C68.5789 349.696 68.2909 348.508 67.7149 347.5C67.1629 346.492 66.4309 345.724 65.5189 345.196C64.6069 344.668 63.6229 344.404 62.5669 344.404C61.5109 344.404 60.5269 344.668 59.6149 345.196C58.7029 345.7 57.9589 346.456 57.3829 347.464C56.8309 348.448 56.5549 349.624 56.5549 350.992C56.5549 352.36 56.8309 353.56 57.3829 354.592C57.9589 355.624 58.7029 356.416 59.6149 356.968C60.5509 357.496 61.5349 357.76 62.5669 357.76C63.6229 357.76 64.6069 357.496 65.5189 356.968C66.4309 356.44 67.1629 355.672 67.7149 354.664C68.2909 353.632 68.5789 352.432 68.5789 351.064Z" fill="#F8464C"/>
<path d="M82.2134 344.044C82.8134 343.036 83.6054 342.256 84.5894 341.704C85.5974 341.128 86.7854 340.84 88.1534 340.84V345.088H87.1094C85.5014 345.088 84.2774 345.496 83.4374 346.312C82.6214 347.128 82.2134 348.544 82.2134 350.56V361H78.1094V341.164H82.2134V344.044Z" fill="#F8464C"/>
<path d="M101.934 340.84C103.494 340.84 104.886 341.164 106.11 341.812C107.358 342.46 108.33 343.42 109.026 344.692C109.722 345.964 110.07 347.5 110.07 349.3V361H106.002V349.912C106.002 348.136 105.558 346.78 104.67 345.844C103.782 344.884 102.57 344.404 101.034 344.404C99.4978 344.404 98.2738 344.884 97.3618 345.844C96.4738 346.78 96.0298 348.136 96.0298 349.912V361H91.9258V341.164H96.0298V343.432C96.7018 342.616 97.5538 341.98 98.5858 341.524C99.6418 341.068 100.758 340.84 101.934 340.84Z" fill="#F8464C"/>
<path d="M133.26 361.324C131.388 361.324 129.696 360.904 128.184 360.064C126.672 359.2 125.484 358 124.62 356.464C123.756 354.904 123.324 353.104 123.324 351.064C123.324 349.048 123.768 347.26 124.656 345.7C125.544 344.14 126.756 342.94 128.292 342.1C129.828 341.26 131.544 340.84 133.44 340.84C135.336 340.84 137.052 341.26 138.588 342.1C140.124 342.94 141.336 344.14 142.224 345.7C143.112 347.26 143.556 349.048 143.556 351.064C143.556 353.08 143.1 354.868 142.188 356.428C141.276 357.988 140.028 359.2 138.444 360.064C136.884 360.904 135.156 361.324 133.26 361.324ZM133.26 357.76C134.316 357.76 135.3 357.508 136.212 357.004C137.148 356.5 137.904 355.744 138.48 354.736C139.056 353.728 139.344 352.504 139.344 351.064C139.344 349.624 139.068 348.412 138.516 347.428C137.964 346.42 137.232 345.664 136.32 345.16C135.408 344.656 134.424 344.404 133.368 344.404C132.312 344.404 131.328 344.656 130.416 345.16C129.528 345.664 128.82 346.42 128.292 347.428C127.764 348.412 127.5 349.624 127.5 351.064C127.5 353.2 128.04 354.856 129.12 356.032C130.224 357.184 131.604 357.76 133.26 357.76Z" fill="#F8464C"/>
<path d="M157.621 340.84C159.181 340.84 160.573 341.164 161.797 341.812C163.045 342.46 164.017 343.42 164.713 344.692C165.409 345.964 165.757 347.5 165.757 349.3V361H161.689V349.912C161.689 348.136 161.245 346.78 160.357 345.844C159.469 344.884 158.257 344.404 156.721 344.404C155.185 344.404 153.961 344.884 153.049 345.844C152.161 346.78 151.717 348.136 151.717 349.912V361H147.613V341.164H151.717V343.432C152.389 342.616 153.241 341.98 154.273 341.524C155.329 341.068 156.445 340.84 157.621 340.84Z" fill="#F8464C"/>
<path d="M185.132 344.512V355.492C185.132 356.236 185.3 356.776 185.636 357.112C185.996 357.424 186.596 357.58 187.436 357.58H189.956V361H186.716C184.868 361 183.452 360.568 182.468 359.704C181.484 358.84 180.992 357.436 180.992 355.492V344.512H178.652V341.164H180.992V336.232H185.132V341.164H189.956V344.512H185.132Z" fill="#F8464C"/>
<path d="M203.998 340.84C205.51 340.84 206.854 341.164 208.03 341.812C209.23 342.46 210.166 343.42 210.838 344.692C211.534 345.964 211.882 347.5 211.882 349.3V361H207.814V349.912C207.814 348.136 207.37 346.78 206.482 345.844C205.594 344.884 204.382 344.404 202.846 344.404C201.31 344.404 200.086 344.884 199.174 345.844C198.286 346.78 197.842 348.136 197.842 349.912V361H193.738V334.36H197.842V343.468C198.538 342.628 199.414 341.98 200.47 341.524C201.55 341.068 202.726 340.84 203.998 340.84Z" fill="#F8464C"/>
<path d="M235.297 350.596C235.297 351.34 235.249 352.012 235.153 352.612H219.997C220.117 354.196 220.705 355.468 221.761 356.428C222.817 357.388 224.113 357.868 225.649 357.868C227.857 357.868 229.417 356.944 230.329 355.096H234.757C234.157 356.92 233.065 358.42 231.481 359.596C229.921 360.748 227.977 361.324 225.649 361.324C223.753 361.324 222.049 360.904 220.537 360.064C219.049 359.2 217.873 358 217.009 356.464C216.169 354.904 215.749 353.104 215.749 351.064C215.749 349.024 216.157 347.236 216.973 345.7C217.813 344.14 218.977 342.94 220.465 342.1C221.977 341.26 223.705 340.84 225.649 340.84C227.521 340.84 229.189 341.248 230.653 342.064C232.117 342.88 233.257 344.032 234.073 345.52C234.889 346.984 235.297 348.676 235.297 350.596ZM231.013 349.3C230.989 347.788 230.449 346.576 229.393 345.664C228.337 344.752 227.029 344.296 225.469 344.296C224.053 344.296 222.841 344.752 221.833 345.664C220.825 346.552 220.225 347.764 220.033 349.3H231.013Z" fill="#F8464C"/>
<path d="M256.68 340.84C258.215 340.84 259.572 341.152 260.747 341.776C261.947 342.376 262.884 343.132 263.556 344.044V341.164H267.696V361.324C267.696 363.148 267.312 364.768 266.544 366.184C265.775 367.624 264.66 368.752 263.196 369.568C261.756 370.384 260.028 370.792 258.012 370.792C255.324 370.792 253.092 370.156 251.316 368.884C249.54 367.636 248.532 365.932 248.292 363.772H252.359C252.671 364.804 253.332 365.632 254.34 366.256C255.372 366.904 256.596 367.228 258.012 367.228C259.668 367.228 261 366.724 262.008 365.716C263.04 364.708 263.556 363.244 263.556 361.324V358.012C262.86 358.948 261.911 359.74 260.712 360.388C259.536 361.012 258.191 361.324 256.68 361.324C254.952 361.324 253.368 360.892 251.928 360.028C250.512 359.14 249.383 357.916 248.544 356.356C247.728 354.772 247.32 352.984 247.32 350.992C247.32 349 247.728 347.236 248.544 345.7C249.383 344.164 250.512 342.976 251.928 342.136C253.368 341.272 254.952 340.84 256.68 340.84ZM263.556 351.064C263.556 349.696 263.268 348.508 262.691 347.5C262.139 346.492 261.408 345.724 260.495 345.196C259.583 344.668 258.6 344.404 257.544 344.404C256.488 344.404 255.504 344.668 254.592 345.196C253.68 345.7 252.936 346.456 252.359 347.464C251.807 348.448 251.532 349.624 251.532 350.992C251.532 352.36 251.807 353.56 252.359 354.592C252.936 355.624 253.68 356.416 254.592 356.968C255.528 357.496 256.512 357.76 257.544 357.76C258.6 357.76 259.583 357.496 260.495 356.968C261.408 356.44 262.139 355.672 262.691 354.664C263.268 353.632 263.556 352.432 263.556 351.064Z" fill="#F8464C"/>
<path d="M281.69 361.324C279.818 361.324 278.126 360.904 276.614 360.064C275.102 359.2 273.914 358 273.05 356.464C272.186 354.904 271.754 353.104 271.754 351.064C271.754 349.048 272.198 347.26 273.086 345.7C273.974 344.14 275.186 342.94 276.722 342.1C278.258 341.26 279.974 340.84 281.87 340.84C283.766 340.84 285.482 341.26 287.018 342.1C288.554 342.94 289.766 344.14 290.654 345.7C291.542 347.26 291.986 349.048 291.986 351.064C291.986 353.08 291.53 354.868 290.618 356.428C289.706 357.988 288.458 359.2 286.874 360.064C285.314 360.904 283.586 361.324 281.69 361.324ZM281.69 357.76C282.746 357.76 283.73 357.508 284.642 357.004C285.578 356.5 286.334 355.744 286.91 354.736C287.486 353.728 287.774 352.504 287.774 351.064C287.774 349.624 287.498 348.412 286.946 347.428C286.394 346.42 285.662 345.664 284.75 345.16C283.838 344.656 282.854 344.404 281.798 344.404C280.742 344.404 279.758 344.656 278.846 345.16C277.958 345.664 277.25 346.42 276.722 347.428C276.194 348.412 275.93 349.624 275.93 351.064C275.93 353.2 276.47 354.856 277.55 356.032C278.654 357.184 280.034 357.76 281.69 357.76Z" fill="#F8464C"/>
<path d="M151.538 228.486L11.3568 145.344C6.89517 142.823 3.06537 138.698 7.41777 136.005L148.106 54.5924C150.22 53.2772 153.426 52.4161 155.571 53.6686L302.726 139.402C307.187 142.001 307.991 149.265 303.506 151.872L170.04 228.376C167.232 230.009 164.049 230.878 160.804 230.897C157.559 230.916 154.365 230.085 151.538 228.486Z" fill="#007F68"/>
<path d="M111.415 133.155C111.415 133.155 112 134.572 109.894 135.731C107.788 136.889 71.9472 161.837 71.9472 161.837L63.063 156.687L106.603 132.192L111.415 133.155Z" fill="url(#paint0_linear_798_35)"/>
<path d="M173.683 121.632C173.683 121.632 174.026 131.128 170.882 133.922C167.739 136.717 106.969 179.466 106.969 179.466L88.14 168.1L173.683 121.632Z" fill="url(#paint1_linear_798_35)"/>
<path d="M212.761 181.408L168.722 219.922C168.823 221.174 139.331 202.105 139.331 202.105L194.711 174.707" fill="url(#paint2_linear_798_35)"/>
<path d="M168.854 5.77631C157.482 12.5398 129.332 29.2606 120.916 34.1688C120.197 34.5853 119.601 35.1861 119.19 35.9097C118.779 36.6332 118.567 37.4535 118.576 38.2864V154.268C118.404 156.616 121.072 158.824 123.256 157.579L170.563 130.525C172.466 129.429 173.683 127.887 173.683 125.687V8.53963C173.683 7.97299 173.534 7.41635 173.25 6.92628C172.967 6.43622 172.559 6.0302 172.069 5.74949C171.578 5.46879 171.023 5.3234 170.458 5.32811C169.893 5.33282 169.34 5.48746 168.854 5.77631Z" fill="#F8464C"/>
<path d="M173.371 7.14625L158.34 15.8746V19.0998C158.337 19.3717 158.263 19.6381 158.127 19.8728C157.99 20.1075 157.795 20.3024 157.56 20.4384L146.016 27.1236C145.861 27.2232 145.681 27.2785 145.497 27.2835C145.313 27.2886 145.131 27.2432 144.971 27.1523C144.81 27.0613 144.678 26.9283 144.587 26.7674C144.496 26.6065 144.451 26.4238 144.456 26.239V23.8906L122.858 36.5877C122.651 36.7094 122.48 36.8832 122.361 37.092C122.241 37.3007 122.179 37.5371 122.179 37.7776V153.704C122.184 153.866 122.231 154.024 122.316 154.163C122.4 154.302 122.519 154.416 122.66 154.495C122.802 154.574 122.961 154.614 123.123 154.613C123.284 154.612 123.443 154.568 123.583 154.487L173.683 125.343C173.767 126.242 173.606 127.148 173.217 127.963C172.828 128.778 172.226 129.471 171.475 129.969C168.878 131.629 123.24 157.548 123.24 157.548C123.24 157.548 119.629 159.184 118.56 154.863V38.2238C118.558 37.4698 118.735 36.7261 119.075 36.0539C119.416 35.3816 119.91 34.8 120.518 34.3567C122.608 32.8303 168.839 5.7137 168.839 5.7137C169.227 5.4963 169.656 5.36078 170.098 5.31543C170.541 5.27008 170.988 5.31587 171.412 5.44998C171.836 5.58409 172.229 5.80371 172.566 6.09538C172.902 6.38705 173.176 6.74464 173.371 7.14625Z" fill="#124577"/>
<path d="M146.796 57.5748C149.354 54.9368 152.116 53.5434 154.697 53.5434C155.185 53.5423 155.671 53.5921 156.148 53.6921C158.141 54.1796 159.884 55.3862 161.047 57.0817C162.183 55.4895 163.415 53.968 164.736 52.5257C162.818 50.2702 160.219 48.7037 157.334 48.0637C152.357 47.0069 147.155 48.9561 142.685 53.5434C141.356 54.9216 140.167 56.4295 139.136 58.0445C140.774 59.0387 142.366 60.0955 143.957 61.1758C144.782 59.8841 145.733 58.6779 146.796 57.5748Z" fill="#56403D"/>
<path d="M146.819 98.1401C144.082 97.3181 141.812 94.7818 140.384 90.9304C138.7 86.3744 138.442 80.6756 139.659 74.8906C140.357 71.4756 141.592 68.1938 143.317 65.1681C141.757 64.1113 140.127 63.0467 138.489 62.0369C136.387 65.6517 134.885 69.5859 134.043 73.6851C132.6 80.5268 132.943 87.353 135.002 92.9187C137.062 98.4845 140.548 102.156 144.947 103.557C145.525 101.749 146.125 99.9249 146.819 98.1401Z" fill="#FFA197"/>
<path d="M168.48 61.9899C167.762 60.0047 166.755 58.137 165.493 56.4476C164.148 57.9336 162.898 59.5023 161.749 61.1445C162.298 62.0464 162.763 62.9977 163.137 63.9861C164.822 68.542 165.079 74.2409 163.862 80.0259C162.646 85.8108 160.111 90.9148 156.725 94.3983C153.91 97.3025 150.852 98.6959 148.044 98.3828C147.326 100.191 146.718 102.039 146.141 103.862H146.18C147.057 104.049 147.951 104.144 148.847 104.144C152.981 104.144 157.154 102.156 160.828 98.375C164.962 94.1243 168.028 88.0184 169.471 81.1531C170.914 74.2879 170.578 67.5557 168.48 61.9899Z" fill="#F2F2F2"/>
<path d="M158.367 80.0663C158.764 76.4914 157.492 73.4154 155.527 73.1959C153.562 72.9764 151.647 75.6966 151.251 79.2715C150.855 82.8465 152.126 85.9225 154.091 86.142C156.057 86.3615 157.971 83.6413 158.367 80.0663Z" fill="#F2F2F2"/>
<path d="M169.198 107.456L136.126 125.993C135.884 126.152 135.711 126.398 135.642 126.681C135.573 126.963 135.613 127.261 135.755 127.515C135.896 127.769 136.128 127.96 136.404 128.049C136.679 128.138 136.978 128.12 137.241 127.997L170.313 109.46C170.555 109.3 170.728 109.054 170.797 108.771C170.866 108.489 170.825 108.191 170.684 107.937C170.543 107.683 170.311 107.492 170.035 107.403C169.759 107.314 169.46 107.332 169.198 107.456Z" fill="#F2F2F2"/>
<path d="M168.667 103.127L135.595 121.664C135.353 121.823 135.18 122.069 135.111 122.352C135.043 122.634 135.083 122.932 135.224 123.186C135.366 123.44 135.597 123.631 135.873 123.72C136.149 123.809 136.448 123.791 136.711 123.668L169.783 105.131C170.025 104.971 170.198 104.725 170.266 104.443C170.335 104.16 170.295 103.862 170.154 103.608C170.012 103.354 169.78 103.163 169.505 103.074C169.229 102.985 168.93 103.004 168.667 103.127Z" fill="#F2F2F2"/>
<path d="M85.9483 148.921L109.894 135.731C110.354 135.477 110.738 135.104 111.005 134.651C111.273 134.199 111.414 133.682 111.415 133.155V89.1065C111.414 88.5914 111.277 88.0857 111.02 87.64C110.763 87.1943 110.393 86.8243 109.949 86.5667C109.504 86.3092 109 86.1733 108.487 86.1725C107.974 86.1717 107.469 86.3061 107.024 86.5623L83.0779 100.434C82.6327 100.692 82.263 101.062 82.0056 101.509C81.7482 101.955 81.6123 102.462 81.6115 102.978V146.346C81.613 146.855 81.7464 147.356 81.9987 147.799C82.251 148.241 82.6135 148.61 83.0507 148.87C83.4879 149.13 83.9848 149.271 84.4928 149.28C85.0007 149.289 85.5022 149.165 85.9483 148.921Z" fill="#FDD400"/>
<path d="M87.399 118.243V128.787C87.399 131.848 92.1414 131.856 92.1414 128.787V118.243C92.1414 115.174 87.399 115.174 87.399 118.243Z" fill="#56403D"/>
<path d="M93.8496 107.416V124.435C93.8496 127.495 98.592 127.503 98.592 124.435V107.416C98.592 104.356 93.8496 104.348 93.8496 107.416Z" fill="#FFA197"/>
<path d="M101.486 95.0872V121.21C101.486 124.27 106.228 124.278 106.228 121.21V95.0872C106.236 92.0264 101.486 92.0185 101.486 95.0872Z" fill="#F2F2F2"/>
<path d="M95.589 131.738L89.7234 134.87C88.8888 135.308 89.6298 136.576 90.4566 136.138L96.3222 133.007C97.1568 132.568 96.4236 131.308 95.589 131.738Z" fill="#F2F2F2"/>
<path d="M105.869 130.963C100.415 133.901 94.9052 136.727 89.3412 139.441C88.4988 139.856 89.232 141.116 90.0744 140.709C95.6384 137.99 101.148 135.164 106.603 132.231C107.429 131.785 106.696 130.525 105.869 130.963Z" fill="#F2F2F2"/>
<path d="M102.18 80.6913L127.429 66.7807C127.912 66.5115 128.316 66.1181 128.598 65.6408C128.881 65.1635 129.032 64.6194 129.035 64.0644V17.6046C129.026 17.064 128.878 16.5351 128.605 16.0692C128.331 15.6033 127.943 15.2163 127.476 14.946C127.01 14.6756 126.481 14.5311 125.943 14.5265C125.404 14.5218 124.873 14.6573 124.402 14.9195L99.1458 29.5424C98.6754 29.815 98.284 30.2061 98.0104 30.677C97.7368 31.1479 97.5905 31.6824 97.5858 32.2275V77.9671C97.5919 78.5054 97.7361 79.033 98.0046 79.499C98.2731 79.9651 98.6567 80.3538 99.1185 80.6276C99.5803 80.9014 100.105 81.0511 100.641 81.0623C101.177 81.0734 101.707 80.9457 102.18 80.6913Z" fill="#FFA197"/>
<path d="M103.74 48.3298V59.4536C103.74 62.6866 108.74 62.6866 108.74 59.4536V48.3298C108.716 45.0968 103.74 45.0968 103.74 48.3298Z" fill="#56403D"/>
<path d="M110.51 36.9243V54.8663C110.51 58.0994 115.51 58.0994 115.51 54.8663V36.9243C115.51 33.6913 110.51 33.6835 110.51 36.9243Z" fill="#F8464C"/>
<path d="M118.56 23.914V51.4611C118.56 54.6941 123.56 54.6941 123.56 51.4611V23.914C123.575 20.6888 118.56 20.681 118.56 23.914Z" fill="#F2F2F2"/>
<path d="M112.32 62.5692L106.135 65.8335C105.261 66.2954 106.033 67.6262 106.915 67.1643L113.1 63.9C114.005 63.4381 113.225 62.1074 112.32 62.5692Z" fill="#F2F2F2"/>
<path d="M123.185 61.7551C117.434 64.8498 111.623 67.8323 105.752 70.7026C104.863 71.141 105.643 72.4717 106.532 72.0334C112.403 69.1683 118.214 66.1858 123.965 63.0858C124.8 62.6161 124.059 61.2854 123.185 61.7551Z" fill="#F2F2F2"/>
<path d="M210.6 163.967C211.013 164.953 212.862 178.66 212.745 181.345C212.628 184.03 208.58 184.288 207.34 184.187C206.099 184.085 203.666 182.95 202.121 182.895C200.577 182.84 192.044 181.22 192.286 178.981C192.527 176.742 194.009 174.527 195.928 174.409C197.847 174.292 203.057 174.629 203.057 174.629L202.535 162.205" fill="#FF6753"/>
<path d="M208.829 99.2595C210.083 105.426 210.85 111.681 211.123 117.969C211.255 124.458 213.236 172.812 213.236 172.812C213.236 172.812 209.5 175.075 199.134 172.03C197.629 171.591 196.225 127.104 196.225 127.104L197.558 105.342" fill="#F8464C"/>
<path d="M194.743 174.699C195.938 176.029 197.392 177.099 199.015 177.844C200.638 178.588 202.396 178.991 204.181 179.028C206.118 179.007 208.05 178.811 209.953 178.441C210.866 178.338 211.75 178.05 212.55 177.595C212.69 178.856 212.76 180.124 212.761 181.392C212.62 184.077 208.58 184.304 207.301 184.194C206.021 184.085 203.635 182.934 202.098 182.864C200.561 182.793 192.036 181.118 192.293 178.856C192.365 178.023 192.622 177.217 193.046 176.497C193.47 175.778 194.05 175.163 194.743 174.699Z" fill="#42210B"/>
<path d="M174.275 70.2486C174.275 70.2486 172.38 67.4461 172.38 66.0684C172.38 64.6906 174.049 66.4989 174.049 66.4989L173.831 63.0311C173.831 63.0311 175.118 65.0507 175.773 65.9979C176.428 66.9451 178.519 71.4306 178.893 72.2604C179.267 73.0902 182.645 75.2273 182.645 75.2273C182.645 75.2273 181.67 78.4133 180.64 78.6325C179.611 78.8517 174.548 74.2722 174.548 74.2722L174.275 70.2486Z" fill="#F04900"/>
<path d="M180.617 71.4463C180.617 71.4463 176.849 74.7967 177.497 78.6012C177.497 78.6012 182.239 88.0575 187.364 89.6153C192.488 91.1731 195.413 81.0435 194.009 79.5562C192.605 78.0689 180.617 71.4463 180.617 71.4463Z" fill="#F7944B"/>
<path d="M168.722 81.2549C168.722 81.2549 166.967 79.6345 167.271 79.1413C167.575 78.6481 168.355 74.1078 167.981 73.1998C167.318 71.5794 165.641 75.1803 165.641 75.1803L165.165 68.8474C165.165 68.8474 163.324 70.8513 163.41 71.9786C163.496 73.1058 163.316 80.6913 163.41 81.2549C163.504 81.8185 165.079 85.9048 165.079 85.9048" fill="#F04900"/>
<path d="M189.493 179.701C189.86 180.703 191.014 194.488 190.757 197.166C190.499 199.843 186.451 199.89 185.219 199.725C183.986 199.561 181.615 198.301 180.079 198.16C178.542 198.019 170.102 195.976 170.453 193.721C170.804 191.467 172.396 189.361 174.353 189.345C176.311 189.33 181.459 189.925 181.459 189.925L181.568 177.494" fill="#FF6753"/>
<path d="M189.228 104.105C184.887 116.856 181.855 130.018 180.18 143.387C179.533 148.647 177.731 184.202 177.731 184.202C177.731 184.202 184.306 188.75 192.254 186.183C192.254 186.183 198.214 142.831 198.424 141.978C201.482 129.672 201.755 122.024 202.488 103.416" fill="#F8464C"/>
<path d="M188.44 90.6016C188.089 85.4585 186.233 82.7735 187.411 77.7635C191.1 73.732 198.058 68.863 198.799 68.6829L202.699 69.5988C204.348 69.9827 205.824 70.9049 206.895 72.2209C207.967 73.5369 208.573 75.1724 208.619 76.8711C208.829 84.848 209.126 98.1714 208.806 99.236C208.486 100.301 200.694 107.001 189.205 104.082C188.9 99.6118 188.76 95.1028 188.44 90.6016Z" fill="#FDD400"/>
<path d="M190.492 58.0132C190.492 58.0132 188.869 69.9746 193.284 70.9844C197.699 71.9942 202.504 66.7494 202.73 64.2992C202.956 61.849 196.342 53.7 190.492 58.0132Z" fill="#F04900"/>
<path d="M188.175 60.573C188.002 60.5603 187.834 60.5114 187.681 60.4294C187.528 60.3474 187.394 60.2341 187.287 60.0969C187.181 59.9597 187.104 59.8017 187.062 59.6329C187.02 59.4641 187.014 59.2884 187.044 59.117C187.496 56.6355 189.189 51.6099 195.476 51.4924C200.281 51.4063 203.276 53.5434 204.719 56.7764L204.805 56.9643L205.163 58.0132C205.613 59.5728 205.761 61.2043 205.6 62.8197C205.397 67.3678 201.973 69.9198 197.621 70.4443C197.621 70.4443 199.399 63.7278 196.505 64.8002C193.612 65.8727 191.178 65.5282 192.091 60.8862L188.175 60.573Z" fill="#844308"/>
<path d="M200.031 57.3948L199.61 57.8567C199.61 57.8567 199.602 57.5984 200.031 57.3948Z" fill="#844308"/>
<path d="M201.614 55.6491C202.465 55.3908 212.285 51.6881 215.132 56.432C217.979 61.1758 215.514 68.3855 218.977 69.3562C222.44 70.3268 232.432 69.7789 233.353 74.2566C234.25 78.5933 229.726 81.1061 230.794 83.0945C233.516 84.8167 235.669 87.0946 234.445 90.5782C233.734 92.3923 232.416 93.9011 230.716 94.8445C226.598 97.2868 221.005 95.4081 217.612 92.496C214.64 89.9676 214.906 87.0164 216.052 83.5798C216.941 80.9809 218.478 77.8183 215.584 75.9161C211.279 73.0823 206.279 76.3232 204.82 73.0823C203.362 69.8415 209.664 58.5769 204.586 57.5749C201.778 57.0191 200.561 57.1756 200.023 57.4183L201.614 55.6491Z" fill="#844308"/>
<path d="M164.494 85.6386C164.809 84.6009 165.352 83.6476 166.084 82.8494C166.816 82.0512 167.718 81.4287 168.722 81.0279C172.45 84.574 177.021 88.4254 178.519 87.8227C180.718 86.9381 185.11 76.652 191.35 76.1353C197.59 75.6187 197.418 84.2844 197.418 84.2844C197.418 84.2844 186.498 101.154 180.617 101.444C175.859 101.678 167.209 93.2945 163.816 89.2474C163.912 88.0234 164.139 86.8135 164.494 85.6386Z" fill="#FDD400"/>
<path d="M170.446 193.729C170.549 192.951 170.81 192.202 171.212 191.529C171.615 190.856 172.15 190.273 172.786 189.815C174.253 191.942 176.449 193.452 178.955 194.058C182.875 194.924 186.961 194.608 190.702 193.15C190.795 194.492 190.813 195.837 190.757 197.181C190.499 199.859 186.451 199.905 185.219 199.741C183.986 199.577 181.615 198.316 180.079 198.175C178.542 198.035 170.095 195.984 170.446 193.729Z" fill="#42210B"/>
<defs>
<linearGradient id="paint0_linear_798_35" x1="71.4558" y1="156.765" x2="88.9923" y2="144.581" gradientUnits="userSpaceOnUse">
<stop stop-color="#007F68"/>
<stop offset="1" stop-color="#00674C"/>
</linearGradient>
<linearGradient id="paint1_linear_798_35" x1="10462.4" y1="13147" x2="16456.8" y2="6606.98" gradientUnits="userSpaceOnUse">
<stop stop-color="#007F68"/>
<stop offset="1" stop-color="#00674C"/>
</linearGradient>
<linearGradient id="paint2_linear_798_35" x1="14143" y1="12571.7" x2="17576.4" y2="8465.53" gradientUnits="userSpaceOnUse">
<stop stop-color="#007F68"/>
<stop offset="1" stop-color="#00674C"/>
</linearGradient>
</defs>
</svg>
