<svg width="288" height="361" viewBox="0 0 288 361" fill="none" xmlns="http://www.w3.org/2000/svg">
<path d="M33.736 282.272V299H31.552V291.416H23.032V299H20.848V282.272H23.032V289.616H31.552V282.272H33.736ZM43.2012 299.216C41.9692 299.216 40.8492 298.936 39.8412 298.376C38.8492 297.816 38.0652 297.024 37.4892 296C36.9292 294.96 36.6492 293.76 36.6492 292.4C36.6492 291.056 36.9372 289.872 37.5132 288.848C38.1052 287.808 38.9052 287.016 39.9132 286.472C40.9212 285.912 42.0492 285.632 43.2972 285.632C44.5452 285.632 45.6732 285.912 46.6812 286.472C47.6892 287.016 48.4812 287.8 49.0572 288.824C49.6492 289.848 49.9452 291.04 49.9452 292.4C49.9452 293.76 49.6412 294.96 49.0332 296C48.4412 297.024 47.6332 297.816 46.6092 298.376C45.5852 298.936 44.4492 299.216 43.2012 299.216ZM43.2012 297.296C43.9852 297.296 44.7212 297.112 45.4092 296.744C46.0972 296.376 46.6492 295.824 47.0652 295.088C47.4972 294.352 47.7132 293.456 47.7132 292.4C47.7132 291.344 47.5052 290.448 47.0892 289.712C46.6732 288.976 46.1292 288.432 45.4572 288.08C44.7852 287.712 44.0572 287.528 43.2732 287.528C42.4732 287.528 41.7372 287.712 41.0652 288.08C40.4092 288.432 39.8812 288.976 39.4812 289.712C39.0812 290.448 38.8812 291.344 38.8812 292.4C38.8812 293.472 39.0732 294.376 39.4572 295.112C39.8572 295.848 40.3852 296.4 41.0412 296.768C41.6972 297.12 42.4172 297.296 43.2012 297.296ZM59.2248 285.608C60.8248 285.608 62.1208 286.096 63.1128 287.072C64.1048 288.032 64.6008 289.424 64.6008 291.248V299H62.4408V291.56C62.4408 290.248 62.1128 289.248 61.4568 288.56C60.8008 287.856 59.9048 287.504 58.7688 287.504C57.6168 287.504 56.6968 287.864 56.0088 288.584C55.3368 289.304 55.0008 290.352 55.0008 291.728V299H52.8168V285.848H55.0008V287.72C55.4328 287.048 56.0168 286.528 56.7528 286.16C57.5048 285.792 58.3288 285.608 59.2248 285.608ZM80.1683 291.92C80.1683 292.336 80.1443 292.776 80.0963 293.24H69.5843C69.6643 294.536 70.1043 295.552 70.9043 296.288C71.7203 297.008 72.7043 297.368 73.8563 297.368C74.8003 297.368 75.5843 297.152 76.2083 296.72C76.8483 296.272 77.2963 295.68 77.5523 294.944H79.9043C79.5523 296.208 78.8483 297.24 77.7923 298.04C76.7363 298.824 75.4243 299.216 73.8563 299.216C72.6083 299.216 71.4883 298.936 70.4963 298.376C69.5203 297.816 68.7523 297.024 68.1923 296C67.6323 294.96 67.3523 293.76 67.3523 292.4C67.3523 291.04 67.6243 289.848 68.1683 288.824C68.7123 287.8 69.4723 287.016 70.4483 286.472C71.4403 285.912 72.5763 285.632 73.8563 285.632C75.1043 285.632 76.2083 285.904 77.1683 286.448C78.1283 286.992 78.8643 287.744 79.3763 288.704C79.9043 289.648 80.1683 290.72 80.1683 291.92ZM77.9123 291.464C77.9123 290.632 77.7283 289.92 77.3603 289.328C76.9923 288.72 76.4883 288.264 75.8483 287.96C75.2243 287.64 74.5283 287.48 73.7603 287.48C72.6563 287.48 71.7123 287.832 70.9283 288.536C70.1603 289.24 69.7203 290.216 69.6083 291.464H77.9123ZM90.5776 283.712C90.1616 283.712 89.8096 283.568 89.5216 283.28C89.2336 282.992 89.0896 282.64 89.0896 282.224C89.0896 281.808 89.2336 281.456 89.5216 281.168C89.8096 280.88 90.1616 280.736 90.5776 280.736C90.9776 280.736 91.3136 280.88 91.5856 281.168C91.8736 281.456 92.0176 281.808 92.0176 282.224C92.0176 282.64 91.8736 282.992 91.5856 283.28C91.3136 283.568 90.9776 283.712 90.5776 283.712ZM91.6336 285.848V299H89.4496V285.848H91.6336ZM101.764 285.608C103.364 285.608 104.66 286.096 105.652 287.072C106.644 288.032 107.14 289.424 107.14 291.248V299H104.98V291.56C104.98 290.248 104.652 289.248 103.996 288.56C103.34 287.856 102.444 287.504 101.308 287.504C100.156 287.504 99.2358 287.864 98.5478 288.584C97.8758 289.304 97.5398 290.352 97.5398 291.728V299H95.3558V285.848H97.5398V287.72C97.9718 287.048 98.5558 286.528 99.2918 286.16C100.044 285.792 100.868 285.608 101.764 285.608ZM128.434 285.848L120.514 305.192H118.258L120.85 298.856L115.546 285.848H117.97L122.098 296.504L126.178 285.848H128.434ZM136.365 299.216C135.133 299.216 134.013 298.936 133.005 298.376C132.013 297.816 131.229 297.024 130.653 296C130.093 294.96 129.813 293.76 129.813 292.4C129.813 291.056 130.101 289.872 130.677 288.848C131.269 287.808 132.069 287.016 133.077 286.472C134.085 285.912 135.213 285.632 136.461 285.632C137.709 285.632 138.837 285.912 139.845 286.472C140.853 287.016 141.645 287.8 142.221 288.824C142.813 289.848 143.109 291.04 143.109 292.4C143.109 293.76 142.805 294.96 142.197 296C141.605 297.024 140.797 297.816 139.773 298.376C138.749 298.936 137.613 299.216 136.365 299.216ZM136.365 297.296C137.149 297.296 137.885 297.112 138.573 296.744C139.261 296.376 139.813 295.824 140.229 295.088C140.661 294.352 140.877 293.456 140.877 292.4C140.877 291.344 140.669 290.448 140.253 289.712C139.837 288.976 139.293 288.432 138.621 288.08C137.949 287.712 137.221 287.528 136.437 287.528C135.637 287.528 134.901 287.712 134.229 288.08C133.573 288.432 133.045 288.976 132.645 289.712C132.245 290.448 132.045 291.344 132.045 292.4C132.045 293.472 132.237 294.376 132.621 295.112C133.021 295.848 133.549 296.4 134.205 296.768C134.861 297.12 135.581 297.296 136.365 297.296ZM157.645 285.848V299H155.461V297.056C155.045 297.728 154.461 298.256 153.709 298.64C152.973 299.008 152.157 299.192 151.261 299.192C150.237 299.192 149.317 298.984 148.501 298.568C147.685 298.136 147.037 297.496 146.557 296.648C146.093 295.8 145.861 294.768 145.861 293.552V285.848H148.021V293.264C148.021 294.56 148.349 295.56 149.005 296.264C149.661 296.952 150.557 297.296 151.693 297.296C152.861 297.296 153.781 296.936 154.453 296.216C155.125 295.496 155.461 294.448 155.461 293.072V285.848H157.645ZM163.516 287.984C163.9 287.232 164.444 286.648 165.148 286.232C165.868 285.816 166.74 285.608 167.764 285.608V287.864H167.188C164.74 287.864 163.516 289.192 163.516 291.848V299H161.332V285.848H163.516V287.984ZM181.34 299.216C180.332 299.216 179.428 299.048 178.628 298.712C177.828 298.36 177.196 297.88 176.732 297.272C176.268 296.648 176.012 295.936 175.964 295.136H178.22C178.284 295.792 178.588 296.328 179.132 296.744C179.692 297.16 180.42 297.368 181.316 297.368C182.148 297.368 182.804 297.184 183.284 296.816C183.764 296.448 184.004 295.984 184.004 295.424C184.004 294.848 183.748 294.424 183.236 294.152C182.724 293.864 181.932 293.584 180.86 293.312C179.884 293.056 179.084 292.8 178.46 292.544C177.852 292.272 177.324 291.88 176.876 291.368C176.444 290.84 176.228 290.152 176.228 289.304C176.228 288.632 176.428 288.016 176.828 287.456C177.228 286.896 177.796 286.456 178.532 286.136C179.268 285.8 180.108 285.632 181.052 285.632C182.508 285.632 183.684 286 184.58 286.736C185.476 287.472 185.956 288.48 186.02 289.76H183.836C183.788 289.072 183.508 288.52 182.996 288.104C182.5 287.688 181.828 287.48 180.98 287.48C180.196 287.48 179.572 287.648 179.108 287.984C178.644 288.32 178.412 288.76 178.412 289.304C178.412 289.736 178.548 290.096 178.82 290.384C179.108 290.656 179.46 290.88 179.876 291.056C180.308 291.216 180.9 291.4 181.652 291.608C182.596 291.864 183.364 292.12 183.956 292.376C184.548 292.616 185.052 292.984 185.468 293.48C185.9 293.976 186.124 294.624 186.14 295.424C186.14 296.144 185.94 296.792 185.54 297.368C185.14 297.944 184.572 298.4 183.836 298.736C183.116 299.056 182.284 299.216 181.34 299.216ZM196.567 299L191.407 293.192V299H189.223V281.24H191.407V291.68L196.471 285.848H199.519L193.327 292.4L199.543 299H196.567ZM202.703 283.712C202.287 283.712 201.935 283.568 201.647 283.28C201.359 282.992 201.215 282.64 201.215 282.224C201.215 281.808 201.359 281.456 201.647 281.168C201.935 280.88 202.287 280.736 202.703 280.736C203.103 280.736 203.439 280.88 203.711 281.168C203.999 281.456 204.143 281.808 204.143 282.224C204.143 282.64 203.999 282.992 203.711 283.28C203.439 283.568 203.103 283.712 202.703 283.712ZM203.759 285.848V299H201.575V285.848H203.759ZM209.665 281.24V299H207.481V281.24H209.665ZM215.571 281.24V299H213.387V281.24H215.571ZM223.949 299.216C222.941 299.216 222.037 299.048 221.237 298.712C220.437 298.36 219.805 297.88 219.341 297.272C218.877 296.648 218.621 295.936 218.573 295.136H220.829C220.893 295.792 221.197 296.328 221.741 296.744C222.301 297.16 223.029 297.368 223.925 297.368C224.757 297.368 225.413 297.184 225.893 296.816C226.373 296.448 226.613 295.984 226.613 295.424C226.613 294.848 226.357 294.424 225.845 294.152C225.333 293.864 224.541 293.584 223.469 293.312C222.493 293.056 221.693 292.8 221.069 292.544C220.461 292.272 219.933 291.88 219.485 291.368C219.053 290.84 218.837 290.152 218.837 289.304C218.837 288.632 219.037 288.016 219.437 287.456C219.837 286.896 220.405 286.456 221.141 286.136C221.877 285.8 222.717 285.632 223.661 285.632C225.117 285.632 226.293 286 227.189 286.736C228.085 287.472 228.565 288.48 228.629 289.76H226.445C226.397 289.072 226.117 288.52 225.605 288.104C225.109 287.688 224.437 287.48 223.589 287.48C222.805 287.48 222.181 287.648 221.717 287.984C221.253 288.32 221.021 288.76 221.021 289.304C221.021 289.736 221.157 290.096 221.429 290.384C221.717 290.656 222.069 290.88 222.485 291.056C222.917 291.216 223.509 291.4 224.261 291.608C225.205 291.864 225.973 292.12 226.565 292.376C227.157 292.616 227.661 292.984 228.077 293.48C228.509 293.976 228.733 294.624 228.749 295.424C228.749 296.144 228.549 296.792 228.149 297.368C227.749 297.944 227.181 298.4 226.445 298.736C225.725 299.056 224.893 299.216 223.949 299.216ZM240.415 288.296C240.863 287.512 241.519 286.872 242.383 286.376C243.247 285.88 244.231 285.632 245.335 285.632C246.519 285.632 247.583 285.912 248.527 286.472C249.471 287.032 250.215 287.824 250.759 288.848C251.303 289.856 251.575 291.032 251.575 292.376C251.575 293.704 251.303 294.888 250.759 295.928C250.215 296.968 249.463 297.776 248.503 298.352C247.559 298.928 246.503 299.216 245.335 299.216C244.199 299.216 243.199 298.968 242.335 298.472C241.487 297.976 240.847 297.344 240.415 296.576V299H238.231V281.24H240.415V288.296ZM249.343 292.376C249.343 291.384 249.143 290.52 248.743 289.784C248.343 289.048 247.799 288.488 247.111 288.104C246.439 287.72 245.695 287.528 244.879 287.528C244.079 287.528 243.335 287.728 242.647 288.128C241.975 288.512 241.431 289.08 241.015 289.832C240.615 290.568 240.415 291.424 240.415 292.4C240.415 293.392 240.615 294.264 241.015 295.016C241.431 295.752 241.975 296.32 242.647 296.72C243.335 297.104 244.079 297.296 244.879 297.296C245.695 297.296 246.439 297.104 247.111 296.72C247.799 296.32 248.343 295.752 248.743 295.016C249.143 294.264 249.343 293.384 249.343 292.376ZM265.778 285.848L257.858 305.192H255.602L258.194 298.856L252.89 285.848H255.314L259.442 296.504L263.522 285.848H265.778Z" fill="#022B3A"/>
<path d="M13.804 330.08C14.5 329.168 15.448 328.4 16.648 327.776C17.848 327.152 19.204 326.84 20.716 326.84C22.444 326.84 24.016 327.272 25.432 328.136C26.872 328.976 28 330.164 28.816 331.7C29.632 333.236 30.04 335 30.04 336.992C30.04 338.984 29.632 340.772 28.816 342.356C28 343.916 26.872 345.14 25.432 346.028C24.016 346.892 22.444 347.324 20.716 347.324C19.204 347.324 17.86 347.024 16.684 346.424C15.508 345.8 14.548 345.032 13.804 344.12V356.432H9.7V327.164H13.804V330.08ZM25.864 336.992C25.864 335.624 25.576 334.448 25 333.464C24.448 332.456 23.704 331.7 22.768 331.196C21.856 330.668 20.872 330.404 19.816 330.404C18.784 330.404 17.8 330.668 16.864 331.196C15.952 331.724 15.208 332.492 14.632 333.5C14.08 334.508 13.804 335.696 13.804 337.064C13.804 338.432 14.08 339.632 14.632 340.664C15.208 341.672 15.952 342.44 16.864 342.968C17.8 343.496 18.784 343.76 19.816 343.76C20.872 343.76 21.856 343.496 22.768 342.968C23.704 342.416 24.448 341.624 25 340.592C25.576 339.56 25.864 338.36 25.864 336.992ZM38.2024 320.36V347H34.0984V320.36H38.2024ZM42.2226 336.992C42.2226 335 42.6306 333.236 43.4466 331.7C44.2866 330.164 45.4146 328.976 46.8306 328.136C48.2706 327.272 49.8546 326.84 51.5826 326.84C53.1426 326.84 54.4986 327.152 55.6506 327.776C56.8266 328.376 57.7626 329.132 58.4586 330.044V327.164H62.5986V347H58.4586V344.048C57.7626 344.984 56.8146 345.764 55.6146 346.388C54.4146 347.012 53.0466 347.324 51.5106 347.324C49.8066 347.324 48.2466 346.892 46.8306 346.028C45.4146 345.14 44.2866 343.916 43.4466 342.356C42.6306 340.772 42.2226 338.984 42.2226 336.992ZM58.4586 337.064C58.4586 335.696 58.1706 334.508 57.5946 333.5C57.0426 332.492 56.3106 331.724 55.3986 331.196C54.4866 330.668 53.5026 330.404 52.4466 330.404C51.3906 330.404 50.4066 330.668 49.4946 331.196C48.5826 331.7 47.8386 332.456 47.2626 333.464C46.7106 334.448 46.4346 335.624 46.4346 336.992C46.4346 338.36 46.7106 339.56 47.2626 340.592C47.8386 341.624 48.5826 342.416 49.4946 342.968C50.4306 343.496 51.4146 343.76 52.4466 343.76C53.5026 343.76 54.4866 343.496 55.3986 342.968C56.3106 342.44 57.0426 341.672 57.5946 340.664C58.1706 339.632 58.4586 338.432 58.4586 337.064ZM85.8451 327.164L73.6771 356.324H69.4291L73.4611 346.676L65.6491 327.164H70.2211L75.8011 342.284L81.5971 327.164H85.8451ZM91.0302 324.536C90.2862 324.536 89.6622 324.284 89.1582 323.78C88.6542 323.276 88.4022 322.652 88.4022 321.908C88.4022 321.164 88.6542 320.54 89.1582 320.036C89.6622 319.532 90.2862 319.28 91.0302 319.28C91.7502 319.28 92.3622 319.532 92.8662 320.036C93.3702 320.54 93.6222 321.164 93.6222 321.908C93.6222 322.652 93.3702 323.276 92.8662 323.78C92.3622 324.284 91.7502 324.536 91.0302 324.536ZM93.0462 327.164V347H88.9422V327.164H93.0462ZM108.442 326.84C110.002 326.84 111.394 327.164 112.618 327.812C113.866 328.46 114.838 329.42 115.534 330.692C116.23 331.964 116.578 333.5 116.578 335.3V347H112.51V335.912C112.51 334.136 112.066 332.78 111.178 331.844C110.29 330.884 109.078 330.404 107.542 330.404C106.006 330.404 104.782 330.884 103.87 331.844C102.982 332.78 102.538 334.136 102.538 335.912V347H98.4344V327.164H102.538V329.432C103.21 328.616 104.062 327.98 105.094 327.524C106.15 327.068 107.266 326.84 108.442 326.84ZM129.805 326.84C131.341 326.84 132.697 327.152 133.873 327.776C135.073 328.376 136.009 329.132 136.681 330.044V327.164H140.821V347.324C140.821 349.148 140.437 350.768 139.669 352.184C138.901 353.624 137.785 354.752 136.321 355.568C134.881 356.384 133.153 356.792 131.137 356.792C128.449 356.792 126.217 356.156 124.441 354.884C122.665 353.636 121.657 351.932 121.417 349.772H125.485C125.797 350.804 126.457 351.632 127.465 352.256C128.497 352.904 129.721 353.228 131.137 353.228C132.793 353.228 134.125 352.724 135.133 351.716C136.165 350.708 136.681 349.244 136.681 347.324V344.012C135.985 344.948 135.037 345.74 133.837 346.388C132.661 347.012 131.317 347.324 129.805 347.324C128.077 347.324 126.493 346.892 125.053 346.028C123.637 345.14 122.509 343.916 121.669 342.356C120.853 340.772 120.445 338.984 120.445 336.992C120.445 335 120.853 333.236 121.669 331.7C122.509 330.164 123.637 328.976 125.053 328.136C126.493 327.272 128.077 326.84 129.805 326.84ZM136.681 337.064C136.681 335.696 136.393 334.508 135.817 333.5C135.265 332.492 134.533 331.724 133.621 331.196C132.709 330.668 131.725 330.404 130.669 330.404C129.613 330.404 128.629 330.668 127.717 331.196C126.805 331.7 126.061 332.456 125.485 333.464C124.933 334.448 124.657 335.624 124.657 336.992C124.657 338.36 124.933 339.56 125.485 340.592C126.061 341.624 126.805 342.416 127.717 342.968C128.653 343.496 129.637 343.76 130.669 343.76C131.725 343.76 132.709 343.496 133.621 342.968C134.533 342.44 135.265 341.672 135.817 340.664C136.393 339.632 136.681 338.432 136.681 337.064ZM163.555 326.84C165.091 326.84 166.447 327.152 167.623 327.776C168.823 328.376 169.759 329.132 170.431 330.044V327.164H174.571V347.324C174.571 349.148 174.187 350.768 173.419 352.184C172.651 353.624 171.535 354.752 170.071 355.568C168.631 356.384 166.903 356.792 164.887 356.792C162.199 356.792 159.967 356.156 158.191 354.884C156.415 353.636 155.407 351.932 155.167 349.772H159.235C159.547 350.804 160.207 351.632 161.215 352.256C162.247 352.904 163.471 353.228 164.887 353.228C166.543 353.228 167.875 352.724 168.883 351.716C169.915 350.708 170.431 349.244 170.431 347.324V344.012C169.735 344.948 168.787 345.74 167.587 346.388C166.411 347.012 165.067 347.324 163.555 347.324C161.827 347.324 160.243 346.892 158.803 346.028C157.387 345.14 156.259 343.916 155.419 342.356C154.603 340.772 154.195 338.984 154.195 336.992C154.195 335 154.603 333.236 155.419 331.7C156.259 330.164 157.387 328.976 158.803 328.136C160.243 327.272 161.827 326.84 163.555 326.84ZM170.431 337.064C170.431 335.696 170.143 334.508 169.567 333.5C169.015 332.492 168.283 331.724 167.371 331.196C166.459 330.668 165.475 330.404 164.419 330.404C163.363 330.404 162.379 330.668 161.467 331.196C160.555 331.7 159.811 332.456 159.235 333.464C158.683 334.448 158.407 335.624 158.407 336.992C158.407 338.36 158.683 339.56 159.235 340.592C159.811 341.624 160.555 342.416 161.467 342.968C162.403 343.496 163.387 343.76 164.419 343.76C165.475 343.76 166.459 343.496 167.371 342.968C168.283 342.44 169.015 341.672 169.567 340.664C170.143 339.632 170.431 338.432 170.431 337.064ZM178.594 336.992C178.594 335 179.002 333.236 179.818 331.7C180.658 330.164 181.786 328.976 183.202 328.136C184.642 327.272 186.226 326.84 187.954 326.84C189.514 326.84 190.87 327.152 192.022 327.776C193.198 328.376 194.134 329.132 194.83 330.044V327.164H198.97V347H194.83V344.048C194.134 344.984 193.186 345.764 191.986 346.388C190.786 347.012 189.418 347.324 187.882 347.324C186.178 347.324 184.618 346.892 183.202 346.028C181.786 345.14 180.658 343.916 179.818 342.356C179.002 340.772 178.594 338.984 178.594 336.992ZM194.83 337.064C194.83 335.696 194.542 334.508 193.966 333.5C193.414 332.492 192.682 331.724 191.77 331.196C190.858 330.668 189.874 330.404 188.818 330.404C187.762 330.404 186.778 330.668 185.866 331.196C184.954 331.7 184.21 332.456 183.634 333.464C183.082 334.448 182.806 335.624 182.806 336.992C182.806 338.36 183.082 339.56 183.634 340.592C184.21 341.624 184.954 342.416 185.866 342.968C186.802 343.496 187.786 343.76 188.818 343.76C189.874 343.76 190.858 343.496 191.77 342.968C192.682 342.44 193.414 341.672 193.966 340.664C194.542 339.632 194.83 338.432 194.83 337.064ZM228.372 326.84C229.932 326.84 231.324 327.164 232.548 327.812C233.796 328.46 234.768 329.42 235.464 330.692C236.184 331.964 236.544 333.5 236.544 335.3V347H232.476V335.912C232.476 334.136 232.032 332.78 231.144 331.844C230.256 330.884 229.044 330.404 227.508 330.404C225.972 330.404 224.748 330.884 223.836 331.844C222.948 332.78 222.504 334.136 222.504 335.912V347H218.436V335.912C218.436 334.136 217.992 332.78 217.104 331.844C216.216 330.884 215.004 330.404 213.468 330.404C211.932 330.404 210.708 330.884 209.796 331.844C208.908 332.78 208.464 334.136 208.464 335.912V347H204.36V327.164H208.464V329.432C209.136 328.616 209.988 327.98 211.02 327.524C212.052 327.068 213.156 326.84 214.332 326.84C215.916 326.84 217.332 327.176 218.58 327.848C219.828 328.52 220.788 329.492 221.46 330.764C222.06 329.564 222.996 328.616 224.268 327.92C225.54 327.2 226.908 326.84 228.372 326.84ZM259.946 336.596C259.946 337.34 259.898 338.012 259.802 338.612H244.646C244.766 340.196 245.354 341.468 246.41 342.428C247.466 343.388 248.762 343.868 250.298 343.868C252.506 343.868 254.066 342.944 254.978 341.096H259.406C258.806 342.92 257.714 344.42 256.13 345.596C254.57 346.748 252.626 347.324 250.298 347.324C248.402 347.324 246.698 346.904 245.186 346.064C243.698 345.2 242.522 344 241.658 342.464C240.818 340.904 240.398 339.104 240.398 337.064C240.398 335.024 240.806 333.236 241.622 331.7C242.462 330.14 243.626 328.94 245.114 328.1C246.626 327.26 248.354 326.84 250.298 326.84C252.17 326.84 253.838 327.248 255.302 328.064C256.766 328.88 257.906 330.032 258.722 331.52C259.538 332.984 259.946 334.676 259.946 336.596ZM255.662 335.3C255.638 333.788 255.098 332.576 254.042 331.664C252.986 330.752 251.678 330.296 250.118 330.296C248.702 330.296 247.49 330.752 246.482 331.664C245.474 332.552 244.874 333.764 244.682 335.3H255.662ZM271.185 347.324C269.625 347.324 268.221 347.048 266.973 346.496C265.749 345.92 264.777 345.152 264.057 344.192C263.337 343.208 262.953 342.116 262.905 340.916H267.153C267.225 341.756 267.621 342.464 268.341 343.04C269.085 343.592 270.009 343.868 271.113 343.868C272.265 343.868 273.153 343.652 273.777 343.22C274.425 342.764 274.749 342.188 274.749 341.492C274.749 340.748 274.389 340.196 273.669 339.836C272.973 339.476 271.857 339.08 270.321 338.648C268.833 338.24 267.621 337.844 266.685 337.46C265.749 337.076 264.933 336.488 264.237 335.696C263.565 334.904 263.229 333.86 263.229 332.564C263.229 331.508 263.541 330.548 264.165 329.684C264.789 328.796 265.677 328.1 266.829 327.596C268.005 327.092 269.349 326.84 270.861 326.84C273.117 326.84 274.929 327.416 276.297 328.568C277.689 329.696 278.433 331.244 278.529 333.212H274.425C274.353 332.324 273.993 331.616 273.345 331.088C272.697 330.56 271.821 330.296 270.717 330.296C269.637 330.296 268.809 330.5 268.233 330.908C267.657 331.316 267.369 331.856 267.369 332.528C267.369 333.056 267.561 333.5 267.945 333.86C268.329 334.22 268.797 334.508 269.349 334.724C269.901 334.916 270.717 335.168 271.797 335.48C273.237 335.864 274.413 336.26 275.325 336.668C276.261 337.052 277.065 337.628 277.737 338.396C278.409 339.164 278.757 340.184 278.781 341.456C278.781 342.584 278.469 343.592 277.845 344.48C277.221 345.368 276.333 346.064 275.181 346.568C274.053 347.072 272.721 347.324 271.185 347.324Z" fill="#F8464C"/>
<path d="M8.29446 141.077L114.854 202.859C117.515 204.402 120.534 205.214 123.606 205.214C126.679 205.214 129.697 204.402 132.358 202.859L279.677 117.431C280.747 116.805 281.634 115.908 282.251 114.829C282.868 113.751 283.192 112.529 283.192 111.285C283.192 110.041 282.868 108.819 282.251 107.741C281.634 106.662 280.747 105.765 279.677 105.139L170.287 41.368C168.889 40.5555 167.302 40.1277 165.686 40.1277C164.071 40.1277 162.484 40.5555 161.086 41.368L8.29446 129.97C7.32598 130.535 6.52213 131.345 5.96335 132.319C5.40458 133.294 5.11047 134.399 5.11047 135.523C5.11047 136.648 5.40458 137.753 5.96335 138.728C6.52213 139.702 7.32598 140.512 8.29446 141.077Z" fill="#FFABC1"/>
<path d="M215.546 111.892L185.342 130.534L219.982 152.046L255.233 131.698L215.546 111.892Z" fill="url(#paint0_linear_798_34)"/>
<path d="M204.322 130.353L174.118 148.995L194.638 161.035L224.856 142.48L204.322 130.353Z" fill="url(#paint1_linear_798_34)"/>
<path d="M57.7729 133.607L27.576 152.256L87.1705 187.211L117.994 169.184L57.7729 133.607Z" fill="url(#paint2_linear_798_34)"/>
<path d="M100.188 45.0197V69.7138L133.474 50.1972V26.9132L100.188 45.0197Z" fill="#FFDDDC"/>
<path d="M113.213 48.3171L105.883 52.6557C105.883 52.6557 104.126 53.7548 104.508 55.3746C104.89 56.9943 106.337 56.5894 107.042 56.2351C107.748 55.8808 124.963 46.4659 124.963 46.4659C124.963 46.4659 126.274 46.813 125.87 48.7799C125.467 50.7467 120.449 53.2342 120.449 53.2342" stroke="#F7931E" stroke-width="1.015" stroke-miterlimit="10"/>
<path d="M110.563 49.0474C110.553 49.3748 110.63 49.699 110.786 49.9868C110.942 50.2747 111.171 50.5158 111.45 50.6857C111.729 50.8555 112.048 50.948 112.374 50.9536C112.7 50.9592 113.022 50.8778 113.306 50.7177L120.967 46.3791C121.25 46.2183 121.486 45.9851 121.651 45.7031C121.815 45.4212 121.902 45.1005 121.903 44.7738C121.897 44.4533 121.808 44.1398 121.645 43.864C121.483 43.5883 121.251 43.3598 120.974 43.2009C120.697 43.042 120.383 42.9581 120.064 42.9575C119.745 42.9569 119.431 43.0396 119.153 43.1974L111.492 47.5361C111.223 47.6896 110.998 47.9085 110.835 48.1725C110.673 48.4366 110.579 48.7375 110.563 49.0474Z" fill="#F9635C"/>
<path d="M110.563 57.4716C110.553 57.7991 110.63 58.1233 110.786 58.4111C110.942 58.6989 111.171 58.9401 111.45 59.1099C111.729 59.2797 112.048 59.3722 112.374 59.3778C112.7 59.3835 113.022 59.3021 113.306 59.142L120.967 54.8034C121.25 54.6425 121.486 54.4093 121.651 54.1274C121.815 53.8454 121.902 53.5248 121.903 53.1981C121.903 52.8755 121.818 52.5586 121.658 52.2789C121.498 51.9992 121.268 51.7663 120.991 51.6034C120.714 51.4404 120.399 51.3531 120.078 51.3499C119.757 51.3468 119.44 51.428 119.16 51.5855L111.499 55.9242C111.224 56.08 110.994 56.3042 110.83 56.5751C110.666 56.8461 110.574 57.1548 110.563 57.4716Z" fill="#F9635C"/>
<path d="M215.856 110.049V104.987L213.286 105.71C213.286 105.71 214.985 109.976 215.856 110.049Z" fill="#E75A59"/>
<path d="M50.9904 136.355V130.859L53.6544 133.535C53.6544 133.535 53.8056 136.341 50.9904 136.355Z" fill="#E75A59"/>
<path d="M53.064 132.645L153.288 74.8911C154.358 74.2683 155.572 73.9403 156.809 73.9403C158.045 73.9403 159.26 74.2683 160.33 74.8911L213.84 106.353C214.465 106.718 214.983 107.24 215.344 107.869C215.704 108.498 215.894 109.211 215.894 109.936C215.894 110.662 215.704 111.375 215.344 112.004C214.983 112.632 214.465 113.155 213.84 113.519L114.638 171.136C113.214 171.963 111.596 172.393 109.951 172.383C108.305 172.373 106.693 171.922 105.278 171.079L53.0064 139.804C52.3863 139.434 51.8735 138.908 51.5193 138.277C51.1651 137.646 50.9817 136.933 50.9876 136.208C50.9934 135.484 51.1882 134.774 51.5525 134.149C51.9169 133.524 52.438 133.005 53.064 132.645Z" fill="#E75A59"/>
<path d="M53.064 128.097L153.288 70.3428C154.358 69.72 155.572 69.392 156.809 69.392C158.045 69.392 159.26 69.72 160.33 70.3428L213.84 101.769C214.465 102.133 214.983 102.656 215.344 103.285C215.704 103.914 215.894 104.626 215.894 105.352C215.894 106.077 215.704 106.79 215.344 107.419C214.983 108.048 214.465 108.571 213.84 108.935L114.638 166.588C113.214 167.414 111.596 167.845 109.951 167.834C108.305 167.824 106.693 167.374 105.278 166.53L53.0064 135.256C52.3863 134.886 51.8735 134.359 51.5193 133.728C51.1651 133.097 50.9817 132.384 50.9876 131.66C50.9934 130.936 51.1882 130.225 51.5525 129.6C51.9169 128.975 52.438 128.457 53.064 128.097Z" fill="#FFDDDC"/>
<path d="M150.854 77.5594C151.409 77.7475 202.032 107.402 202.032 107.402L117.468 157.152L66.348 127.504L150.854 77.5594Z" fill="white"/>
<path d="M95.652 152.444C95.8095 152.352 95.9459 152.227 96.0525 152.079C96.1591 151.93 96.2335 151.761 96.2708 151.582C96.3081 151.402 96.3076 151.217 96.2692 151.038C96.2308 150.859 96.1555 150.69 96.048 150.542C95.3329 149.791 94.5013 149.161 93.5856 148.677C92.7216 148.134 91.8216 147.664 90.9432 147.144L84.132 143.138L78.5448 139.855C78.1782 139.627 77.7654 139.485 77.3367 139.438C76.908 139.392 76.4745 139.443 76.068 139.587C75.4834 139.793 74.9791 140.181 74.628 140.694C74.5398 140.84 74.4837 141.003 74.4633 141.173C74.4429 141.342 74.4589 141.514 74.51 141.677C74.5611 141.84 74.6462 141.99 74.7597 142.117C74.8732 142.244 75.0124 142.346 75.168 142.415L85.464 148.402L89.8992 150.983L92.4624 152.487C92.853 152.722 93.2902 152.868 93.7431 152.914C94.1961 152.961 94.6536 152.906 95.0832 152.755C95.2867 152.679 95.4783 152.575 95.652 152.444Z" fill="#E75A59"/>
<path d="M70.2072 138.466C71.1934 138.466 71.9928 137.803 71.9928 136.984C71.9928 136.165 71.1934 135.502 70.2072 135.502C69.2211 135.502 68.4216 136.165 68.4216 136.984C68.4216 137.803 69.2211 138.466 70.2072 138.466Z" fill="#E75A59"/>
<path d="M235.303 124.691C247.471 124.691 257.335 114.785 257.335 102.564C257.335 90.344 247.471 80.4374 235.303 80.4374C223.135 80.4374 213.271 90.344 213.271 102.564C213.271 114.785 223.135 124.691 235.303 124.691Z" fill="#F8464C"/>
<path opacity="0.1" d="M248.71 85.0074C249.494 86.8195 250.054 88.7209 250.38 90.6694C252.374 102.781 244.253 114.98 232.452 118.046C228.368 119.062 224.117 119.204 219.974 118.465C222.131 120.556 224.689 122.182 227.493 123.246C230.297 124.309 233.287 124.786 236.281 124.649C239.275 124.511 242.21 123.762 244.905 122.446C247.601 121.13 250.001 119.276 251.958 116.997C253.916 114.718 255.39 112.061 256.29 109.19C257.19 106.319 257.498 103.294 257.193 100.3C256.889 97.3051 255.98 94.4045 254.521 91.7751C253.063 89.1457 251.085 86.8428 248.71 85.0074Z" fill="black"/>
<path d="M251.158 135.726C258.061 135.726 263.657 130.106 263.657 123.173C263.657 116.24 258.061 110.62 251.158 110.62C244.255 110.62 238.658 116.24 238.658 123.173C238.658 130.106 244.255 135.726 251.158 135.726Z" fill="#F8464C"/>
<path opacity="0.1" d="M258.768 113.208C259.214 114.236 259.533 115.314 259.718 116.419C260.203 119.809 259.435 123.26 257.561 126.121C255.687 128.982 252.836 131.056 249.545 131.951C247.228 132.528 244.817 132.609 242.467 132.19C243.69 133.377 245.142 134.301 246.733 134.905C248.324 135.509 250.021 135.78 251.72 135.702C253.419 135.625 255.085 135.2 256.615 134.453C258.144 133.707 259.506 132.655 260.617 131.361C261.728 130.067 262.565 128.56 263.075 126.93C263.586 125.301 263.76 123.584 263.587 121.885C263.413 120.185 262.897 118.539 262.068 117.047C261.24 115.556 260.117 114.249 258.768 113.208Z" fill="black"/>
<path d="M213.403 128.702C215.069 124.748 213.797 120.429 210.564 119.056C207.33 117.682 203.358 119.773 201.693 123.727C200.027 127.681 201.299 132 204.533 133.374C207.766 134.748 211.738 132.656 213.403 128.702Z" fill="#792155"/>
<path d="M211.507 119.521L214.682 121.835L206.777 135.133L203.666 132.87" fill="#792155"/>
<path d="M216.33 130.787C217.995 126.833 216.724 122.514 213.49 121.14C210.256 119.766 206.285 121.858 204.619 125.812C202.954 129.766 204.225 134.085 207.459 135.459C210.693 136.832 214.664 134.741 216.33 130.787Z" fill="#995F85"/>
<path d="M214.457 129.992C215.384 127.792 214.674 125.389 212.872 124.623C211.07 123.858 208.859 125.02 207.932 127.22C207.006 129.419 207.715 131.823 209.517 132.588C211.319 133.354 213.531 132.191 214.457 129.992Z" fill="#792155"/>
<path d="M228.463 136.138C227.268 135.704 226.109 134.692 225.058 133.969C223.027 132.633 221.004 131.284 218.988 129.919L216.173 128.018C215.509 127.441 214.785 126.939 214.013 126.521C212.422 125.892 210.636 127.577 210.305 129.052C210.159 129.572 210.128 130.118 210.215 130.652C210.302 131.185 210.505 131.693 210.809 132.139C211.471 132.985 212.573 133.39 213.437 133.983L216.317 135.965L221.854 139.739L223.207 140.658" fill="#A87398"/>
<path d="M225.193 136.428C226.858 132.475 225.587 128.156 222.353 126.782C219.119 125.408 215.148 127.499 213.482 131.453C211.817 135.407 213.088 139.726 216.322 141.1C219.556 142.474 223.527 140.382 225.193 136.428Z" fill="#792155"/>
<path d="M223.294 127.244L226.469 129.558L218.57 142.856L215.453 140.592" fill="#792155"/>
<path d="M228.122 138.506C229.787 134.552 228.516 130.233 225.282 128.86C222.048 127.486 218.077 129.577 216.411 133.531C214.746 137.485 216.017 141.804 219.251 143.178C222.485 144.552 226.456 142.46 228.122 138.506Z" fill="#995F85"/>
<path d="M226.246 137.718C227.173 135.518 226.463 133.115 224.661 132.349C222.86 131.584 220.648 132.746 219.721 134.945C218.795 137.145 219.505 139.549 221.306 140.314C223.108 141.08 225.32 139.917 226.246 137.718Z" fill="#792155"/>
<path d="M158.501 73.8788L88.3728 119.109V127.902L118.548 145.199L190.67 102.138V93.4243L158.501 73.8788Z" fill="#F8464C"/>
<path opacity="0.1" d="M190.67 93.5039L158.501 73.9584L88.3728 119.189L118.613 136.312L190.67 93.5039Z" fill="black"/>
<path d="M186.646 91.161L165.254 78.2391L100.915 116.846L121.507 129.449" fill="#603813"/>
<path d="M133.459 52.5256C133.421 52.4303 133.355 52.3486 133.271 52.2906C133.186 52.2327 133.086 52.2013 132.984 52.2002C133.054 52.4066 133.064 52.6286 133.015 52.8408C132.965 53.053 132.857 53.2469 132.703 53.4006C132.165 53.9573 131.524 54.4042 130.817 54.7166C130.5 54.9625 130.169 55.2011 129.845 55.4397C129.636 55.5879 129.378 55.65 129.125 55.6133C128.862 55.9644 128.535 56.2615 128.16 56.4882C127.611 56.8023 127.095 57.1705 126.619 57.5873C126.252 57.9127 125.388 58.578 125.647 59.0335C125.906 59.4891 126.547 59.3372 127.181 59.0335L127.03 59.2215C126.554 59.8145 126.31 60.8485 127.382 60.8847C127.289 61.0581 127.25 61.256 127.27 61.4522C127.291 61.6484 127.37 61.8338 127.498 61.9838C128.102 62.49 128.578 61.9838 128.851 61.6946C128.966 61.8048 129.107 61.8854 129.259 61.9294C129.412 61.9735 129.574 61.9797 129.73 61.9476C129.86 61.9235 129.984 61.8691 130.09 61.7888C130.196 61.7085 130.282 61.6044 130.342 61.4849C132.372 62.4827 133.114 57.4138 133.294 55.5048C133.56 54.5431 133.841 53.3644 133.459 52.5256Z" fill="#F9635C"/>
<path d="M129.499 59.4746C129.486 59.3672 129.451 59.2637 129.397 59.1704C129.342 59.077 129.269 58.996 129.182 58.9323C129.715 58.842 130.198 58.5622 130.543 58.1441C130.751 57.8632 130.883 57.5331 130.926 57.1859C130.969 56.8386 130.921 56.4861 130.788 56.1628C130.773 56.1235 130.742 56.0919 130.704 56.0749C130.666 56.058 130.622 56.0571 130.583 56.0724C130.544 56.0878 130.512 56.1181 130.495 56.1567C130.478 56.1954 130.478 56.2392 130.493 56.2785C130.615 56.5724 130.653 56.8948 130.602 57.2092C130.551 57.5236 130.413 57.8174 130.205 58.0573C129.772 58.459 129.21 58.6924 128.621 58.7154H128.563C128.566 58.6793 128.566 58.643 128.563 58.6069C128.304 57.8332 127.404 58.4189 127.123 58.8383C127.008 59.0046 127.253 59.2071 127.375 59.0408C127.498 58.8744 127.764 58.5418 128.038 58.5563C128.563 58.5563 128.095 59.4023 128.038 59.5542C127.823 59.9877 127.583 60.4079 127.318 60.8124C127.202 60.9859 127.454 61.1884 127.57 61.0148C127.858 60.5877 128.12 60.1434 128.354 59.6843C128.469 59.4855 128.56 59.2745 128.628 59.0552C129.938 59.0986 129.046 60.8124 128.765 61.5065C128.686 61.6945 128.981 61.8319 129.06 61.6367C129.335 61.0512 129.519 60.4269 129.607 59.7856C130.075 59.706 130.622 59.7855 130.543 60.393C130.474 60.7469 130.37 61.0932 130.234 61.427C130.169 61.6222 130.464 61.7524 130.529 61.5572C130.687 61.0654 131.018 60.4219 130.81 59.9012C130.601 59.3806 129.953 59.4023 129.499 59.4746Z" fill="#111224"/>
<path d="M163.598 71.8179L170.798 72.8158C170.798 72.8158 172.382 72.6639 172.678 70.5669C172.973 68.4699 171.662 68.4338 171.662 68.4338L164.952 66.4308" fill="#F9635C"/>
<path d="M171.396 66.9297C170.892 66.9297 170.222 67.8408 170.194 68.0072C170.165 68.1735 171.115 68.2386 171.115 68.2386C172.426 69.4172 172.13 71.2901 171.835 71.4781C171.54 71.6661 170.28 70.4368 169.87 70.8056C169.428 71.4983 169.179 72.2974 169.15 73.1195C169.229 73.3654 170.914 73.1195 171.007 73.228C172.073 74.0017 172.843 75.6938 173.254 76.9086C173.664 78.1234 173.858 79.114 174.902 79.895C175.187 80.1278 175.526 80.2839 175.888 80.3484C176.25 80.4129 176.622 80.3838 176.969 80.2638C177.689 79.9022 177.991 78.8537 178.085 78.0945C178.322 76.1999 177.689 74.2331 177.055 72.4759C176.541 70.8803 175.875 69.3379 175.068 67.8698C174.881 67.5733 171.907 66.8936 171.396 66.9297Z" fill="#ABDB3A"/>
<path d="M134.035 97.8641V104.741C134.218 105.303 134.577 105.792 135.058 106.133C135.539 106.474 136.117 106.651 136.706 106.635C137.26 106.66 137.802 106.474 138.225 106.115C138.648 105.755 138.92 105.249 138.989 104.697L139.536 98.3125" fill="#F9635C"/>
<path d="M140.494 104.293C140.364 103.75 139.306 103.179 139.118 103.172C138.931 103.165 139.032 104.213 139.032 104.213C137.995 105.847 135.922 105.854 135.67 105.551C135.418 105.247 136.519 103.678 136.051 103.302C135.227 102.942 134.322 102.809 133.43 102.919C133.178 103.049 133.704 104.835 133.639 104.958C132.998 106.252 131.299 107.387 130.039 108.038C128.779 108.689 127.764 109.08 127.109 110.359C126.909 110.712 126.804 111.111 126.804 111.516C126.804 111.922 126.909 112.321 127.109 112.673C127.627 113.396 128.808 113.541 129.629 113.512C131.71 113.44 133.718 112.406 135.504 111.408C137.133 110.57 138.679 109.577 140.119 108.443C140.4 108.19 140.623 104.835 140.494 104.293Z" fill="#ABDB3A"/>
<path d="M133.56 43.7832C132.718 48.2231 131.27 52.2074 128.52 55.6421C128.686 56.0977 129.715 58.1947 134.863 58.1947L139.486 52.07L133.56 43.7832Z" fill="#E25096"/>
<path d="M134.921 55.0275C134.921 55.0275 128.441 62.9816 131.414 70.2922C134.093 76.9809 152.813 76.5109 164.484 74.6308C164.484 74.6308 169.344 71.5504 166.608 66.4236C166.608 66.4236 151.682 64.2543 149.429 64.0807" fill="#5699D1"/>
<path d="M136.282 56.1121C136.282 56.1121 129.204 73.9005 129.226 78.0222C129.247 82.1439 132.487 99.9323 132.487 99.9323C132.487 99.9323 136.368 102.369 141.61 99.9323C141.61 99.9323 140.94 80.112 141.761 77.2919C142.582 74.4717 149.954 60.5086 145.692 55.0275L136.282 56.1121Z" fill="#6DA8E2"/>
<path d="M134.921 55.0274C134.381 54.4779 131.033 40.6232 133.229 37.5717C135.425 34.5202 145.411 39.5892 146.909 41.7874C148.406 43.9856 145.865 53.5957 145.678 55.0274C145.49 56.4592 138.96 59.1058 134.921 55.0274Z" fill="#F877AF"/>
<path d="M142.56 56.9799H142.459C141.902 60.3792 141.084 63.7299 140.011 67.0021C138.787 70.7189 136.843 74.2766 136.231 78.1741C135.619 82.0716 135.835 85.9619 135.886 89.8089C135.934 93.5304 136.056 97.252 136.253 100.974H136.778C136.586 97.2424 136.462 93.5088 136.404 89.7727C136.354 85.6872 136.073 81.3702 136.901 77.3425C137.693 73.4884 139.644 69.9163 140.818 66.1706C141.76 63.1075 142.481 59.9805 142.978 56.8136C142.842 56.8787 142.703 56.9342 142.56 56.9799Z" fill="white"/>
<path d="M136.62 33.1246C136.548 33.4862 136.303 39.4879 139.219 40.4931C142.135 41.4982 145.555 35.3229 144.137 32.3798C142.718 29.4368 137.441 29.0246 136.62 33.1246Z" fill="#F9635C"/>
<path d="M141.84 34.1587C142.33 34.8023 142.344 36.4871 142.164 37.2898C142.127 37.6576 142.127 38.0283 142.164 38.3961C142.129 38.7155 142.112 39.0366 142.114 39.3579C142.39 39.1388 142.648 38.897 142.884 38.6348C142.934 38.673 142.993 38.6966 143.055 38.703C143.118 38.7093 143.18 38.6983 143.237 38.6709C143.349 38.6148 143.455 38.547 143.554 38.4684C143.798 38.3021 144.086 38.2081 144.338 38.0563C144.82 37.7167 145.167 37.2174 145.318 36.6462C145.564 36.0265 145.717 35.3733 145.771 34.7083C145.898 33.3857 145.649 32.0542 145.051 30.8686C143.474 27.846 139.442 27.781 136.966 29.7623C137.088 29.5019 137.383 28.7138 136.519 28.9018C135.49 29.1187 134.669 31.2085 134.669 31.2085C134.518 30.8397 135.029 29.8418 135.029 29.8418C135.029 29.8418 133.812 30.0587 134.014 32.0473C134.215 34.0358 136.577 35.2579 137.34 33.5441C138.103 31.8303 138.326 32.0545 138.326 32.0545C137.549 33.4646 138.283 34.4914 140.004 34.8168C140.34 34.9173 140.699 34.9078 141.029 34.7894C141.359 34.6711 141.643 34.4502 141.84 34.1587Z" fill="#111224"/>
<path d="M143.244 35.8869C143.175 35.7547 143.076 35.64 142.956 35.5517C142.836 35.4634 142.698 35.4038 142.551 35.3773C142.405 35.3508 142.254 35.3582 142.111 35.3989C141.968 35.4395 141.836 35.5125 141.725 35.6121C141.401 35.9797 141.156 36.4105 141.005 36.8775C140.957 37.0058 140.957 37.147 141.005 37.2753C140.941 37.3929 140.908 37.5246 140.908 37.6585C140.908 37.7924 140.941 37.9241 141.005 38.0417C141.109 38.2107 141.275 38.3327 141.466 38.3826C141.658 38.4324 141.861 38.4061 142.034 38.3093C142.769 37.9333 143.755 36.798 143.244 35.8869Z" fill="#F9635C"/>
<path d="M142.502 38.8155C143.592 38.8155 144.475 37.9285 144.475 36.8342C144.475 35.74 143.592 34.8529 142.502 34.8529C141.413 34.8529 140.53 35.74 140.53 36.8342C140.53 37.9285 141.413 38.8155 142.502 38.8155Z" fill="#ABDB3A"/>
<path d="M138.046 29.0102C138.046 29.0102 142.891 30.0226 142.294 35.8002L143.813 35.3519C143.813 35.3519 144.893 30.4058 139.594 28.3739C139.302 28.3293 139.005 28.3649 138.732 28.477C138.459 28.5891 138.222 28.7734 138.046 29.0102Z" fill="#ABDB3A"/>
<path d="M144.468 30.0225C144.468 30.0225 144.893 25.8936 148.176 25.9659C151.459 26.0382 151.25 28.6992 153.468 28.6992C155.686 28.6992 157.478 24.2449 160.121 25.5392C162.763 26.8336 164.628 35.4096 158.263 35.7929C151.898 36.1761 150.818 30.4202 149.177 31.2518C147.535 32.0833 146.88 34.8673 144.742 34.9757" fill="#111224"/>
<path d="M152.561 54.4779C152.581 54.3616 152.56 54.2418 152.5 54.1399C152.441 54.0379 152.348 53.9604 152.237 53.9211C152.582 53.4005 151.855 52.6557 151.38 53.1402C151.207 53.3185 151.03 53.4873 150.847 53.6464C150.83 53.5651 150.795 53.4888 150.744 53.423C150.693 53.3572 150.629 53.3036 150.555 53.2662C150.481 53.2287 150.4 53.2084 150.317 53.2066C150.234 53.2048 150.152 53.2216 150.077 53.2559C149.986 53.216 149.885 53.2043 149.788 53.2223C149.69 53.2404 149.6 53.2873 149.53 53.3571L148.32 54.4056C147.757 54.7503 147.107 54.9259 146.448 54.9118C145.861 54.8843 145.272 54.9158 144.691 55.0058C144.245 55.0781 143.251 55.1649 143.251 55.6277C143.251 56.0904 143.806 56.3146 144.439 56.4158L144.23 56.4882C143.561 56.7123 142.834 57.2836 143.352 58.0139C143.217 58.0839 143.113 58.2023 143.061 58.3457C143.009 58.489 143.013 58.6468 143.071 58.7876C143.287 59.5107 143.87 59.5107 144.425 59.3372C144.54 59.6192 144.67 59.8795 144.986 59.9735C145.345 60.0218 145.71 59.9561 146.03 59.7855C147.125 61.2823 149.882 58.1151 150.977 56.7195C151.632 56.1049 152.446 55.324 152.561 54.4779Z" fill="#F9635C"/>
<path d="M156.24 49.3077C155.664 45.8513 153.094 43.7181 150.106 42.2719C148.586 41.5488 147.002 40.9559 145.454 40.2906C144.576 39.9146 143.705 39.5241 142.841 39.1264C142.668 39.0469 141.336 38.6203 141.3 38.4033L142.949 45.9091C144.238 46.5166 144.166 47.0806 145.44 47.7169C146.52 48.2592 148.889 48.816 149.162 50.1538C149.217 50.4201 149.229 50.6935 149.198 50.9636C149.053 51.5792 148.787 52.1596 148.416 52.6711C148.046 53.1825 147.577 53.6148 147.038 53.9428C148.049 55.4688 149.201 56.8949 150.48 58.2019C150.48 58.2019 157.111 54.4201 156.24 49.3077Z" fill="#F877AF"/>
<path d="M51.6888 72.2735V96.9676L84.9816 77.4437V54.167L51.6888 72.2735Z" fill="#FFDDDC"/>
<path d="M69.4944 26.407V54.7021L107.633 32.3364V5.66833L69.4944 26.407Z" fill="#FEE565"/>
<path d="M79.1207 29.5741C79.6758 29.2928 80.2933 29.1588 80.9145 29.1848C81.5357 29.2109 82.1399 29.3962 82.6696 29.7231C83.1993 30.05 83.637 30.5076 83.9408 31.0524C84.2447 31.5971 84.4047 32.2109 84.4055 32.8353V36.4002C84.4047 37.0903 84.2095 37.7661 83.8426 38.3495C83.4757 38.933 82.952 39.4003 82.3319 39.6976C81.7769 39.9637 81.1639 40.0844 80.55 40.0484C79.936 40.0124 79.3411 39.8209 78.8207 39.4917C78.3004 39.1625 77.8714 38.7064 77.5739 38.1658C77.2763 37.6253 77.1199 37.0179 77.1191 36.4002V32.8353C77.1201 32.1591 77.3077 31.4963 77.661 30.9206C78.0143 30.3449 78.5196 29.8789 79.1207 29.5741Z" fill="#F9635C"/>
<path d="M83.5272 36.0821L95.0904 29.6465V25.9514L83.5272 32.5172V36.0821Z" fill="#F9635C"/>
<path d="M95.5007 22.1045C96.0563 21.8198 96.6754 21.6831 97.2986 21.7075C97.9219 21.7319 98.5284 21.9166 99.0603 22.2438C99.5921 22.5711 100.031 23.0301 100.336 23.5767C100.641 24.1233 100.8 24.7393 100.8 25.3657V28.9307C100.799 29.6207 100.604 30.2965 100.237 30.8799C99.8701 31.4634 99.3464 31.9307 98.7264 32.228C98.1714 32.4941 97.5583 32.6148 96.9444 32.5788C96.3304 32.5428 95.7355 32.3513 95.2151 32.0221C94.6948 31.6929 94.2658 31.2368 93.9683 30.6963C93.6708 30.1557 93.5143 29.5483 93.5136 28.9307V25.3657C93.5132 24.691 93.6986 24.0293 94.0493 23.4537C94.4 22.8782 94.9023 22.4113 95.5007 22.1045Z" fill="#F9635C"/>
<path d="M63.7848 81.4136L73.4832 76.0192V72.9171L63.7848 78.4272V81.4136Z" fill="#F9635C"/>
<path d="M77.1624 69.7499C77.1624 68.3442 76.0277 67.2046 74.628 67.2046C73.2283 67.2046 72.0936 68.3442 72.0936 69.7499V76.7134C72.0936 78.1192 73.2283 79.2587 74.628 79.2587C76.0277 79.2587 77.1624 78.1192 77.1624 76.7134V69.7499Z" fill="#F9635C"/>
<path d="M65.5344 76.3446C65.5344 74.9389 64.3997 73.7993 63 73.7993C61.6003 73.7993 60.4656 74.9389 60.4656 76.3446V83.3081C60.4656 84.7139 61.6003 85.8535 63 85.8535C64.3997 85.8535 65.5344 84.7139 65.5344 83.3081V76.3446Z" fill="#F9635C"/>
<path d="M59.9833 78.6007H59.9761C59.0376 78.6007 58.2769 79.3647 58.2769 80.3072V82.5127C58.2769 83.4552 59.0376 84.2192 59.9761 84.2192H59.9833C60.9217 84.2192 61.6825 83.4552 61.6825 82.5127V80.3072C61.6825 79.3647 60.9217 78.6007 59.9833 78.6007Z" fill="#F9635C"/>
<path d="M77.796 70.1115H77.7888C76.8504 70.1115 76.0896 70.8755 76.0896 71.818V74.0234C76.0896 74.9659 76.8504 75.73 77.7888 75.73H77.796C78.7344 75.73 79.4952 74.9659 79.4952 74.0234V71.818C79.4952 70.8755 78.7344 70.1115 77.796 70.1115Z" fill="#F9635C"/>
<path d="M104.4 78.5139L121.342 69.8366C121.342 69.8366 124.222 69.3883 124.942 71.4058L113.126 78.1234L111.938 82.0788" fill="#F2F2F2"/>
<path d="M132.17 137.064L145.13 95.5864L155.858 89.4762C155.858 89.4762 156.384 87.719 153.23 87.5455L138.787 95.543L101.059 75.2382C101.059 75.2382 98.6112 74.1825 97.1208 76.9086L108.065 83.2358L98.1432 112.804L103.37 109.434L111.665 85.1375L138.449 99.0284L140.81 97.7123C140.81 97.7123 127.85 139.363 127.85 139.652C127.85 139.942 130.205 138.336 132.17 137.064Z" fill="#F2F2F2"/>
<defs>
<linearGradient id="paint0_linear_798_34" x1="204.869" y1="143.065" x2="246.069" y2="111.406" gradientUnits="userSpaceOnUse">
<stop stop-color="#FFABC1"/>
<stop offset="0.99" stop-color="#E57EBC"/>
</linearGradient>
<linearGradient id="paint1_linear_798_34" x1="13353.9" y1="6701.07" x2="14772.9" y2="4889.75" gradientUnits="userSpaceOnUse">
<stop stop-color="#FFABC1"/>
<stop offset="0.99" stop-color="#E57EBC"/>
</linearGradient>
<linearGradient id="paint2_linear_798_34" x1="8411.1" y1="12773.4" x2="9320.85" y2="10155.4" gradientUnits="userSpaceOnUse">
<stop stop-color="#FFABC1"/>
<stop offset="0.99" stop-color="#E57EBC"/>
</linearGradient>
</defs>
</svg>
