<svg width="310" height="372" viewBox="0 0 310 372" fill="none" xmlns="http://www.w3.org/2000/svg">
<path d="M62 310H59.816L51.032 296.68V310H48.848V293.248H51.032L59.816 306.544V293.248H62V310ZM71.459 310.216C70.227 310.216 69.107 309.936 68.099 309.376C67.107 308.816 66.323 308.024 65.747 307C65.187 305.96 64.907 304.76 64.907 303.4C64.907 302.056 65.195 300.872 65.771 299.848C66.363 298.808 67.163 298.016 68.171 297.472C69.179 296.912 70.307 296.632 71.555 296.632C72.803 296.632 73.931 296.912 74.939 297.472C75.947 298.016 76.739 298.8 77.315 299.824C77.907 300.848 78.203 302.04 78.203 303.4C78.203 304.76 77.899 305.96 77.291 307C76.699 308.024 75.891 308.816 74.867 309.376C73.843 309.936 72.707 310.216 71.459 310.216ZM71.459 308.296C72.243 308.296 72.979 308.112 73.667 307.744C74.355 307.376 74.907 306.824 75.323 306.088C75.755 305.352 75.971 304.456 75.971 303.4C75.971 302.344 75.763 301.448 75.347 300.712C74.931 299.976 74.387 299.432 73.715 299.08C73.043 298.712 72.315 298.528 71.531 298.528C70.731 298.528 69.995 298.712 69.323 299.08C68.667 299.432 68.139 299.976 67.739 300.712C67.339 301.448 67.139 302.344 67.139 303.4C67.139 304.472 67.331 305.376 67.715 306.112C68.115 306.848 68.643 307.4 69.299 307.768C69.955 308.12 70.675 308.296 71.459 308.296ZM83.7386 298.648V306.4C83.7386 307.04 83.8746 307.496 84.1466 307.768C84.4186 308.024 84.8906 308.152 85.5626 308.152H87.1706V310H85.2026C83.9866 310 83.0746 309.72 82.4666 309.16C81.8586 308.6 81.5546 307.68 81.5546 306.4V298.648H79.8506V296.848H81.5546V293.536H83.7386V296.848H87.1706V298.648H83.7386ZM90.9448 294.712C90.5288 294.712 90.1768 294.568 89.8888 294.28C89.6008 293.992 89.4568 293.64 89.4568 293.224C89.4568 292.808 89.6008 292.456 89.8888 292.168C90.1768 291.88 90.5288 291.736 90.9448 291.736C91.3448 291.736 91.6808 291.88 91.9528 292.168C92.2408 292.456 92.3848 292.808 92.3848 293.224C92.3848 293.64 92.2408 293.992 91.9528 294.28C91.6808 294.568 91.3448 294.712 90.9448 294.712ZM92.0008 296.848V310H89.8168V296.848H92.0008ZM94.907 303.4C94.907 302.04 95.179 300.856 95.723 299.848C96.267 298.824 97.019 298.032 97.979 297.472C98.955 296.912 100.067 296.632 101.315 296.632C102.931 296.632 104.259 297.024 105.299 297.808C106.355 298.592 107.051 299.68 107.387 301.072H105.035C104.811 300.272 104.371 299.64 103.715 299.176C103.075 298.712 102.275 298.48 101.315 298.48C100.067 298.48 99.059 298.912 98.291 299.776C97.523 300.624 97.139 301.832 97.139 303.4C97.139 304.984 97.523 306.208 98.291 307.072C99.059 307.936 100.067 308.368 101.315 308.368C102.275 308.368 103.075 308.144 103.715 307.696C104.355 307.248 104.795 306.608 105.035 305.776H107.387C107.035 307.12 106.331 308.2 105.275 309.016C104.219 309.816 102.899 310.216 101.315 310.216C100.067 310.216 98.955 309.936 97.979 309.376C97.019 308.816 96.267 308.024 95.723 307C95.179 305.976 94.907 304.776 94.907 303.4ZM122.301 302.92C122.301 303.336 122.277 303.776 122.229 304.24H111.717C111.797 305.536 112.237 306.552 113.037 307.288C113.853 308.008 114.837 308.368 115.989 308.368C116.933 308.368 117.717 308.152 118.341 307.72C118.981 307.272 119.429 306.68 119.685 305.944H122.037C121.685 307.208 120.981 308.24 119.925 309.04C118.869 309.824 117.557 310.216 115.989 310.216C114.741 310.216 113.621 309.936 112.629 309.376C111.653 308.816 110.885 308.024 110.325 307C109.765 305.96 109.485 304.76 109.485 303.4C109.485 302.04 109.757 300.848 110.301 299.824C110.845 298.8 111.605 298.016 112.581 297.472C113.573 296.912 114.709 296.632 115.989 296.632C117.237 296.632 118.341 296.904 119.301 297.448C120.261 297.992 120.997 298.744 121.509 299.704C122.037 300.648 122.301 301.72 122.301 302.92ZM120.045 302.464C120.045 301.632 119.861 300.92 119.493 300.328C119.125 299.72 118.621 299.264 117.981 298.96C117.357 298.64 116.661 298.48 115.893 298.48C114.789 298.48 113.845 298.832 113.061 299.536C112.293 300.24 111.853 301.216 111.741 302.464H120.045ZM136.238 310.216C135.23 310.216 134.326 310.048 133.526 309.712C132.726 309.36 132.094 308.88 131.63 308.272C131.166 307.648 130.91 306.936 130.862 306.136H133.118C133.182 306.792 133.486 307.328 134.03 307.744C134.59 308.16 135.318 308.368 136.214 308.368C137.046 308.368 137.702 308.184 138.182 307.816C138.662 307.448 138.902 306.984 138.902 306.424C138.902 305.848 138.646 305.424 138.134 305.152C137.622 304.864 136.83 304.584 135.758 304.312C134.782 304.056 133.982 303.8 133.358 303.544C132.75 303.272 132.222 302.88 131.774 302.368C131.342 301.84 131.126 301.152 131.126 300.304C131.126 299.632 131.326 299.016 131.726 298.456C132.126 297.896 132.694 297.456 133.43 297.136C134.166 296.8 135.006 296.632 135.95 296.632C137.406 296.632 138.582 297 139.478 297.736C140.374 298.472 140.854 299.48 140.918 300.76H138.734C138.686 300.072 138.406 299.52 137.894 299.104C137.398 298.688 136.726 298.48 135.878 298.48C135.094 298.48 134.47 298.648 134.006 298.984C133.542 299.32 133.31 299.76 133.31 300.304C133.31 300.736 133.446 301.096 133.718 301.384C134.006 301.656 134.358 301.88 134.774 302.056C135.206 302.216 135.798 302.4 136.55 302.608C137.494 302.864 138.262 303.12 138.854 303.376C139.446 303.616 139.95 303.984 140.366 304.48C140.798 304.976 141.022 305.624 141.038 306.424C141.038 307.144 140.838 307.792 140.438 308.368C140.038 308.944 139.47 309.4 138.734 309.736C138.014 310.056 137.182 310.216 136.238 310.216ZM155.785 296.848V310H153.601V308.056C153.185 308.728 152.601 309.256 151.849 309.64C151.113 310.008 150.297 310.192 149.401 310.192C148.377 310.192 147.457 309.984 146.641 309.568C145.825 309.136 145.177 308.496 144.697 307.648C144.233 306.8 144.001 305.768 144.001 304.552V296.848H146.161V304.264C146.161 305.56 146.489 306.56 147.145 307.264C147.801 307.952 148.697 308.296 149.833 308.296C151.001 308.296 151.921 307.936 152.593 307.216C153.265 306.496 153.601 305.448 153.601 304.072V296.848H155.785ZM161.657 299.296C162.105 298.512 162.761 297.872 163.625 297.376C164.489 296.88 165.473 296.632 166.577 296.632C167.761 296.632 168.825 296.912 169.769 297.472C170.713 298.032 171.457 298.824 172.001 299.848C172.545 300.856 172.817 302.032 172.817 303.376C172.817 304.704 172.545 305.888 172.001 306.928C171.457 307.968 170.705 308.776 169.745 309.352C168.801 309.928 167.745 310.216 166.577 310.216C165.441 310.216 164.441 309.968 163.577 309.472C162.729 308.976 162.089 308.344 161.657 307.576V310H159.473V292.24H161.657V299.296ZM170.585 303.376C170.585 302.384 170.385 301.52 169.985 300.784C169.585 300.048 169.041 299.488 168.353 299.104C167.681 298.72 166.937 298.528 166.121 298.528C165.321 298.528 164.577 298.728 163.889 299.128C163.217 299.512 162.673 300.08 162.257 300.832C161.857 301.568 161.657 302.424 161.657 303.4C161.657 304.392 161.857 305.264 162.257 306.016C162.673 306.752 163.217 307.32 163.889 307.72C164.577 308.104 165.321 308.296 166.121 308.296C166.937 308.296 167.681 308.104 168.353 307.72C169.041 307.32 169.585 306.752 169.985 306.016C170.385 305.264 170.585 304.384 170.585 303.376ZM180.348 310.216C179.34 310.216 178.436 310.048 177.636 309.712C176.836 309.36 176.204 308.88 175.74 308.272C175.276 307.648 175.02 306.936 174.972 306.136H177.228C177.292 306.792 177.596 307.328 178.14 307.744C178.7 308.16 179.428 308.368 180.324 308.368C181.156 308.368 181.812 308.184 182.292 307.816C182.772 307.448 183.012 306.984 183.012 306.424C183.012 305.848 182.756 305.424 182.244 305.152C181.732 304.864 180.94 304.584 179.868 304.312C178.892 304.056 178.092 303.8 177.468 303.544C176.86 303.272 176.332 302.88 175.884 302.368C175.452 301.84 175.236 301.152 175.236 300.304C175.236 299.632 175.436 299.016 175.836 298.456C176.236 297.896 176.804 297.456 177.54 297.136C178.276 296.8 179.116 296.632 180.06 296.632C181.516 296.632 182.692 297 183.588 297.736C184.484 298.472 184.964 299.48 185.028 300.76H182.844C182.796 300.072 182.516 299.52 182.004 299.104C181.508 298.688 180.836 298.48 179.988 298.48C179.204 298.48 178.58 298.648 178.116 298.984C177.652 299.32 177.42 299.76 177.42 300.304C177.42 300.736 177.556 301.096 177.828 301.384C178.116 301.656 178.468 301.88 178.884 302.056C179.316 302.216 179.908 302.4 180.66 302.608C181.604 302.864 182.372 303.12 182.964 303.376C183.556 303.616 184.06 303.984 184.476 304.48C184.908 304.976 185.132 305.624 185.148 306.424C185.148 307.144 184.948 307.792 184.548 308.368C184.148 308.944 183.58 309.4 182.844 309.736C182.124 310.056 181.292 310.216 180.348 310.216ZM190.895 298.648V306.4C190.895 307.04 191.031 307.496 191.303 307.768C191.575 308.024 192.047 308.152 192.719 308.152H194.327V310H192.359C191.143 310 190.231 309.72 189.623 309.16C189.015 308.6 188.711 307.68 188.711 306.4V298.648H187.007V296.848H188.711V293.536H190.895V296.848H194.327V298.648H190.895ZM196.157 303.376C196.157 302.032 196.429 300.856 196.973 299.848C197.517 298.824 198.261 298.032 199.205 297.472C200.165 296.912 201.229 296.632 202.397 296.632C203.549 296.632 204.549 296.88 205.397 297.376C206.245 297.872 206.877 298.496 207.293 299.248V296.848H209.501V310H207.293V307.552C206.861 308.32 206.213 308.96 205.349 309.472C204.501 309.968 203.509 310.216 202.373 310.216C201.205 310.216 200.149 309.928 199.205 309.352C198.261 308.776 197.517 307.968 196.973 306.928C196.429 305.888 196.157 304.704 196.157 303.376ZM207.293 303.4C207.293 302.408 207.093 301.544 206.693 300.808C206.293 300.072 205.749 299.512 205.061 299.128C204.389 298.728 203.645 298.528 202.829 298.528C202.013 298.528 201.269 298.72 200.597 299.104C199.925 299.488 199.389 300.048 198.989 300.784C198.589 301.52 198.389 302.384 198.389 303.376C198.389 304.384 198.589 305.264 198.989 306.016C199.389 306.752 199.925 307.32 200.597 307.72C201.269 308.104 202.013 308.296 202.829 308.296C203.645 308.296 204.389 308.104 205.061 307.72C205.749 307.32 206.293 306.752 206.693 306.016C207.093 305.264 207.293 304.392 207.293 303.4ZM219.6 296.608C221.2 296.608 222.496 297.096 223.488 298.072C224.48 299.032 224.976 300.424 224.976 302.248V310H222.816V302.56C222.816 301.248 222.488 300.248 221.832 299.56C221.176 298.856 220.28 298.504 219.144 298.504C217.992 298.504 217.072 298.864 216.384 299.584C215.712 300.304 215.376 301.352 215.376 302.728V310H213.192V296.848H215.376V298.72C215.808 298.048 216.392 297.528 217.128 297.16C217.88 296.792 218.704 296.608 219.6 296.608ZM231.207 298.648V306.4C231.207 307.04 231.343 307.496 231.615 307.768C231.887 308.024 232.359 308.152 233.031 308.152H234.639V310H232.671C231.455 310 230.543 309.72 229.935 309.16C229.327 308.6 229.023 307.68 229.023 306.4V298.648H227.319V296.848H229.023V293.536H231.207V296.848H234.639V298.648H231.207ZM238.414 294.712C237.998 294.712 237.646 294.568 237.358 294.28C237.07 293.992 236.926 293.64 236.926 293.224C236.926 292.808 237.07 292.456 237.358 292.168C237.646 291.88 237.998 291.736 238.414 291.736C238.814 291.736 239.15 291.88 239.422 292.168C239.71 292.456 239.854 292.808 239.854 293.224C239.854 293.64 239.71 293.992 239.422 294.28C239.15 294.568 238.814 294.712 238.414 294.712ZM239.47 296.848V310H237.286V296.848H239.47ZM242.376 303.376C242.376 302.032 242.648 300.856 243.192 299.848C243.736 298.824 244.48 298.032 245.424 297.472C246.384 296.912 247.448 296.632 248.616 296.632C249.768 296.632 250.768 296.88 251.616 297.376C252.464 297.872 253.096 298.496 253.512 299.248V296.848H255.72V310H253.512V307.552C253.08 308.32 252.432 308.96 251.568 309.472C250.72 309.968 249.728 310.216 248.592 310.216C247.424 310.216 246.368 309.928 245.424 309.352C244.48 308.776 243.736 307.968 243.192 306.928C242.648 305.888 242.376 304.704 242.376 303.376ZM253.512 303.4C253.512 302.408 253.312 301.544 252.912 300.808C252.512 300.072 251.968 299.512 251.28 299.128C250.608 298.728 249.864 298.528 249.048 298.528C248.232 298.528 247.488 298.72 246.816 299.104C246.144 299.488 245.608 300.048 245.208 300.784C244.808 301.52 244.608 302.384 244.608 303.376C244.608 304.384 244.808 305.264 245.208 306.016C245.608 306.752 246.144 307.32 246.816 307.72C247.488 308.104 248.232 308.296 249.048 308.296C249.864 308.296 250.608 308.104 251.28 307.72C251.968 307.32 252.512 306.752 252.912 306.016C253.312 305.264 253.512 304.392 253.512 303.4ZM261.595 292.24V310H259.411V292.24H261.595Z" fill="#022B3A"/>
<path d="M26.788 335.536C26.044 335.536 25.42 335.284 24.916 334.78C24.412 334.276 24.16 333.652 24.16 332.908C24.16 332.164 24.412 331.54 24.916 331.036C25.42 330.532 26.044 330.28 26.788 330.28C27.508 330.28 28.12 330.532 28.624 331.036C29.128 331.54 29.38 332.164 29.38 332.908C29.38 333.652 29.128 334.276 28.624 334.78C28.12 335.284 27.508 335.536 26.788 335.536ZM28.804 338.164V358H24.7V338.164H28.804ZM58.2042 337.84C59.7642 337.84 61.1562 338.164 62.3802 338.812C63.6282 339.46 64.6002 340.42 65.2962 341.692C66.0162 342.964 66.3762 344.5 66.3762 346.3V358H62.3082V346.912C62.3082 345.136 61.8642 343.78 60.9762 342.844C60.0882 341.884 58.8762 341.404 57.3402 341.404C55.8042 341.404 54.5802 341.884 53.6682 342.844C52.7802 343.78 52.3362 345.136 52.3362 346.912V358H48.2682V346.912C48.2682 345.136 47.8242 343.78 46.9362 342.844C46.0482 341.884 44.8362 341.404 43.3002 341.404C41.7642 341.404 40.5402 341.884 39.6282 342.844C38.7402 343.78 38.2962 345.136 38.2962 346.912V358H34.1922V338.164H38.2962V340.432C38.9682 339.616 39.8202 338.98 40.8522 338.524C41.8842 338.068 42.9882 337.84 44.1642 337.84C45.7482 337.84 47.1642 338.176 48.4122 338.848C49.6602 339.52 50.6202 340.492 51.2922 341.764C51.8922 340.564 52.8282 339.616 54.1002 338.92C55.3722 338.2 56.7402 337.84 58.2042 337.84ZM75.7024 341.08C76.3984 340.168 77.3464 339.4 78.5464 338.776C79.7464 338.152 81.1024 337.84 82.6144 337.84C84.3424 337.84 85.9144 338.272 87.3304 339.136C88.7704 339.976 89.8984 341.164 90.7144 342.7C91.5304 344.236 91.9384 346 91.9384 347.992C91.9384 349.984 91.5304 351.772 90.7144 353.356C89.8984 354.916 88.7704 356.14 87.3304 357.028C85.9144 357.892 84.3424 358.324 82.6144 358.324C81.1024 358.324 79.7584 358.024 78.5824 357.424C77.4064 356.8 76.4464 356.032 75.7024 355.12V367.432H71.5984V338.164H75.7024V341.08ZM87.7624 347.992C87.7624 346.624 87.4744 345.448 86.8984 344.464C86.3464 343.456 85.6024 342.7 84.6664 342.196C83.7544 341.668 82.7704 341.404 81.7144 341.404C80.6824 341.404 79.6984 341.668 78.7624 342.196C77.8504 342.724 77.1064 343.492 76.5304 344.5C75.9784 345.508 75.7024 346.696 75.7024 348.064C75.7024 349.432 75.9784 350.632 76.5304 351.664C77.1064 352.672 77.8504 353.44 78.7624 353.968C79.6984 354.496 80.6824 354.76 81.7144 354.76C82.7704 354.76 83.7544 354.496 84.6664 353.968C85.6024 353.416 86.3464 352.624 86.8984 351.592C87.4744 350.56 87.7624 349.36 87.7624 347.992ZM100.101 341.044C100.701 340.036 101.493 339.256 102.477 338.704C103.485 338.128 104.673 337.84 106.041 337.84V342.088H104.997C103.389 342.088 102.165 342.496 101.325 343.312C100.509 344.128 100.101 345.544 100.101 347.56V358H95.9969V338.164H100.101V341.044ZM118.417 358.324C116.545 358.324 114.853 357.904 113.341 357.064C111.829 356.2 110.641 355 109.777 353.464C108.913 351.904 108.481 350.104 108.481 348.064C108.481 346.048 108.925 344.26 109.813 342.7C110.701 341.14 111.913 339.94 113.449 339.1C114.985 338.26 116.701 337.84 118.597 337.84C120.493 337.84 122.209 338.26 123.745 339.1C125.281 339.94 126.493 341.14 127.381 342.7C128.269 344.26 128.713 346.048 128.713 348.064C128.713 350.08 128.257 351.868 127.345 353.428C126.433 354.988 125.185 356.2 123.601 357.064C122.041 357.904 120.313 358.324 118.417 358.324ZM118.417 354.76C119.473 354.76 120.457 354.508 121.369 354.004C122.305 353.5 123.061 352.744 123.637 351.736C124.213 350.728 124.501 349.504 124.501 348.064C124.501 346.624 124.225 345.412 123.673 344.428C123.121 343.42 122.389 342.664 121.477 342.16C120.565 341.656 119.581 341.404 118.525 341.404C117.469 341.404 116.485 341.656 115.573 342.16C114.685 342.664 113.977 343.42 113.449 344.428C112.921 345.412 112.657 346.624 112.657 348.064C112.657 350.2 113.197 351.856 114.277 353.032C115.381 354.184 116.761 354.76 118.417 354.76ZM140.438 354.328L146.054 338.164H150.41L142.85 358H137.954L130.43 338.164H134.822L140.438 354.328ZM171.693 347.596C171.693 348.34 171.645 349.012 171.549 349.612H156.393C156.513 351.196 157.101 352.468 158.157 353.428C159.213 354.388 160.509 354.868 162.045 354.868C164.253 354.868 165.813 353.944 166.725 352.096H171.152C170.553 353.92 169.461 355.42 167.877 356.596C166.317 357.748 164.373 358.324 162.045 358.324C160.149 358.324 158.445 357.904 156.933 357.064C155.445 356.2 154.269 355 153.405 353.464C152.565 351.904 152.145 350.104 152.145 348.064C152.145 346.024 152.553 344.236 153.369 342.7C154.209 341.14 155.373 339.94 156.861 339.1C158.373 338.26 160.101 337.84 162.045 337.84C163.917 337.84 165.585 338.248 167.049 339.064C168.513 339.88 169.653 341.032 170.469 342.52C171.285 343.984 171.693 345.676 171.693 347.596ZM167.409 346.3C167.385 344.788 166.845 343.576 165.789 342.664C164.733 341.752 163.425 341.296 161.865 341.296C160.449 341.296 159.237 341.752 158.229 342.664C157.221 343.552 156.621 344.764 156.429 346.3H167.409ZM199.743 337.84C201.303 337.84 202.695 338.164 203.919 338.812C205.167 339.46 206.139 340.42 206.835 341.692C207.555 342.964 207.915 344.5 207.915 346.3V358H203.847V346.912C203.847 345.136 203.403 343.78 202.515 342.844C201.627 341.884 200.415 341.404 198.879 341.404C197.343 341.404 196.119 341.884 195.207 342.844C194.319 343.78 193.875 345.136 193.875 346.912V358H189.807V346.912C189.807 345.136 189.363 343.78 188.475 342.844C187.587 341.884 186.375 341.404 184.839 341.404C183.303 341.404 182.079 341.884 181.167 342.844C180.279 343.78 179.835 345.136 179.835 346.912V358H175.731V338.164H179.835V340.432C180.507 339.616 181.359 338.98 182.391 338.524C183.423 338.068 184.527 337.84 185.703 337.84C187.287 337.84 188.703 338.176 189.951 338.848C191.199 339.52 192.159 340.492 192.831 341.764C193.431 340.564 194.367 339.616 195.639 338.92C196.911 338.2 198.279 337.84 199.743 337.84ZM231.318 347.596C231.318 348.34 231.27 349.012 231.174 349.612H216.018C216.138 351.196 216.726 352.468 217.782 353.428C218.838 354.388 220.134 354.868 221.67 354.868C223.878 354.868 225.438 353.944 226.35 352.096H230.777C230.178 353.92 229.086 355.42 227.502 356.596C225.942 357.748 223.998 358.324 221.67 358.324C219.774 358.324 218.07 357.904 216.558 357.064C215.07 356.2 213.894 355 213.03 353.464C212.19 351.904 211.77 350.104 211.77 348.064C211.77 346.024 212.178 344.236 212.994 342.7C213.834 341.14 214.998 339.94 216.486 339.1C217.998 338.26 219.726 337.84 221.67 337.84C223.542 337.84 225.21 338.248 226.674 339.064C228.138 339.88 229.278 341.032 230.094 342.52C230.91 343.984 231.318 345.676 231.318 347.596ZM227.034 346.3C227.01 344.788 226.47 343.576 225.414 342.664C224.358 341.752 223.05 341.296 221.49 341.296C220.074 341.296 218.862 341.752 217.854 342.664C216.846 343.552 216.246 344.764 216.054 346.3H227.034ZM245.364 337.84C246.924 337.84 248.316 338.164 249.54 338.812C250.788 339.46 251.76 340.42 252.456 341.692C253.152 342.964 253.5 344.5 253.5 346.3V358H249.432V346.912C249.432 345.136 248.988 343.78 248.1 342.844C247.212 341.884 246 341.404 244.464 341.404C242.928 341.404 241.704 341.884 240.792 342.844C239.904 343.78 239.46 345.136 239.46 346.912V358H235.356V338.164H239.46V340.432C240.132 339.616 240.984 338.98 242.016 338.524C243.072 338.068 244.188 337.84 245.364 337.84ZM263.523 341.512V352.492C263.523 353.236 263.691 353.776 264.027 354.112C264.387 354.424 264.987 354.58 265.827 354.58H268.347V358H265.107C263.259 358 261.843 357.568 260.859 356.704C259.875 355.84 259.383 354.436 259.383 352.492V341.512H257.043V338.164H259.383V333.232H263.523V338.164H268.347V341.512H263.523ZM279.33 358.324C277.77 358.324 276.366 358.048 275.118 357.496C273.894 356.92 272.922 356.152 272.202 355.192C271.482 354.208 271.098 353.116 271.05 351.916H275.298C275.37 352.756 275.766 353.464 276.486 354.04C277.23 354.592 278.154 354.868 279.258 354.868C280.41 354.868 281.298 354.652 281.922 354.22C282.57 353.764 282.894 353.188 282.894 352.492C282.894 351.748 282.534 351.196 281.814 350.836C281.118 350.476 280.002 350.08 278.466 349.648C276.978 349.24 275.766 348.844 274.83 348.46C273.894 348.076 273.078 347.488 272.382 346.696C271.71 345.904 271.374 344.86 271.374 343.564C271.374 342.508 271.686 341.548 272.31 340.684C272.934 339.796 273.822 339.1 274.974 338.596C276.15 338.092 277.494 337.84 279.006 337.84C281.262 337.84 283.074 338.416 284.442 339.568C285.834 340.696 286.578 342.244 286.674 344.212H282.57C282.498 343.324 282.138 342.616 281.49 342.088C280.842 341.56 279.966 341.296 278.862 341.296C277.782 341.296 276.954 341.5 276.378 341.908C275.802 342.316 275.514 342.856 275.514 343.528C275.514 344.056 275.706 344.5 276.09 344.86C276.474 345.22 276.942 345.508 277.494 345.724C278.046 345.916 278.862 346.168 279.942 346.48C281.382 346.864 282.558 347.26 283.47 347.668C284.406 348.052 285.21 348.628 285.882 349.396C286.554 350.164 286.902 351.184 286.926 352.456C286.926 353.584 286.614 354.592 285.99 355.48C285.366 356.368 284.478 357.064 283.326 357.568C282.198 358.072 280.866 358.324 279.33 358.324Z" fill="#F8464C"/>
<path d="M147.731 222.808L8.44755 140.363C4.01455 137.871 0.209298 133.773 4.5338 131.095L144.321 50.3731C146.421 49.0691 149.606 48.2153 151.737 49.4572L297.949 134.472C302.382 137.049 303.18 144.252 298.724 146.836L166.09 222.676C163.305 224.295 160.147 225.158 156.928 225.181C153.708 225.204 150.538 224.386 147.731 222.808V222.808Z" fill="#16A79E"/>
<path style="mix-blend-mode:multiply" opacity="0.63" d="M98.1538 144.508L78.895 155.235L94.1315 164.859L109.368 155.685C107.857 154.707 99.6805 145.47 98.1538 144.508Z" fill="url(#paint0_linear_798_33)"/>
<path style="mix-blend-mode:multiply" opacity="0.63" d="M186.868 179.637L164.199 190.923L183.938 202.209L211.28 182.641C208.831 181.066 189.34 181.19 186.868 179.637Z" fill="url(#paint1_linear_798_33)"/>
<path style="mix-blend-mode:multiply" opacity="0.63" d="M172.151 136.956L140.957 154.334L153.45 163.012L177.289 146.076C174.863 144.492 174.623 138.508 172.151 136.956Z" fill="url(#paint2_linear_798_33)"/>
<path style="mix-blend-mode:multiply" opacity="0.63" d="M146.258 127.866L124.558 139.952L133.3 146.013L153.233 130.032C151.497 128.938 147.979 128.976 146.258 127.866Z" fill="url(#paint3_linear_798_33)"/>
<path style="mix-blend-mode:multiply" opacity="0.63" d="M115.219 156.375L84.0255 173.754L99.758 186.08L119.249 174.243C116.8 172.691 117.699 157.928 115.219 156.375Z" fill="url(#paint4_linear_798_33)"/>
<path style="mix-blend-mode:multiply" opacity="0.63" d="M150.683 150.376C148.611 149.993 146.571 149.448 144.584 148.746C142.189 147.876 139.601 146.627 138.152 144.484L114.088 157.889L129.82 170.246L151.605 151.284C151.247 151.037 150.935 150.73 150.683 150.376V150.376Z" fill="url(#paint5_linear_798_33)"/>
<path d="M180.071 126.446C179.134 126.446 177.824 127.44 176.971 127.859L174.646 129.015C174.646 129.015 173.096 134.852 172.19 136.987C171.283 139.121 168.074 143.794 169.198 145.524C169.968 146.598 171.117 147.339 172.412 147.597C173.707 147.855 175.051 147.611 176.173 146.914C179.126 145.292 179.041 139.882 180.118 137.778C181.001 136.04 180.591 132.345 180.591 131.569C180.633 129.846 180.459 128.125 180.071 126.446V126.446Z" fill="#181816"/>
<path d="M155.775 115.859C154.837 115.859 153.527 116.853 152.675 117.272L150.35 118.428C150.35 118.428 149.575 124.785 147.893 126.4C146.211 128.014 139.981 131.437 141.104 133.176C141.82 134.259 142.924 135.024 144.188 135.313C145.453 135.602 146.779 135.393 147.893 134.728C150.846 133.106 152.783 129.776 154.868 128.93C156.682 128.208 155.915 123.497 155.984 121.944C156.192 119.916 156.122 117.868 155.775 115.859Z" fill="#181816"/>
<path d="M151.559 56.3962C151.559 56.3962 147.529 77.8808 147.893 89.6632C148.258 101.446 148.459 115.875 149.358 122.263C149.358 122.263 157.155 123.349 159.797 121.013C159.797 121.013 160.572 79.7203 160.634 79.9532C161.828 85.3864 167.431 113.22 168.028 115.036C168.625 116.853 171.5 131.522 171.5 131.522C173.378 131.988 175.331 132.062 177.239 131.741C179.147 131.419 180.968 130.708 182.59 129.652C182.59 129.652 181.621 108.516 179.816 102.587C178.01 96.6565 171.709 59.3147 168.648 56.3962" fill="#F8464C"/>
<path d="M151.559 56.3962C151.559 56.3962 147.529 77.8808 147.893 89.6632C148.258 101.446 148.459 115.875 149.358 122.263C149.358 122.263 157.155 123.349 159.797 121.013C159.797 121.013 160.572 79.7203 160.634 79.9532C161.828 85.3864 167.431 113.22 168.028 115.036C168.625 116.853 171.5 131.522 171.5 131.522C173.378 131.988 175.331 132.062 177.239 131.741C179.147 131.419 180.968 130.708 182.59 129.652C182.59 129.652 181.621 108.516 179.816 102.587C178.01 96.6565 171.709 59.3147 168.648 56.3962" fill="#F8464C"/>
<path d="M168.446 58.1271C168.446 58.1271 175.344 38.0397 172.554 33.4447C169.764 28.8497 158.604 25.2328 153.241 25.6829C147.878 26.1331 151.319 57.8787 152.164 58.1116C153.008 58.3444 160.921 63.7932 168.446 58.1271Z" fill="#F7931E"/>
<path d="M170.725 31.3801L162.355 27.9028C160.836 35.2713 159.26 42.6243 157.627 49.9618L169.314 52.0186C169.314 52.0186 176.289 48.1843 177.343 42.0991C178.397 36.0139 171.043 31.6595 170.725 31.3801Z" fill="#F7931E"/>
<path d="M153.853 37.7914C153.853 37.7914 152.737 26.8162 152.737 25.8538C149.482 26.787 146.439 28.3449 143.778 30.441C142.418 31.4977 141.152 32.6717 139.996 33.9493C139.202 34.6991 138.543 35.5816 138.051 36.5572C137.707 37.7155 137.672 38.944 137.95 40.1199C138.466 42.8428 139.388 45.4725 140.686 47.9205C142.048 50.7727 143.73 53.4601 145.7 55.9306C146.312 56.7068 148.289 59.4777 149.575 59.0353C152.156 58.1349 153.233 55.1544 153.233 55.1544C153.233 55.1544 152.04 52.8259 150.753 49.8997C149.978 48.1766 146.56 44.2724 146.103 41.6024C146.442 41.1448 146.81 40.7093 147.204 40.2984C148.901 38.6063 151.737 38.8935 153.853 37.7914Z" fill="#F7931E"/>
<path d="M154.83 26.4747L156.55 35.1136L158.875 32.3348L160.681 35.7966L165.517 29.2224C165.517 29.2224 158.1 25.7606 154.83 26.4747Z" fill="#ED6B00"/>
<path d="M164.137 22.6169C162.882 24.0141 160.464 23.3931 158.875 23.0206C156.945 22.5859 154.729 21.4139 154.899 19.1397C154.899 18.7904 154.388 18.7982 154.357 19.1397C154.179 21.5381 156.356 23.0206 158.426 23.5018C160.262 23.9597 163.076 24.6583 164.509 23.0283C164.75 22.7411 164.37 22.353 164.137 22.6169Z" fill="#009245"/>
<path d="M153.853 17.6495C153.853 17.6495 153.853 29.3775 158.147 30.1459C162.866 30.9842 165.525 25.613 165.525 25.613C165.525 25.613 166.129 15.2511 161.44 14.3352C156.752 13.4193 153.985 16.1515 153.853 17.6495Z" fill="#FBB5AD"/>
<path d="M162.192 24.4488C162.192 24.4488 163.331 19.947 164.587 21.4295C165.842 22.912 162.549 26.1874 162.549 26.1874" fill="#FBB5AD"/>
<path d="M163.339 12.8838C163.339 12.8838 167.532 13.334 168.764 16.6793C169.996 20.0246 166.834 26.6764 164.587 27.7398L167.307 21.903L167.175 17.9289L163.339 12.8838Z" fill="#5C2E2E"/>
<path d="M168.679 18.1773C168.338 15.8488 166.788 14.7 164.765 13.5202C164.6 13.4219 164.432 13.3314 164.261 13.2486C164.651 12.929 164.963 12.5258 165.176 12.0688C165.203 12.0219 165.217 11.9689 165.217 11.9148C165.218 11.8607 165.204 11.8075 165.177 11.7604C165.15 11.7134 165.112 11.6741 165.066 11.6465C165.019 11.6189 164.966 11.6039 164.912 11.6031C164.648 11.6142 164.389 11.6799 164.152 11.7961C163.915 11.9123 163.704 12.0765 163.533 12.2783C163.296 11.7964 162.976 11.3602 162.587 10.9899C162.549 10.953 162.502 10.9266 162.451 10.9131C162.4 10.8996 162.346 10.8994 162.295 10.9126C162.243 10.9259 162.196 10.9521 162.158 10.9887C162.12 11.0253 162.091 11.0711 162.076 11.1218C161.984 11.3485 161.943 11.5926 161.957 11.8368C161.97 12.081 162.037 12.3192 162.153 12.5345C160.04 12.0874 157.837 12.4239 155.953 13.4814C155.266 13.8846 154.682 14.4427 154.248 15.1114C153.675 15.0529 153.098 15.1579 152.582 15.4141C152.034 15.677 151.586 16.1117 151.306 16.6522C151.027 17.1928 150.93 17.8099 151.032 18.4101C151.334 19.815 152.83 20.2885 154.132 20.0634C154.766 19.9244 155.355 19.6281 155.845 19.2018C155.465 19.8461 155.271 20.661 156.511 20.9405C158.658 21.4372 159.681 20.1643 159.813 21.2277C159.921 22.1047 161.13 22.5937 162.006 22.6092C162.068 22.7412 162.231 23.0982 162.424 23.5872C162.859 23.4423 163.325 23.4155 163.773 23.5096C163.807 23.4707 163.85 23.4405 163.899 23.4216C163.947 23.4027 163.999 23.3956 164.05 23.401C164.102 23.4063 164.152 23.4238 164.195 23.4522C164.238 23.4805 164.274 23.5188 164.3 23.5639C165.075 24.8446 164.873 26.2418 164.587 27.7165C165.747 26.7177 166.703 25.5024 167.4 24.1383C168.402 22.3205 168.847 20.247 168.679 18.1773V18.1773ZM162.579 11.8903L162.672 12.0222C162.667 12.0556 162.667 12.0897 162.672 12.1231C162.672 12.224 162.742 12.3171 162.789 12.4181C162.675 12.2629 162.603 12.0812 162.579 11.8903V11.8903Z" fill="#5C2E2E"/>
<path d="M157.147 34.3761L158.41 36.8443L160.185 34.7952L158.906 32.3347L157.147 34.3761Z" fill="#723100"/>
<path d="M158.41 36.8442C158.41 36.8442 160.185 49.2631 161.758 57.4052L159.433 61.744L156.55 58.0649C156.55 58.0649 155.31 49.5735 158.41 36.8442Z" fill="#723100"/>
<path d="M158.666 58.1038L157 39.9646L144.538 40.2518L146.281 58.1038H158.666Z" fill="#F8464C"/>
<path d="M162.913 50.963L157.488 46.9114V48.4637C157.488 48.4637 152.582 46.2672 152.342 47.2296C152.071 48.3085 152.977 51.3899 153.814 51.6849C154.651 51.9798 158.108 53.0897 158.108 53.0897L160.844 53.9591L162.913 50.963Z" fill="#FBB5AD"/>
<path d="M177.39 39.9646C177.39 39.9646 180.916 53.602 178.49 56.404C176.065 59.206 160.324 56.1712 160.177 54.7585C160.03 53.3459 162.184 48.7587 162.184 48.7587L170.973 49.7211" fill="#F7931E"/>
<path d="M150.567 58.1039C150.567 58.1039 153.853 57.545 154.512 59.369C154.861 60.3315 152.326 59.369 152.326 59.369L150.528 64.7247C149.983 64.0491 149.681 63.2101 149.668 62.3418C149.657 61.1151 149.768 59.8903 150.001 58.686L150.567 58.1039Z" fill="#FBB5AD"/>
<path d="M119.955 149.553C119.699 150.283 119.955 156.849 119.955 156.849L113.119 156.228L113.476 144.368L119.955 149.553Z" fill="#FBC76F"/>
<path d="M113.096 154.691C113.096 154.691 116.847 156.67 120.435 155.149C120.435 155.149 120.675 160.373 121.071 161.498C121.466 162.624 122.683 169.314 121.931 171.006C121.179 172.698 118.963 175.019 117.513 175.019C116.064 175.019 112.685 171.278 112.577 169.291C112.567 166.556 112.701 163.823 112.98 161.102C113.15 160.055 113.096 154.691 113.096 154.691Z" fill="#181816"/>
<path d="M138.593 137.095C138.4 137.872 139.159 144.368 139.159 144.368L132.292 144.306L131.688 132.454L138.593 137.095Z" fill="#FBC76F"/>
<path d="M144.724 145.874C142.306 144.857 140.074 143.708 138.524 141.481C138.259 142.128 137.836 142.699 137.295 143.141C136.753 143.583 136.11 143.882 135.424 144.011C134.698 144.148 133.952 144.122 133.238 143.933H132.967V143.856C132.682 143.742 132.42 143.579 132.192 143.375C131.758 145.494 132.246 148.994 132.835 149.506C133.571 150.151 137.617 150.973 137.617 150.973L136.958 149.328L140.887 151.75C142.538 152.766 147.475 153.752 150.187 152.487C150.774 152.28 151.263 151.863 151.559 151.315C151.125 147.426 147.599 147.077 144.724 145.874Z" fill="#181816"/>
<path d="M102.207 156.376C107.258 156.376 111.352 153.943 111.352 150.942C111.352 147.942 107.258 145.509 102.207 145.509C97.1564 145.509 93.062 147.942 93.062 150.942C93.062 153.943 97.1564 156.376 102.207 156.376Z" fill="#E0831E"/>
<path d="M93.062 149.801V151.02H111.352V150.026" fill="#E0831E"/>
<path d="M102.207 155.382C107.258 155.382 111.352 152.95 111.352 149.949C111.352 146.948 107.258 144.516 102.207 144.516C97.1564 144.516 93.062 146.948 93.062 149.949C93.062 152.95 97.1564 155.382 102.207 155.382Z" fill="#FFAE45"/>
<path d="M102.215 115.976H102.207C101.514 115.976 100.952 116.539 100.952 117.233V148.319C100.952 149.013 101.514 149.576 102.207 149.576H102.215C102.908 149.576 103.47 149.013 103.47 148.319V117.233C103.47 116.539 102.908 115.976 102.215 115.976Z" fill="#946C62"/>
<path d="M102.207 116.985C111.619 116.985 119.249 112.45 119.249 106.855C119.249 101.261 111.619 96.7263 102.207 96.7263C92.7949 96.7263 85.1648 101.261 85.1648 106.855C85.1648 112.45 92.7949 116.985 102.207 116.985Z" fill="#E0831E"/>
<path d="M85.1648 104.729V107.003H119.249V105.148" fill="#E0831E"/>
<path d="M102.207 115.13C111.619 115.13 119.249 110.595 119.249 105C119.249 99.4063 111.619 94.8713 102.207 94.8713C92.7949 94.8713 85.1648 99.4063 85.1648 105C85.1648 110.595 92.7949 115.13 102.207 115.13Z" fill="#FFAE45"/>
<path d="M103.773 104.015C103.773 104.015 115.63 112.669 128.255 115.486L130.82 137.033C130.82 137.033 132.61 138.368 139.237 137.033C139.237 137.033 143.042 112.91 137.772 101.329C134.354 93.8389 108.322 92.6047 108.322 92.6047" fill="#204A51"/>
<path d="M91.7833 108.074C91.7833 108.074 99.3706 103.254 103.06 101.383L113.545 95.2283L108.43 91.9062L91.4501 94.7471C92.0546 96.6332 87.1488 101.608 91.7833 108.074Z" fill="#204A51"/>
<path d="M122.512 61.8916C122.512 61.8916 123.822 57.8555 123.713 56.1091C123.605 54.3627 122.636 51.8246 123.713 51.2891C124.791 50.7535 126.108 54.4481 126.108 54.4481C126.108 54.4481 129.379 47.5945 130.363 48.0291C130.669 48.2156 130.924 48.476 131.104 48.7865C131.284 49.097 131.384 49.4477 131.394 49.8066C131.394 49.8066 132.44 48.0834 132.843 48.7975C133.055 49.4957 133.055 50.2416 132.843 50.9398C132.843 50.9398 133.812 51.1105 133.928 51.7159C134.044 52.3214 132.525 54.906 132.525 54.906C132.748 54.9369 132.954 55.0429 133.109 55.2065C133.264 55.3702 133.359 55.5817 133.378 55.8064C133.432 56.5826 127.216 62.792 127.216 62.792" fill="#FBC76F"/>
<path d="M106.175 60.8204C106.175 60.8204 111.639 65.3455 113.755 68.8073C115.87 72.269 122.791 59.6794 122.791 59.6794C122.791 59.6794 127.604 61.2318 129.138 61.9148C130.673 62.5979 121.388 83.9194 114.933 83.1898C108.477 82.4602 108.733 81.1951 108.733 81.1951" fill="#F8464C"/>
<path d="M91.45 94.7471C97.3245 95.7406 103.292 95.0576 108.438 91.9063C109.213 82.7707 109.849 73.6429 108.864 64.4685C108.855 64.3963 108.855 64.3233 108.864 64.2511C108.291 62.8867 107.362 61.7017 106.175 60.8204C103.184 58.8024 98.3088 59.7881 95.418 61.3172C94.719 61.6935 94.064 62.1464 93.465 62.6677C90.272 73.1151 91.5585 83.9738 91.45 94.7471Z" fill="#F8464C"/>
<path d="M102.796 56.5125L97.4951 55.4026L97.0533 61.2705C97.0533 61.2705 101.052 65.3687 104.997 64.8021L103.85 59.9122C103.371 58.8226 103.018 57.682 102.796 56.5125Z" fill="#FCBB5B"/>
<path d="M102.92 57.0636C101.186 56.2896 99.3645 55.7317 97.4951 55.4026L97.3556 58.6082C97.3556 58.6082 101.324 61.5266 103.68 59.4542C103.363 58.679 103.109 57.8796 102.92 57.0636V57.0636Z" fill="#DB9231"/>
<path d="M106.625 50.1402C106.625 50.1402 110.159 47.9902 109.453 46.0264C108.748 44.0627 105.997 43.5271 105.997 43.5271C105.997 43.5271 105.563 41.0201 103.525 40.7251C101.486 40.4302 97.9678 42.099 97.9678 42.099C97.9678 42.099 94.9143 41.8118 93.8371 43.5271C92.7598 45.2425 93.1473 48.3161 93.1473 48.3161C93.1473 48.3161 95.6971 56.0779 96.8286 56.2409C97.9601 56.4039 100.75 53.5864 100.75 53.5864" fill="#204A51"/>
<path d="M106.671 47.7031C106.671 47.7031 107.508 57.9486 103.153 58.6239C98.7971 59.2992 96.9526 53.3537 96.9526 53.3537C96.9526 53.3537 94.3176 50.8932 95.9683 50.3499C97.6191 49.8065 97.8671 50.7224 97.8671 50.7224C97.8671 50.7224 96.2473 47.0278 97.9446 47.0278C99.6418 47.0278 104.532 49.8065 106.671 47.7031Z" fill="#FBC76F"/>
<path d="M97.0533 59.625C97.0533 59.625 99.1303 61.581 100.494 61.7052L102.602 62.8539L104.346 64.6702V62.1476C104.346 62.1476 103.827 59.8734 103.912 59.8967C103.997 59.9199 105.803 62.8151 105.803 62.8151L107.539 65.718L105.005 65.4696L103.897 67.3247C103.897 67.3247 97.6036 64.5149 95.3716 61.3171L97.0533 59.625Z" fill="white"/>
<path d="M131.091 49.3796C129.98 51.3045 128.908 53.2579 127.875 55.2397C127.743 55.4958 128.131 55.7209 128.263 55.4648C129.296 53.4778 130.376 51.5218 131.502 49.5969C131.531 49.5424 131.537 49.4786 131.519 49.4196C131.5 49.3607 131.46 49.3114 131.405 49.2826C131.351 49.2537 131.287 49.2478 131.228 49.266C131.169 49.2842 131.12 49.325 131.091 49.3796V49.3796Z" fill="#204A51"/>
<path d="M132.525 50.7224L129.564 56.1557C129.425 56.404 129.812 56.6291 129.952 56.3807L132.913 50.9475C133.052 50.6991 132.665 50.474 132.525 50.7224Z" fill="#204A51"/>
<path d="M132.316 54.8515C131.727 55.533 131.208 56.2714 130.766 57.0558C130.742 57.1069 130.738 57.1651 130.754 57.2191C130.771 57.273 130.807 57.3187 130.856 57.347C130.905 57.3753 130.963 57.3843 131.018 57.372C131.073 57.3598 131.121 57.3273 131.153 57.2809C131.573 56.5274 132.066 55.8176 132.626 55.162C132.82 54.9446 132.525 54.6264 132.316 54.8515Z" fill="#204A51"/>
<path d="M126.542 55.0611C126.286 54.9291 126.062 55.3095 126.317 55.4492C127.002 55.8814 127.555 56.4936 127.916 57.2191C128.276 57.9445 128.431 58.7553 128.363 59.5629C128.373 59.6145 128.4 59.661 128.441 59.6945C128.481 59.728 128.532 59.7464 128.584 59.7464C128.637 59.7464 128.687 59.728 128.728 59.6945C128.768 59.661 128.795 59.6145 128.805 59.5629C128.877 58.6768 128.703 57.788 128.304 56.994C127.905 56.1999 127.295 55.5312 126.542 55.0611V55.0611Z" fill="#204A51"/>
<path d="M93.465 62.6677C91.2617 64.0824 89.4747 66.0597 88.288 68.3959C86.4745 72.1448 81.4138 89.1198 87.358 91.5492C93.3023 93.9787 103.633 88.4445 103.633 88.4445L103.013 79.4021L94.1083 80.6828" fill="#F8464C"/>
<path d="M104.935 72.2846C104.858 72.5718 102.207 89.1509 102.207 89.1509L112.693 86.3411L114.917 69.3972L104.935 72.2846Z" fill="#FF7F5C"/>
<path d="M100.797 80.4189C100.797 80.4189 102.649 75.6687 103.602 75.9636C104.555 76.2586 104.269 78.6802 104.269 78.6802C104.269 78.6802 109.012 76.3517 110.267 77.4228C111.523 78.494 108.368 81.2106 107.524 81.7849C106.679 82.3593 101.2 84.4007 101.2 84.4007L100.797 80.4189Z" fill="#FBC76F"/>
<path d="M91.4501 92.1625C94.5335 91.4666 97.5782 90.6091 100.572 89.5934C100.572 89.5934 101.393 84.8432 101.432 84.9907C101.471 85.1381 101.324 91.0914 100.944 91.5028C100.564 91.9142 91.4501 94.7472 91.4501 94.7472V92.1625Z" fill="#363942"/>
<path d="M91.7833 108.074C91.7833 108.074 100.952 117.233 109.376 121.114L108.601 148.528C108.601 148.528 113.824 152.79 120.443 151.455C120.443 151.455 123.791 121.091 121.613 113.15C119.435 105.21 105.028 98.5349 105.028 98.5349" fill="#204A51"/>
<path d="M160.913 81.6453L174.739 69.3662L184.039 93.1172L171.267 105.35L160.913 81.6453Z" fill="white"/>
<path d="M185.086 70.3052C184.554 69.6512 184.149 68.9036 183.892 68.1009C183.52 67.2393 183.233 66.339 182.799 65.5085C182.559 65.0505 182.334 63.9561 181.753 63.8785C181.536 63.8397 181.304 64.4451 181.257 64.6081C181.135 65.0236 181.135 65.4655 181.257 65.881C181.423 66.428 181.553 66.9855 181.645 67.5498C181.645 67.5498 177.77 64.0725 176.809 63.9484C175.848 63.8242 176.034 64.9341 176.034 64.9341C176.034 64.9341 174.941 64.1579 174.414 64.6391C173.887 65.1204 174.67 66.2846 174.67 66.2846C174.67 66.2846 173.585 66.991 174.158 67.7206C174.732 68.4502 177.987 70.2276 177.987 70.2276C177.987 70.2276 175.662 69.661 175.135 70.0103C174.608 70.3596 174.871 71.1357 175.793 71.485C176.716 71.8343 179.025 72.4552 179.025 72.4552C179.025 72.4552 182.861 73.7515 184.45 74.1085C186.039 74.4655 191.549 77.9894 191.549 77.9894L192.247 72.952C191.89 72.9054 185.783 70.965 185.086 70.3052Z" fill="#FE6162"/>
<path d="M202.538 73.8446L185.798 68.489C185.798 68.489 182.156 73.2004 183.326 76.1654L190.65 80.1627" fill="#F8464C"/>
<path opacity="0.35" d="M202.538 73.8446L185.798 68.489C185.798 68.489 182.156 73.2004 183.326 76.1654L190.65 80.1627" fill="#204A51"/>
<path d="M205.375 180.383L209.018 179.374L208.444 174.926C208.444 174.926 204.507 175.586 205.375 180.383Z" fill="#42210B"/>
<path d="M210.343 167.451C210.343 167.451 211.629 182.486 211.281 182.657C210.932 182.828 207.406 183.13 207.406 182.874C207.406 182.618 207.196 176.036 207.196 176.036C207.196 176.036 205.445 178.939 205.352 180.39C205.352 180.39 201.167 178 200.384 176.083C199.601 174.165 202.174 166.14 203.151 165.705" fill="#7F252B"/>
<path d="M196.362 188.261L200.485 183.875L197.796 180.46C197.796 180.46 195.3 185.994 196.362 188.261Z" fill="#42210B"/>
<path d="M202.492 170.875L204.422 188.913C204.422 188.913 201.322 189.968 200.741 189.891C199.961 189.619 199.213 189.265 198.509 188.835L197.819 182.82C197.819 182.82 196.029 184.613 196.354 188.253C196.354 188.005 193.51 187.058 193.138 186.895C191.989 186.393 190.887 185.79 189.844 185.094C188.751 184.318 184.675 180.973 186.86 179.661C188.72 178.52 194.75 179.071 194.75 179.071L194.835 171.627" fill="#7F252B"/>
<path d="M209.7 106.258C209.685 106.194 209.686 106.128 209.701 106.064C209.717 106 209.746 105.941 209.788 105.891C209.83 105.84 209.883 105.8 209.943 105.774C210.003 105.747 210.068 105.735 210.134 105.738C209.726 104.153 209.041 102.652 208.111 101.306L190.65 99.249C190.65 99.249 187.147 111.73 185.798 133.23C184.752 149.902 192.921 174.693 192.921 174.693C192.921 174.693 201.376 176.843 205.437 172.66L205.274 169.066C207.379 169.051 209.48 168.88 211.56 168.554C213.675 147.845 212.087 126.858 209.7 106.258Z" fill="#8CC63F"/>
<path d="M205.941 171.689L203.755 156.244C203.058 151.323 201.988 146.262 201.965 141.271C201.942 136.28 203.647 131.809 204.476 127.052C205.26 122.438 205.461 117.744 205.073 113.08C204.988 111.994 203.43 111.986 203.523 113.08C203.956 118.287 203.635 123.528 202.57 128.643C201.593 133.214 200.245 137.553 200.431 142.311C200.617 147.069 201.578 151.928 202.275 156.694L204.461 172.14C204.6 173.226 206.096 172.761 205.941 171.689Z" fill="#42210B"/>
<path d="M179.924 96.4702C179.981 96.2963 179.981 96.1085 179.924 95.9346H180.033C180.221 95.9665 180.414 95.9278 180.575 95.8259L180.746 95.8725C181.707 96.1752 182.102 94.6617 181.141 94.3202C180.366 94.0795 179.591 93.8622 178.816 93.6526H178.746C177.162 93.0626 175.548 92.5574 173.91 92.1391C173.393 91.9528 172.861 91.7821 172.314 91.6268H172.259C170.84 91.1224 169.373 90.7661 167.881 90.5635C167.059 90.4703 166.044 90.4548 165.556 91.2698C165.522 91.3288 165.504 91.3957 165.504 91.4638C165.504 91.5319 165.522 91.5989 165.556 91.6579C165.835 92.0848 166.276 92.1158 166.765 92.2555L168.253 92.6747C167.662 92.7973 167.084 92.9713 166.524 93.1947C165.904 93.3031 165.322 93.5705 164.835 93.9709C164.706 94.0977 164.625 94.2656 164.607 94.4456C164.589 94.6255 164.634 94.8063 164.734 94.9566C164.793 95.0528 164.873 95.1349 164.967 95.1972C164.699 95.3405 164.498 95.5845 164.41 95.8755C164.321 96.1665 164.351 96.4809 164.494 96.7496C164.592 96.9236 164.736 97.0679 164.909 97.1676C165.082 97.2673 165.278 97.3186 165.478 97.3162C165.265 97.4479 165.096 97.6421 164.997 97.8725C164.897 98.1029 164.87 98.3585 164.92 98.6047C165.067 99.0781 165.532 99.2023 166.013 99.2023C165.962 99.3091 165.937 99.426 165.938 99.5442C165.939 99.6624 165.968 99.7787 166.021 99.8843C166.074 99.9898 166.15 100.082 166.244 100.153C166.338 100.225 166.447 100.274 166.563 100.297C167.52 100.484 168.512 100.292 169.33 99.7612C169.379 99.7318 169.421 99.6921 169.454 99.6447C170.167 99.5822 170.868 99.4229 171.539 99.1713C171.841 99.0393 172.151 98.8918 172.461 98.7677L173.003 98.5503C173.089 98.5503 173.422 98.3252 173.499 98.3563L176.599 99.5749C177.444 99.9009 178.924 100.887 179.862 100.561C180.8 100.235 180.412 98.7056 179.459 99.0083C179.661 98.9384 179.242 98.8996 179.126 98.853L178.266 98.5193C179.052 98.8351 179.89 99.0035 180.738 99.016C180.895 99.0203 181.05 98.9765 181.182 98.8906C181.313 98.8046 181.416 98.6805 181.476 98.5348C181.535 98.3891 181.549 98.2287 181.516 98.0748C181.482 97.9209 181.403 97.7808 181.288 97.6732C180.869 97.2331 180.413 96.8305 179.924 96.4702V96.4702Z" fill="#FE6162"/>
<path d="M202.539 73.8447C202.539 73.8447 192.836 73.8447 189.48 79.961C186.667 85.0915 187.194 93.6605 187.194 93.6605L176.018 92.7757C176.018 92.7757 172.81 94.1185 173.608 98.1546C174.042 100.351 185.132 101.368 191.255 102.889C197.377 104.411 208.429 104.853 210.165 101.151C211.901 97.4483 211.715 82.5224 209.661 78.2612C207.607 74 202.539 73.8447 202.539 73.8447Z" fill="#F8464C"/>
<path d="M201.5 73.1227C201.5 73.1227 197.625 76.0955 195.215 74.2947C192.805 72.494 193.386 64.7245 193.386 64.7245C193.386 64.7245 194.618 62.396 199.19 65.3144C203.763 68.2328 201.5 73.1227 201.5 73.1227Z" fill="#FE6162"/>
<path d="M203.05 74.1628L202.949 73.9766L200.516 74.7527L200.469 74.8769C201.345 74.6208 202.205 74.3802 203.05 74.1628Z" fill="#7F252B"/>
<path d="M207.026 64.5693C206.702 62.707 205.814 60.9892 204.484 59.6484C202.508 57.8088 199.462 57.8244 197.028 58.6005C195.762 58.9599 194.629 59.6842 193.771 60.6834C192.912 61.6825 192.366 62.9124 192.2 64.2201C191.665 67.154 195.091 65.3455 195.85 67.0221C196.286 67.9949 196.426 69.0747 196.253 70.1268C195.998 71.8732 194.959 73.5575 195.114 75.3582C195.127 75.7953 195.248 76.2225 195.467 76.6007C195.686 76.9789 195.997 77.2962 196.37 77.5237C198.48 77.7181 200.606 77.6817 202.709 77.4151C204.352 77.2909 207.669 77.1512 208.258 75.1486C208.948 72.758 207.026 64.5693 207.026 64.5693Z" fill="#7F252B"/>
<path style="mix-blend-mode:multiply" opacity="0.63" d="M262.19 153.216C268.569 148.963 275.055 144.865 281.503 140.728L272.343 134.029L236.871 148.862C241.157 151.113 246.946 155.328 253.038 159.62C256.06 157.454 259.09 155.281 262.19 153.216Z" fill="url(#paint6_linear_798_33)"/>
<path d="M284.975 117C284.923 116.781 284.825 116.574 284.689 116.395C284.438 116.09 284.14 115.827 283.805 115.619C279.302 112.568 273.064 111.738 268.305 114.71C267.22 115.393 265.6 116.938 266.244 118.397C266.616 119.243 267.747 119.74 268.569 120.082C271.175 121.112 273.897 121.821 276.675 122.193C277.683 122.364 278.706 122.534 279.721 122.627C280.423 122.695 281.131 122.585 281.78 122.307C282.429 122.029 282.997 121.592 283.433 121.036C284.162 120.105 285.301 118.312 284.975 117Z" fill="#754C24"/>
<path d="M266.12 117.714C266.12 117.714 270.227 121.44 277.326 120.897C284.425 120.353 284.975 117.016 284.975 117.016C284.975 117.016 283.139 140.58 282.17 140.984C281.201 141.388 277.574 143.142 275.823 143.274C274.071 143.406 268.538 141.186 268.398 140.573C268.259 139.959 266.12 117.714 266.12 117.714Z" fill="#F8464C"/>
<path d="M267.414 83.3682C267.197 82.9258 266.523 83.3139 266.747 83.7563C271.606 93.5672 272.552 104.612 273.428 115.339C273.466 115.828 274.241 115.836 274.203 115.339C273.319 104.465 272.335 93.3111 267.414 83.3682Z" fill="#007F68"/>
<path d="M266.794 83.4614C266.794 83.4614 268.15 88.5531 266.747 91.099C265.344 93.6449 264.19 94.1494 265.864 97.3084C267.538 100.467 272.017 100.894 272.312 103.316C272.606 105.738 270.165 87.7847 266.794 83.4614Z" fill="#007F68"/>
<path d="M282.333 92.6515C278.59 100.49 276.481 109.009 276.133 117.691C276.133 118.296 277.055 118.289 277.078 117.691C277.407 109.175 279.461 100.814 283.115 93.1172C283.41 92.5817 282.588 92.1082 282.333 92.6515Z" fill="#007F68"/>
<path d="M282.991 95.1351C282.991 94.6228 282.875 93.5827 282.929 92.7212L282.387 93.0627C280.542 97.5568 277.783 108.113 276.962 111.342C278.086 108.92 282.681 108.586 284.03 105.132C284.625 103.666 284.652 102.03 284.107 100.545C283.442 98.8151 283.065 96.9874 282.991 95.1351V95.1351Z" fill="#007F68"/>
<defs>
<linearGradient id="paint0_linear_798_33" x1="89.0475" y1="163.687" x2="98.6631" y2="148.184" gradientUnits="userSpaceOnUse">
<stop stop-color="white" stop-opacity="0"/>
<stop offset="0.99" stop-color="#754C24"/>
</linearGradient>
<linearGradient id="paint1_linear_798_33" x1="10972.6" y1="6056.96" x2="11251.9" y2="5116.06" gradientUnits="userSpaceOnUse">
<stop stop-color="white" stop-opacity="0"/>
<stop offset="0.99" stop-color="#754C24"/>
</linearGradient>
<linearGradient id="paint2_linear_798_33" x1="7191.18" y1="5635.34" x2="7631.2" y2="4643.96" gradientUnits="userSpaceOnUse">
<stop stop-color="white" stop-opacity="0"/>
<stop offset="0.99" stop-color="#754C24"/>
</linearGradient>
<linearGradient id="paint3_linear_798_33" x1="4982.96" y1="3557.47" x2="5194.35" y2="3017.81" gradientUnits="userSpaceOnUse">
<stop stop-color="white" stop-opacity="0"/>
<stop offset="0.99" stop-color="#754C24"/>
</linearGradient>
<linearGradient id="paint4_linear_798_33" x1="4364.77" y1="7255.4" x2="4945.04" y2="6144.31" gradientUnits="userSpaceOnUse">
<stop stop-color="white" stop-opacity="0"/>
<stop offset="0.99" stop-color="#754C24"/>
</linearGradient>
<linearGradient id="paint5_linear_798_33" x1="6091.79" y1="5758.9" x2="6533.19" y2="4720.41" gradientUnits="userSpaceOnUse">
<stop stop-color="white" stop-opacity="0"/>
<stop offset="0.99" stop-color="#754C24"/>
</linearGradient>
<linearGradient id="paint6_linear_798_33" x1="14913.7" y1="5004.42" x2="15496.8" y2="4184.67" gradientUnits="userSpaceOnUse">
<stop stop-color="white" stop-opacity="0"/>
<stop offset="0.99" stop-color="#754C24"/>
</linearGradient>
</defs>
</svg>
