<svg width="304" height="222" viewBox="0 0 304 222" fill="none" xmlns="http://www.w3.org/2000/svg">
<g clip-path="url(#clip0_718_132)">
<path d="M239.425 39.247C259.194 54.288 266.281 82.68 273.741 112.424C281.387 142.168 289.407 173.264 276.352 192.868C263.297 212.303 229.167 220.415 201.938 217.035C174.709 213.486 154.381 198.445 122.303 195.403C90.0385 192.361 46.211 201.318 30.7315 189.319C15.252 177.32 28.307 144.534 35.5805 111.579C43.0405 78.624 44.9055 45.5 63.9285 30.459C82.9515 15.249 119.132 18.122 153.448 20.488C187.764 22.685 219.842 24.206 239.425 39.247Z" fill="#724CF9"/>
<path d="M212.682 120.571C212.903 120.861 213.184 121.1 213.506 121.269C213.828 121.439 214.183 121.535 214.547 121.553C214.91 121.57 215.273 121.507 215.61 121.369C215.947 121.23 216.249 121.019 216.495 120.751L224.608 124.284L223.817 119.75L216.235 117.09C215.758 116.706 215.156 116.509 214.544 116.539C213.932 116.569 213.352 116.822 212.914 117.251C212.477 117.68 212.211 118.255 212.168 118.867C212.126 119.479 212.309 120.086 212.682 120.571V120.571Z" fill="#A0616A"/>
<path d="M220.063 118.01L235.561 120.021L251.542 110.382C252.397 109.867 253.351 109.538 254.341 109.419C255.332 109.299 256.337 109.391 257.289 109.688C258.242 109.985 259.121 110.481 259.868 111.142C260.616 111.804 261.215 112.617 261.626 113.527C262.368 115.174 262.452 117.043 261.862 118.751C261.273 120.459 260.053 121.877 258.454 122.714L236.978 130.376L236.938 130.39L218.096 121.987L220.063 118.01Z" fill="#3F3D56"/>
<path d="M259.668 218.354H256.374L254.807 205.632L259.669 205.632L259.668 218.354Z" fill="#A0616A"/>
<path d="M260.508 221.552L249.886 221.551V221.417C249.886 220.319 250.322 219.266 251.097 218.49C251.872 217.713 252.924 217.277 254.02 217.277H254.021L255.961 215.803L259.581 217.277L260.508 217.277L260.508 221.552Z" fill="#2F2E41"/>
<path d="M246.902 216.276L243.688 217.002L239.361 204.938L244.103 203.866L246.902 216.276Z" fill="#A0616A"/>
<path d="M248.425 219.209L238.063 221.552L238.034 221.42C237.792 220.349 237.985 219.226 238.571 218.298C239.157 217.37 240.086 216.713 241.156 216.471L241.156 216.471L242.725 214.605L246.58 215.245L247.485 215.04L248.425 219.209Z" fill="#2F2E41"/>
<path d="M263.84 140.577C265.385 145.241 265.222 150.304 263.469 155.737L262.72 186.33C262.72 186.33 263.836 206.392 260.234 213.452H255.011L252.425 184.498L252.1 165.064L240.901 181.46L248.034 212.978L241.605 213.554L230.03 179.349L244.311 146.164L263.84 140.577Z" fill="#2F2E41"/>
<path d="M242.695 145.086L243.983 141.862L243.131 139.09L242.937 112.228L242.937 112.208L246.028 107.272L246.053 104.151L254.685 103.94L255.621 106.32L257.473 107.429C259.493 108.642 261.158 110.365 262.3 112.427C263.443 114.488 264.024 116.815 263.984 119.172L263.649 137.296L264.51 139.021C264.744 139.489 264.874 140.003 264.891 140.526C264.908 141.05 264.812 141.571 264.609 142.053C264.406 142.536 264.101 142.969 263.716 143.323C263.33 143.676 262.872 143.942 262.374 144.102L243.38 147.144L242.695 145.086Z" fill="#3F3D56"/>
<path d="M249.579 100.981C253.91 100.981 257.421 97.4651 257.421 93.1284C257.421 88.7918 253.91 85.2762 249.579 85.2762C245.247 85.2762 241.736 88.7918 241.736 93.1284C241.736 97.4651 245.247 100.981 249.579 100.981Z" fill="#A0616A"/>
<path d="M257.745 94.8402C257.979 93.8535 257.872 92.4651 257.739 91.4717C257.57 90.1617 257.128 88.902 256.441 87.7741C255.755 86.6463 254.839 85.6754 253.753 84.9245C253.337 84.6081 252.843 84.4113 252.323 84.3554C252.063 84.3335 251.804 84.3945 251.581 84.5295C251.358 84.6646 251.183 84.8668 251.082 85.1073C250.951 84.7804 250.755 84.4839 250.505 84.2359C250.255 83.988 249.957 83.7939 249.63 83.6657C248.972 83.4133 248.264 83.3179 247.563 83.3869C246.204 83.4991 244.9 83.9776 243.791 84.7716C242.681 85.5657 241.807 86.6456 241.261 87.8969C241.052 88.3952 240.467 86.5548 240.201 87.0256C239.958 87.5149 239.532 87.8892 239.016 88.0684C238.496 88.2137 238.285 90.359 238.08 89.8587C237.921 90.2284 237.858 90.6323 237.898 91.0329C237.937 91.4334 238.076 91.8175 238.304 92.1494C238.531 92.4813 238.838 92.7502 239.198 92.9311C239.557 93.112 239.956 93.1989 240.357 93.1839C240.882 93.1159 241.403 93.0162 241.916 92.8852C242.858 92.7664 243.81 92.9969 244.594 93.5333C245.378 94.0698 245.938 94.8749 246.17 95.7968C246.313 95.2607 246.542 94.7513 246.847 94.2882C247.002 94.0579 247.21 93.868 247.453 93.7342C247.696 93.6005 247.968 93.5268 248.245 93.5193C248.51 93.5497 248.766 93.6341 248.997 93.7672C249.229 93.9004 249.43 94.0794 249.59 94.2935C249.935 94.6994 250.195 95.1729 250.542 95.5766C251.563 96.7612 252.943 99.5237 254.398 99.3222C255.545 99.1632 257.426 96.1873 257.745 94.8402Z" fill="#2F2E41"/>
<path d="M220.342 141.412C220.676 141.557 221.037 141.627 221.401 141.617C221.765 141.608 222.122 141.518 222.448 141.355C222.773 141.192 223.059 140.96 223.285 140.674C223.511 140.388 223.672 140.057 223.756 139.702L232.557 138.812L229.654 135.244L221.741 136.636C221.137 136.534 220.516 136.658 219.997 136.983C219.477 137.308 219.095 137.813 218.923 138.402C218.75 138.991 218.799 139.622 219.061 140.177C219.323 140.732 219.778 141.171 220.342 141.412Z" fill="#A0616A"/>
<path d="M225.529 135.564L240.029 129.731L249.262 113.499C249.756 112.631 250.428 111.877 251.234 111.288C252.039 110.698 252.96 110.287 253.936 110.079C254.912 109.872 255.921 109.874 256.896 110.085C257.872 110.297 258.791 110.712 259.594 111.305C261.046 112.379 262.033 113.968 262.352 115.746C262.672 117.525 262.3 119.359 261.314 120.872L246.323 138.069L246.295 138.102L225.756 139.996L225.529 135.564Z" fill="#3F3D56"/>
<path d="M219.051 149.069H159.564C159.149 149.068 158.752 148.903 158.459 148.61C158.165 148.316 158 147.918 158 147.503V123.337C158 122.922 158.165 122.524 158.459 122.23C158.752 121.937 159.149 121.772 159.564 121.771H219.051C219.465 121.772 219.863 121.937 220.156 122.23C220.449 122.524 220.614 122.922 220.614 123.337V147.503C220.614 147.918 220.449 148.316 220.156 148.61C219.863 148.903 219.465 149.068 219.051 149.069Z" fill="#01BAEF"/>
<path d="M213.291 160.662H165.132C164.885 160.662 164.641 160.614 164.413 160.52C164.185 160.425 163.978 160.287 163.804 160.113C163.629 159.938 163.491 159.731 163.396 159.503C163.302 159.275 163.253 159.03 163.253 158.783C163.253 158.536 163.302 158.292 163.396 158.064C163.491 157.836 163.629 157.628 163.804 157.454C163.978 157.279 164.185 157.141 164.413 157.047C164.641 156.953 164.885 156.904 165.132 156.905H213.291C215.71 156.871 215.734 160.696 213.291 160.662Z" fill="#E4E4E4"/>
<path d="M213.29 169.272H165.132C164.634 169.272 164.157 169.074 163.805 168.722C163.453 168.369 163.256 167.892 163.256 167.393C163.256 166.895 163.453 166.417 163.805 166.065C164.157 165.713 164.634 165.515 165.132 165.515H213.29C215.71 165.481 215.734 169.306 213.29 169.272Z" fill="#E4E4E4"/>
<path d="M213.291 177.882H165.132C164.885 177.883 164.641 177.834 164.413 177.74C164.185 177.646 163.978 177.507 163.804 177.333C163.629 177.159 163.491 176.951 163.396 176.723C163.302 176.495 163.253 176.251 163.253 176.004C163.253 175.757 163.302 175.512 163.396 175.284C163.491 175.056 163.629 174.849 163.804 174.674C163.978 174.5 164.185 174.362 164.413 174.267C164.641 174.173 164.885 174.125 165.132 174.125H213.291C215.71 174.091 215.734 177.916 213.291 177.882Z" fill="#E4E4E4"/>
<path d="M53.7506 37.4134C54.6611 37.7109 55.6312 37.7773 56.5736 37.6066C57.5161 37.436 58.4015 37.0336 59.1502 36.4357C59.5333 36.128 59.9577 36.762 59.5772 37.0677C58.7469 37.7245 57.7685 38.1676 56.7276 38.3585C55.6868 38.5494 54.6151 38.4821 53.6062 38.1626C53.5086 38.1405 53.423 38.082 53.3669 37.999C53.3109 37.9159 53.2884 37.8147 53.3043 37.7157C53.3239 37.6166 53.3818 37.5293 53.4654 37.4727C53.5489 37.4161 53.6515 37.3948 53.7506 37.4134Z" fill="#022B3A"/>
<path d="M66.4821 61.6847C71.1451 61.6847 74.9253 57.9 74.9253 53.2312C74.9253 48.5625 71.1451 44.7777 66.4821 44.7777C61.819 44.7777 58.0388 48.5625 58.0388 53.2312C58.0388 57.9 61.819 61.6847 66.4821 61.6847Z" fill="#2F2E41"/>
<path d="M112.681 134.58H53.1938C52.7793 134.58 52.3819 134.415 52.0887 134.121C51.7956 133.828 51.6307 133.43 51.6302 133.015V108.848C51.6307 108.433 51.7956 108.035 52.0887 107.742C52.3819 107.448 52.7793 107.283 53.1938 107.283H112.681C113.095 107.283 113.493 107.448 113.786 107.742C114.079 108.035 114.244 108.433 114.245 108.848V133.015C114.244 133.43 114.079 133.828 113.786 134.121C113.493 134.415 113.095 134.58 112.681 134.58Z" fill="#F8464C"/>
<circle cx="140" cy="55" r="5" fill="white" fill-opacity="0.5"/>
<circle cx="125" cy="55" r="5" fill="white" fill-opacity="0.5"/>
<circle cx="155" cy="55" r="5" fill="white" fill-opacity="0.5"/>
<circle cx="83" cy="121" r="5" fill="white" fill-opacity="0.5"/>
<circle cx="68" cy="121" r="5" fill="white" fill-opacity="0.5"/>
<circle cx="98" cy="121" r="5" fill="white" fill-opacity="0.5"/>
<path d="M107.017 146.173H58.8582C58.362 146.171 57.887 145.972 57.5369 145.62C57.1868 145.268 56.9903 144.791 56.9903 144.295C56.9903 143.798 57.1868 143.321 57.5369 142.969C57.887 142.617 58.362 142.418 58.8582 142.416H107.017C109.436 142.382 109.461 146.207 107.017 146.173Z" fill="#E4E4E4"/>
<path d="M107.017 154.783H58.8582C58.6115 154.784 58.3673 154.735 58.1393 154.641C57.9114 154.547 57.7042 154.409 57.5297 154.234C57.3552 154.06 57.2167 153.853 57.1223 153.624C57.0278 153.396 56.9792 153.152 56.9792 152.905C56.9792 152.658 57.0278 152.413 57.1223 152.185C57.2167 151.957 57.3552 151.75 57.5297 151.576C57.7042 151.401 57.9114 151.263 58.1393 151.169C58.3673 151.074 58.6115 151.026 58.8582 151.026H107.017C109.436 150.993 109.461 154.818 107.017 154.783Z" fill="#E4E4E4"/>
<path d="M107.017 163.394H58.8582C58.3606 163.394 57.8833 163.196 57.5314 162.844C57.1796 162.491 56.9819 162.013 56.9819 161.515C56.9819 161.017 57.1796 160.539 57.5314 160.187C57.8833 159.834 58.3606 159.637 58.8582 159.637H107.017C109.436 159.603 109.461 163.428 107.017 163.394Z" fill="#E4E4E4"/>
<path d="M110.971 69.9257C110.742 70.2728 110.44 70.5655 110.086 70.7831C109.733 71.0007 109.335 71.138 108.923 71.1853C108.51 71.2326 108.092 71.1887 107.698 71.0568C107.304 70.9248 106.944 70.708 106.643 70.4216L85.5641 79.4304L86.1186 74.2069L106.66 66.2328C107.175 65.7582 107.845 65.4889 108.544 65.4759C109.243 65.4629 109.923 65.7071 110.454 66.1623C110.985 66.6175 111.331 67.252 111.427 67.9456C111.522 68.6392 111.36 69.3437 110.971 69.9257Z" fill="#FFB6B6"/>
<path d="M68.0668 69.4405C68.0668 69.4405 65.4606 71.9748 68.047 75.2361C70.6333 78.4974 83.4211 80.618 85.472 81.0216C87.5229 81.4252 98.9309 73.6559 98.9309 73.6559L100.036 68.0272L87.3019 72.4013L68.0668 69.4405Z" fill="#FDCA40"/>
<path d="M61.0679 88.6693L61.2731 92.5732C61.2731 92.5732 60.6674 96.0312 61.1656 96.7775C61.66 97.52 75.1511 97.6137 75.1511 97.6137C75.1511 97.6137 76.0425 92.8025 76.8103 88.5912L61.0679 88.6693Z" fill="#FFB6B6"/>
<path d="M99.8564 140.286L102.677 139.716L101.87 128.31L97.707 129.152L99.8564 140.286Z" fill="#FFB6B6"/>
<path d="M103.897 125.443L106.518 124.263L103.117 113.349L99.2471 115.092L103.897 125.443Z" fill="#FFB6B6"/>
<path d="M106.18 119.294L101.243 122.093L89.0676 102.503C80.5201 108.269 72.1617 111.03 63.7357 112.503C60.8869 113.011 57.9824 112.754 57.4355 109.851C57.4099 109.715 57.3895 109.578 57.3744 109.441C57.0379 106.27 60.9776 102.206 61.4783 98.3261L72.2605 97.6781L73.59 99.3849L86.0592 91.7095C86.6644 91.345 87.3358 91.104 88.0345 91.0005C88.7332 90.8969 89.4455 90.9329 90.1302 91.1062C90.815 91.2795 91.4587 91.5869 92.0243 92.0105C92.5899 92.4341 93.0662 92.9655 93.4257 93.5743C93.5081 93.7101 93.5846 93.8494 93.6552 93.992L106.18 119.294Z" fill="#2F2E41"/>
<path d="M103.159 132.472L97.5094 132.997L87.2665 112.023C77.1093 113.772 67.5269 114.333 59.2385 112.217C57.8778 111.857 56.7132 110.976 55.9962 109.763C55.2793 108.551 55.0677 107.104 55.4071 105.737C55.4394 105.603 55.4767 105.47 55.5191 105.338C56.511 102.308 59.1076 100.164 61.1534 96.8314L76.0965 97.0587L74.4274 102.824L88.9436 100.944C89.6449 100.86 90.3559 100.916 91.0356 101.108C91.7152 101.301 92.3501 101.626 92.9037 102.065C93.4572 102.504 93.9185 103.049 94.2609 103.667C94.6032 104.286 94.8199 104.966 94.8984 105.669C94.918 105.827 94.9307 105.985 94.9367 106.144L103.159 132.472Z" fill="#2F2E41"/>
<path d="M66.9026 62.3981C70.2537 62.3981 72.9703 59.6781 72.9703 56.3229C72.9703 52.9677 70.2537 50.2478 66.9026 50.2478C63.5515 50.2478 60.8348 52.9677 60.8348 56.3229C60.8348 59.6781 63.5515 62.3981 66.9026 62.3981Z" fill="#FFB6B6"/>
<path d="M63.3454 64.5912L68.9089 65.2466C69.1436 65.2742 69.3637 65.3744 69.5388 65.5333C69.7138 65.6921 69.835 65.9017 69.8854 66.1328L70.7702 70.1864L76.2857 76.6895C76.2857 76.6895 78.2662 80.4076 77.5235 84.6214C76.7808 88.8352 76.4544 91.9663 76.4544 91.9663C76.4544 91.9663 61.6592 97.5204 61.1641 96.7767C60.669 96.0331 60.5083 92.6554 60.5083 92.6554L58.5277 70.5949C58.5277 70.5949 60.7558 66.8768 61.9937 66.8768C62.7926 66.8498 62.6901 65.0496 63.3454 64.5912Z" fill="#FDCA40"/>
<path d="M76.6049 93.3226C77.3851 93.3226 78.0175 92.5627 78.0175 91.6253C78.0175 90.688 77.3851 89.9281 76.6049 89.9281C75.8247 89.9281 75.1922 90.688 75.1922 91.6253C75.1922 92.5627 75.8247 93.3226 76.6049 93.3226Z" fill="#FDCA40"/>
<path d="M98.4567 137.35L102.757 135.192L103.567 137.085L109.005 138.185C109.273 138.24 109.517 138.379 109.702 138.582C109.886 138.785 110 139.042 110.028 139.315C110.056 139.587 109.997 139.862 109.858 140.099C109.719 140.335 109.508 140.521 109.256 140.629L104.003 142.884L102.295 141.4L102.744 143.424L100.763 144.274L98.4567 137.35Z" fill="#2F2E41"/>
<path d="M102.666 124.535L106.927 122.302L107.771 124.18L113.227 125.185C113.496 125.235 113.743 125.369 113.931 125.569C114.118 125.769 114.237 126.023 114.27 126.296C114.303 126.568 114.248 126.844 114.114 127.083C113.979 127.322 113.771 127.511 113.521 127.624L108.308 129.971L106.575 128.517L107.059 130.533L105.093 131.418L102.666 124.535Z" fill="#2F2E41"/>
<path d="M63.4359 54.4174C61.8328 54.42 60.2683 53.9258 58.9569 53.0026L58.9131 52.9719V52.9184C58.9149 51.3659 59.5317 49.8775 60.6281 48.7797C61.7246 47.682 63.2112 47.0644 64.7618 47.0627H67.2244C68.775 47.0644 70.2616 47.682 71.358 48.7797C72.4545 49.8775 73.0712 51.3659 73.073 52.9184C73.0713 53.2738 72.9312 53.6144 72.6824 53.8678C72.4337 54.1213 72.0959 54.2674 71.7411 54.2752L63.5743 54.4162C63.5282 54.417 63.4819 54.4174 63.4359 54.4174Z" fill="#2F2E41"/>
<path d="M87.8592 101.674C87.4456 101.712 87.0287 101.659 86.6378 101.519C86.2468 101.378 85.8914 101.154 85.5966 100.861C85.3017 100.568 85.0746 100.214 84.9312 99.8234C84.7878 99.4331 84.7316 99.0161 84.7665 98.6018L64.5654 87.7631L68.9839 84.9306L88.0428 95.9967C88.7342 96.1016 89.3631 96.4569 89.8103 96.9951C90.2576 97.5333 90.4921 98.217 90.4695 98.9168C90.4469 99.6166 90.1686 100.284 89.6876 100.792C89.2065 101.3 88.5559 101.614 87.8592 101.674H87.8592Z" fill="#FFB6B6"/>
<path d="M61.4132 67.8447C61.4132 67.8447 57.8083 67.3928 56.883 71.4528C55.9578 75.5127 62.2999 86.831 63.2675 88.6859C64.2352 90.5408 77.4239 94.5977 77.4239 94.5977L82.5023 91.9419L71.1312 84.7263L61.4132 67.8447Z" fill="#FDCA40"/>
<path d="M67.8417 47.968C68.4095 47.271 67.9657 46.2387 67.5001 45.4695C66.4334 43.7071 65.3136 41.9784 64.141 40.2833C62.6756 38.1652 60.9 35.9508 58.377 35.443C56.076 34.9799 53.758 36.0746 51.7785 37.3371C49.8322 38.5783 47.9154 40.1417 47.1746 42.3298C46.4657 44.4237 46.9636 46.749 47.8456 48.776C48.6011 50.512 49.6174 52.5878 48.54 54.1442C48.0243 54.7837 47.3311 55.2561 46.5477 55.5018C44.5581 56.2756 42.4202 56.5915 40.2922 56.4259C43.214 56.3945 45.7714 59.3982 48.6038 58.6796C50.21 58.2722 51.2797 56.7729 52.0495 55.3038C52.6126 54.3173 52.9935 53.2372 53.174 52.1153C53.3611 50.5936 52.9564 48.9923 53.4674 47.5471C53.9992 46.0429 55.413 45.0364 56.84 44.3259C57.7874 43.8542 58.8204 43.4603 59.8755 43.5402C62.8665 43.7669 64.4156 47.4528 67.2537 48.4247" fill="#2F2E41"/>
<path d="M169.497 68.5382H110.01C109.595 68.5377 109.198 68.3726 108.905 68.0791C108.612 67.7857 108.447 67.3877 108.446 66.9727V42.806C108.447 42.391 108.612 41.9931 108.905 41.6996C109.198 41.4061 109.595 41.241 110.01 41.2405H169.497C169.912 41.241 170.309 41.4061 170.602 41.6996C170.895 41.9931 171.06 42.391 171.061 42.806V66.9727C171.06 67.3877 170.895 67.7857 170.602 68.0791C170.309 68.3726 169.912 68.5377 169.497 68.5382Z" fill="#FDCA40"/>
<path d="M163.833 80.131H115.674C115.177 80.131 114.699 79.9331 114.348 79.5808C113.996 79.2285 113.798 78.7507 113.798 78.2524C113.798 77.7542 113.996 77.2764 114.348 76.9241C114.699 76.5718 115.177 76.3738 115.674 76.3738H163.833C166.253 76.34 166.277 80.1652 163.833 80.131Z" fill="#E4E4E4"/>
<path d="M163.833 88.7413H115.674C115.428 88.7416 115.183 88.6933 114.956 88.5991C114.728 88.5048 114.52 88.3665 114.346 88.192C114.171 88.0175 114.033 87.8103 113.938 87.5822C113.844 87.3541 113.795 87.1096 113.795 86.8627C113.795 86.6158 113.844 86.3713 113.938 86.1432C114.033 85.9151 114.171 85.7079 114.346 85.5334C114.52 85.3589 114.728 85.2206 114.956 85.1263C115.183 85.0321 115.428 84.9838 115.674 84.9841H163.833C166.253 84.9503 166.277 88.7754 163.833 88.7413Z" fill="#E4E4E4"/>
<path d="M163.833 97.3515H115.674C115.177 97.3515 114.699 97.1536 114.348 96.8013C113.996 96.449 113.798 95.9712 113.798 95.4729C113.798 94.9747 113.996 94.4969 114.348 94.1446C114.699 93.7923 115.177 93.5943 115.674 93.5943H163.833C166.253 93.5605 166.277 97.3856 163.833 97.3515Z" fill="#E4E4E4"/>
<circle cx="189" cy="135" r="5" fill="white" fill-opacity="0.5"/>
<circle cx="174" cy="135" r="5" fill="white" fill-opacity="0.5"/>
<circle cx="204" cy="135" r="5" fill="white" fill-opacity="0.5"/>
<circle cx="140" cy="55" r="5" fill="white" fill-opacity="0.5"/>
<circle cx="125" cy="55" r="5" fill="white" fill-opacity="0.5"/>
<circle cx="155" cy="55" r="5" fill="white" fill-opacity="0.5"/>
</g>
<defs>
<clipPath id="clip0_718_132">
<rect width="304" height="222" fill="white"/>
</clipPath>
</defs>
</svg>
