<svg width="31" height="26" viewBox="0 0 31 26" fill="none" xmlns="http://www.w3.org/2000/svg">
<path d="M8.78773 0.702897C8.72253 0.638276 8.64504 0.587003 8.55973 0.552018C8.47442 0.517032 8.38295 0.499023 8.29057 0.499023C8.1982 0.499023 8.10673 0.517032 8.02142 0.552018C7.9361 0.587003 7.85862 0.638276 7.79341 0.702897L4.06881 4.35989L2.74111 3.08216C2.6759 3.01754 2.59842 2.96627 2.51311 2.93128C2.42779 2.8963 2.33632 2.87829 2.24395 2.87829C2.15157 2.87829 2.0601 2.8963 1.97479 2.93128C1.88948 2.96627 1.81199 3.01754 1.74679 3.08216L0.828506 3.9902C0.763073 4.0546 0.711155 4.13112 0.675731 4.21537C0.640306 4.29963 0.62207 4.38996 0.62207 4.48119C0.62207 4.57242 0.640306 4.66275 0.675731 4.74701C0.711155 4.83126 0.763073 4.90778 0.828506 4.97218L3.61201 7.71015C3.75095 7.84058 3.93532 7.91332 4.12701 7.91332C4.3187 7.91332 4.50307 7.84058 4.64201 7.71015L5.55386 6.80789L9.77679 2.63796C9.90836 2.50792 9.98271 2.33188 9.98369 2.14805C9.98468 1.96421 9.91222 1.7874 9.78205 1.65599L8.78773 0.702897ZM8.78773 9.89823C8.72253 9.8336 8.64504 9.78233 8.55973 9.74735C8.47442 9.71236 8.38295 9.69435 8.29057 9.69435C8.1982 9.69435 8.10673 9.71236 8.02142 9.74735C7.9361 9.78233 7.85862 9.8336 7.79341 9.89823L4.06881 13.5789L2.74111 12.3023C2.6759 12.2377 2.59842 12.1864 2.51311 12.1515C2.42779 12.1165 2.33632 12.0985 2.24395 12.0985C2.15157 12.0985 2.0601 12.1165 1.97479 12.1515C1.88948 12.1864 1.81199 12.2377 1.74679 12.3023L0.828506 13.2086C0.763073 13.273 0.711155 13.3496 0.675731 13.4338C0.640306 13.5181 0.62207 13.6084 0.62207 13.6996C0.62207 13.7909 0.640306 13.8812 0.675731 13.9654C0.711155 14.0497 0.763073 14.1262 0.828506 14.1906L3.60499 16.9344C3.74383 17.0648 3.9281 17.1375 4.1197 17.1375C4.3113 17.1375 4.49557 17.0648 4.63441 16.9344L5.55269 16.0281L9.77562 11.8564C9.90669 11.7273 9.98079 11.5522 9.98177 11.3694C9.98276 11.1865 9.91055 11.0107 9.78088 10.8802L8.78773 9.89823ZM4.36536 19.9092C2.81597 19.9092 1.52336 21.1511 1.52336 22.6818C1.52336 24.2125 2.81714 25.4544 4.36536 25.4544C5.10995 25.4544 5.82404 25.1623 6.35055 24.6424C6.87705 24.1224 7.17284 23.4172 7.17284 22.6818C7.17284 21.9465 6.87705 21.2412 6.35055 20.7213C5.82404 20.2013 5.10995 19.9092 4.36536 19.9092ZM29.6327 20.8334H12.7878C12.5396 20.8334 12.3016 20.9308 12.1261 21.1041C11.9506 21.2774 11.852 21.5125 11.852 21.7576V23.606C11.852 23.8511 11.9506 24.0862 12.1261 24.2595C12.3016 24.4329 12.5396 24.5302 12.7878 24.5302H29.6327C29.8809 24.5302 30.119 24.4329 30.2945 24.2595C30.47 24.0862 30.5686 23.8511 30.5686 23.606V21.7576C30.5686 21.5125 30.47 21.2774 30.2945 21.1041C30.119 20.9308 29.8809 20.8334 29.6327 20.8334ZM29.6327 2.34915H12.7878C12.5396 2.34915 12.3016 2.44652 12.1261 2.61984C11.9506 2.79317 11.852 3.02824 11.852 3.27336V5.12178C11.852 5.3669 11.9506 5.60198 12.1261 5.7753C12.3016 5.94862 12.5396 6.046 12.7878 6.046H29.6327C29.8809 6.046 30.119 5.94862 30.2945 5.7753C30.47 5.60198 30.5686 5.3669 30.5686 5.12178V3.27336C30.5686 3.02824 30.47 2.79317 30.2945 2.61984C30.119 2.44652 29.8809 2.34915 29.6327 2.34915ZM29.6327 11.5913H12.7878C12.5396 11.5913 12.3016 11.6886 12.1261 11.862C11.9506 12.0353 11.852 12.2704 11.852 12.5155V14.3639C11.852 14.609 11.9506 14.8441 12.1261 15.0174C12.3016 15.1907 12.5396 15.2881 12.7878 15.2881H29.6327C29.8809 15.2881 30.119 15.1907 30.2945 15.0174C30.47 14.8441 30.5686 14.609 30.5686 14.3639V12.5155C30.5686 12.2704 30.47 12.0353 30.2945 11.862C30.119 11.6886 29.8809 11.5913 29.6327 11.5913Z" fill="#CCD5D8"/>
</svg>
