<svg width="21" height="19" viewBox="0 0 21 19" fill="none" xmlns="http://www.w3.org/2000/svg">
<path fill-rule="evenodd" clip-rule="evenodd" d="M0.954545 0C0.427365 0 0 0.425329 0 0.95V15.2C0 15.7247 0.427365 16.15 0.954545 16.15H7.63636C8.14269 16.15 8.62827 16.3502 8.98629 16.7065C9.34432 17.0628 9.54545 17.5461 9.54545 18.05C9.54545 18.5747 9.97282 19 10.5 19C11.0272 19 11.4545 18.5747 11.4545 18.05C11.4545 17.5461 11.6557 17.0628 12.0137 16.7065C12.3717 16.3502 12.8573 16.15 13.3636 16.15H20.0455C20.5726 16.15 21 15.7247 21 15.2V0.95C21 0.425329 20.5726 0 20.0455 0H14.3182C13.0524 0 11.8384 0.500445 10.9434 1.39124C10.7827 1.55111 10.6347 1.72119 10.5 1.89997C10.3653 1.72119 10.2173 1.55111 10.0566 1.39124C9.16159 0.500445 7.94762 0 6.68182 0H0.954545ZM11.4545 14.7591C12.03 14.4284 12.6876 14.25 13.3636 14.25H19.0909V1.9H14.3182C13.5587 1.9 12.8303 2.20027 12.2933 2.73475C11.7562 3.26922 11.4545 3.99413 11.4545 4.75V14.7591ZM9.54545 14.7591V4.75C9.54545 3.99413 9.24375 3.26922 8.70671 2.73475C8.16968 2.20027 7.4413 1.9 6.68182 1.9H1.90909V14.25H7.63636C8.3124 14.25 8.96995 14.4284 9.54545 14.7591Z" fill="#FFFBFA"/>
</svg>
